M48
; DRILL file {KiCad (5.1.10-1-10_14)} date Saturday, November 27, 2021 at 08:47:11 AM
; FORMAT={-:-/ absolute / inch / decimal}
; #@! TF.CreationDate,2021-11-27T08:47:11+01:00
; #@! TF.GenerationSoftware,Kicad,Pcbnew,(5.1.10-1-10_14)
; #@! TF.FileFunction,Plated,1,2,PTH
FMAT,2
INCH
T1C0.0315
T2C0.0335
T3C0.0354
T4C0.0394
T5C0.0787
%
G90
G05
T1
X4.548Y-3.782
X4.948Y-3.782
X4.97Y-4.195
X4.97Y-4.295
X4.97Y-4.395
X5.098Y-3.924
X5.498Y-3.924
T2
X4.572Y-4.662
X4.572Y-4.8589
T3
X5.45Y-4.712
X5.45Y-4.812
T4
X4.13Y-3.795
X4.13Y-3.895
X4.13Y-3.995
X4.13Y-4.095
X6.284Y-3.808
X6.284Y-4.708
X6.384Y-3.808
X6.384Y-4.708
X6.484Y-3.808
X6.484Y-4.708
X6.584Y-3.808
X6.584Y-4.708
X6.684Y-3.808
X6.684Y-4.708
X6.784Y-3.808
X6.784Y-4.708
X6.884Y-3.808
X6.884Y-4.708
X6.984Y-3.808
X6.984Y-4.708
T5
X4.462Y-3.07
X7.2966Y-3.07
T0
M30
