%TF.GenerationSoftware,KiCad,Pcbnew,(5.1.10-1-10_14)*%
%TF.CreationDate,2021-11-27T08:47:14+01:00*%
%TF.ProjectId,Distance_Measurement_V2,44697374-616e-4636-955f-4d6561737572,Version 2 Rev. 01*%
%TF.SameCoordinates,Original*%
%TF.FileFunction,Copper,L1,Top*%
%TF.FilePolarity,Positive*%
%FSLAX46Y46*%
G04 Gerber Fmt 4.6, Leading zero omitted, Abs format (unit mm)*
G04 Created by KiCad (PCBNEW (5.1.10-1-10_14)) date 2021-11-27 08:47:14*
%MOMM*%
%LPD*%
G01*
G04 APERTURE LIST*
%TA.AperFunction,ComponentPad*%
%ADD10C,1.850000*%
%TD*%
%TA.AperFunction,ComponentPad*%
%ADD11R,1.850000X1.850000*%
%TD*%
%TA.AperFunction,ComponentPad*%
%ADD12R,3.500000X3.500000*%
%TD*%
%TA.AperFunction,ComponentPad*%
%ADD13C,3.500000*%
%TD*%
%TA.AperFunction,ComponentPad*%
%ADD14O,1.600000X2.000000*%
%TD*%
%TA.AperFunction,ComponentPad*%
%ADD15R,2.000000X2.000000*%
%TD*%
%TA.AperFunction,ComponentPad*%
%ADD16O,1.600000X1.600000*%
%TD*%
%TA.AperFunction,ComponentPad*%
%ADD17C,1.600000*%
%TD*%
%TA.AperFunction,ComponentPad*%
%ADD18R,1.500000X1.500000*%
%TD*%
%TA.AperFunction,ComponentPad*%
%ADD19C,1.500000*%
%TD*%
%TA.AperFunction,ComponentPad*%
%ADD20C,1.800000*%
%TD*%
%TA.AperFunction,ComponentPad*%
%ADD21R,1.800000X1.800000*%
%TD*%
%TA.AperFunction,ComponentPad*%
%ADD22O,1.700000X1.700000*%
%TD*%
%TA.AperFunction,ComponentPad*%
%ADD23R,1.700000X1.700000*%
%TD*%
%TA.AperFunction,Conductor*%
%ADD24C,0.250000*%
%TD*%
%TA.AperFunction,Conductor*%
%ADD25C,0.254000*%
%TD*%
%TA.AperFunction,Conductor*%
%ADD26C,0.100000*%
%TD*%
G04 APERTURE END LIST*
D10*
%TO.P,LS1,2*%
%TO.N,GND*%
X116128800Y-123414800D03*
D11*
%TO.P,LS1,1*%
%TO.N,Net-(LS1-Pad1)*%
X116128800Y-118414800D03*
%TD*%
D12*
%TO.P,BT1,1*%
%TO.N,+5V*%
X113334800Y-77978000D03*
D13*
%TO.P,BT1,2*%
%TO.N,GND*%
X185334800Y-77978000D03*
%TD*%
D14*
%TO.P,U1,16*%
%TO.N,N/C*%
X159613600Y-96723200D03*
%TO.P,U1,15*%
X162153600Y-96723200D03*
%TO.P,U1,14*%
%TO.N,Net-(R1-Pad2)*%
X164693600Y-96723200D03*
%TO.P,U1,13*%
%TO.N,N/C*%
X167233600Y-96723200D03*
%TO.P,U1,12*%
%TO.N,Net-(R2-Pad1)*%
X169773600Y-96723200D03*
%TO.P,U1,11*%
%TO.N,N/C*%
X172313600Y-96723200D03*
%TO.P,U1,10*%
%TO.N,GND*%
X174853600Y-96723200D03*
%TO.P,U1,9*%
%TO.N,+5V*%
X177393600Y-96723200D03*
%TO.P,U1,8*%
%TO.N,N/C*%
X177393600Y-119583200D03*
%TO.P,U1,7*%
X174853600Y-119583200D03*
%TO.P,U1,6*%
%TO.N,Net-(J1-Pad3)*%
X172313600Y-119583200D03*
%TO.P,U1,5*%
%TO.N,Net-(J1-Pad2)*%
X169773600Y-119583200D03*
%TO.P,U1,4*%
%TO.N,N/C*%
X167233600Y-119583200D03*
%TO.P,U1,3*%
X164693600Y-119583200D03*
D15*
%TO.P,U1,1*%
X159613600Y-119583200D03*
D14*
%TO.P,U1,2*%
X162153600Y-119583200D03*
%TD*%
D16*
%TO.P,R2,2*%
%TO.N,Net-(Q1-Pad2)*%
X129489200Y-99669600D03*
D17*
%TO.P,R2,1*%
%TO.N,Net-(R2-Pad1)*%
X139649200Y-99669600D03*
%TD*%
D18*
%TO.P,Q1,1*%
%TO.N,Net-(LS1-Pad1)*%
X126238000Y-111633000D03*
D19*
%TO.P,Q1,3*%
%TO.N,+5V*%
X126238000Y-106553000D03*
%TO.P,Q1,2*%
%TO.N,Net-(Q1-Pad2)*%
X126238000Y-109093000D03*
%TD*%
D20*
%TO.P,D1,2*%
%TO.N,Net-(D1-Pad2)*%
X138430000Y-119684800D03*
D21*
%TO.P,D1,1*%
%TO.N,GND*%
X138430000Y-122224800D03*
%TD*%
D22*
%TO.P,J1,4*%
%TO.N,+5V*%
X104902000Y-96393000D03*
%TO.P,J1,3*%
%TO.N,Net-(J1-Pad3)*%
X104902000Y-98933000D03*
%TO.P,J1,2*%
%TO.N,Net-(J1-Pad2)*%
X104902000Y-101473000D03*
D23*
%TO.P,J1,1*%
%TO.N,GND*%
X104902000Y-104013000D03*
%TD*%
D16*
%TO.P,R1,2*%
%TO.N,Net-(R1-Pad2)*%
X125679200Y-96062800D03*
D17*
%TO.P,R1,1*%
%TO.N,Net-(D1-Pad2)*%
X115519200Y-96062800D03*
%TD*%
D24*
%TO.N,Net-(D1-Pad2)*%
X114224389Y-94767989D02*
X115519200Y-96062800D01*
X104151599Y-94767989D02*
X114224389Y-94767989D01*
X103276990Y-95642598D02*
X104151599Y-94767989D01*
X103276990Y-107997992D02*
X103276990Y-95642598D01*
X114963798Y-119684800D02*
X103276990Y-107997992D01*
X138430000Y-119684800D02*
X114963798Y-119684800D01*
%TO.N,Net-(J1-Pad3)*%
X150813401Y-98083001D02*
X172313600Y-119583200D01*
X105751999Y-98083001D02*
X150813401Y-98083001D01*
X104902000Y-98933000D02*
X105751999Y-98083001D01*
%TO.N,Net-(J1-Pad2)*%
X160358401Y-110168001D02*
X169773600Y-119583200D01*
X113597001Y-110168001D02*
X160358401Y-110168001D01*
X104902000Y-101473000D02*
X113597001Y-110168001D01*
%TO.N,Net-(LS1-Pad1)*%
X119456200Y-118414800D02*
X126238000Y-111633000D01*
X116128800Y-118414800D02*
X119456200Y-118414800D01*
%TO.N,Net-(Q1-Pad2)*%
X129489200Y-105841800D02*
X126238000Y-109093000D01*
X129489200Y-99669600D02*
X129489200Y-105841800D01*
%TO.N,Net-(R2-Pad1)*%
X168448590Y-98048210D02*
X169773600Y-96723200D01*
X151173399Y-97187801D02*
X152033808Y-98048210D01*
X107435803Y-97187801D02*
X151173399Y-97187801D01*
X105466001Y-95217999D02*
X107435803Y-97187801D01*
X152033808Y-98048210D02*
X168448590Y-98048210D01*
X103726999Y-95828999D02*
X104337999Y-95217999D01*
X103726999Y-99497001D02*
X103726999Y-95828999D01*
X104337999Y-100108001D02*
X103726999Y-99497001D01*
X109223997Y-100108001D02*
X104337999Y-100108001D01*
X110787399Y-98544599D02*
X109223997Y-100108001D01*
X104337999Y-95217999D02*
X105466001Y-95217999D01*
X138524199Y-98544599D02*
X110787399Y-98544599D01*
X139649200Y-99669600D02*
X138524199Y-98544599D01*
%TO.N,Net-(R1-Pad2)*%
X163233201Y-95262801D02*
X164693600Y-96723200D01*
X126479199Y-95262801D02*
X163233201Y-95262801D01*
X125679200Y-96062800D02*
X126479199Y-95262801D01*
%TD*%
D25*
%TO.N,+5V*%
X206780001Y-129634000D02*
X92100000Y-129634000D01*
X92100000Y-123261153D01*
X114568800Y-123261153D01*
X114568800Y-123568447D01*
X114628750Y-123869835D01*
X114746346Y-124153737D01*
X114917069Y-124409242D01*
X115134358Y-124626531D01*
X115389863Y-124797254D01*
X115673765Y-124914850D01*
X115975153Y-124974800D01*
X116282447Y-124974800D01*
X116583835Y-124914850D01*
X116867737Y-124797254D01*
X117123242Y-124626531D01*
X117340531Y-124409242D01*
X117511254Y-124153737D01*
X117628850Y-123869835D01*
X117688800Y-123568447D01*
X117688800Y-123261153D01*
X117628850Y-122959765D01*
X117511254Y-122675863D01*
X117340531Y-122420358D01*
X117123242Y-122203069D01*
X116867737Y-122032346D01*
X116583835Y-121914750D01*
X116282447Y-121854800D01*
X115975153Y-121854800D01*
X115673765Y-121914750D01*
X115389863Y-122032346D01*
X115134358Y-122203069D01*
X114917069Y-122420358D01*
X114746346Y-122675863D01*
X114628750Y-122959765D01*
X114568800Y-123261153D01*
X92100000Y-123261153D01*
X92100000Y-120573872D01*
X102205000Y-120573872D01*
X102205000Y-121014128D01*
X102290890Y-121445925D01*
X102459369Y-121852669D01*
X102703962Y-122218729D01*
X103015271Y-122530038D01*
X103381331Y-122774631D01*
X103788075Y-122943110D01*
X104219872Y-123029000D01*
X104660128Y-123029000D01*
X105091925Y-122943110D01*
X105498669Y-122774631D01*
X105864729Y-122530038D01*
X106176038Y-122218729D01*
X106420631Y-121852669D01*
X106589110Y-121445925D01*
X106675000Y-121014128D01*
X106675000Y-120573872D01*
X106589110Y-120142075D01*
X106420631Y-119735331D01*
X106176038Y-119369271D01*
X105864729Y-119057962D01*
X105498669Y-118813369D01*
X105091925Y-118644890D01*
X104660128Y-118559000D01*
X104219872Y-118559000D01*
X103788075Y-118644890D01*
X103381331Y-118813369D01*
X103015271Y-119057962D01*
X102703962Y-119369271D01*
X102459369Y-119735331D01*
X102290890Y-120142075D01*
X102205000Y-120573872D01*
X92100000Y-120573872D01*
X92100000Y-95642598D01*
X102513314Y-95642598D01*
X102516991Y-95679930D01*
X102516990Y-107960670D01*
X102513314Y-107997992D01*
X102516990Y-108035314D01*
X102516990Y-108035324D01*
X102527987Y-108146977D01*
X102571444Y-108290238D01*
X102642016Y-108422268D01*
X102681861Y-108470818D01*
X102736989Y-108537993D01*
X102765993Y-108561796D01*
X114400003Y-120195808D01*
X114423797Y-120224801D01*
X114452790Y-120248595D01*
X114452794Y-120248599D01*
X114501714Y-120288746D01*
X114539522Y-120319774D01*
X114671551Y-120390346D01*
X114814812Y-120433803D01*
X114926465Y-120444800D01*
X114926474Y-120444800D01*
X114963797Y-120448476D01*
X115001120Y-120444800D01*
X137091687Y-120444800D01*
X137237688Y-120663305D01*
X137304127Y-120729744D01*
X137285820Y-120735298D01*
X137175506Y-120794263D01*
X137078815Y-120873615D01*
X136999463Y-120970306D01*
X136940498Y-121080620D01*
X136904188Y-121200318D01*
X136891928Y-121324800D01*
X136891928Y-123124800D01*
X136904188Y-123249282D01*
X136940498Y-123368980D01*
X136999463Y-123479294D01*
X137078815Y-123575985D01*
X137175506Y-123655337D01*
X137285820Y-123714302D01*
X137405518Y-123750612D01*
X137530000Y-123762872D01*
X139330000Y-123762872D01*
X139454482Y-123750612D01*
X139574180Y-123714302D01*
X139684494Y-123655337D01*
X139781185Y-123575985D01*
X139860537Y-123479294D01*
X139919502Y-123368980D01*
X139955812Y-123249282D01*
X139968072Y-123124800D01*
X139968072Y-121324800D01*
X139955812Y-121200318D01*
X139919502Y-121080620D01*
X139860537Y-120970306D01*
X139781185Y-120873615D01*
X139684494Y-120794263D01*
X139574180Y-120735298D01*
X139555873Y-120729744D01*
X139622312Y-120663305D01*
X139790299Y-120411895D01*
X139906011Y-120132543D01*
X139965000Y-119835984D01*
X139965000Y-119533616D01*
X139906011Y-119237057D01*
X139790299Y-118957705D01*
X139622312Y-118706295D01*
X139408505Y-118492488D01*
X139157095Y-118324501D01*
X138877743Y-118208789D01*
X138581184Y-118149800D01*
X138278816Y-118149800D01*
X137982257Y-118208789D01*
X137702905Y-118324501D01*
X137451495Y-118492488D01*
X137237688Y-118706295D01*
X137091687Y-118924800D01*
X120021001Y-118924800D01*
X125924730Y-113021072D01*
X126988000Y-113021072D01*
X127112482Y-113008812D01*
X127232180Y-112972502D01*
X127342494Y-112913537D01*
X127439185Y-112834185D01*
X127518537Y-112737494D01*
X127577502Y-112627180D01*
X127613812Y-112507482D01*
X127626072Y-112383000D01*
X127626072Y-110928001D01*
X160043600Y-110928001D01*
X167072703Y-117957104D01*
X166952291Y-117968964D01*
X166681792Y-118051018D01*
X166432499Y-118184268D01*
X166213992Y-118363593D01*
X166034668Y-118582100D01*
X165963600Y-118715058D01*
X165892532Y-118582099D01*
X165713207Y-118363592D01*
X165494700Y-118184268D01*
X165245407Y-118051018D01*
X164974908Y-117968964D01*
X164693600Y-117941257D01*
X164412291Y-117968964D01*
X164141792Y-118051018D01*
X163892499Y-118184268D01*
X163673992Y-118363593D01*
X163494668Y-118582100D01*
X163423600Y-118715058D01*
X163352532Y-118582099D01*
X163173207Y-118363592D01*
X162954700Y-118184268D01*
X162705407Y-118051018D01*
X162434908Y-117968964D01*
X162153600Y-117941257D01*
X161872291Y-117968964D01*
X161601792Y-118051018D01*
X161352499Y-118184268D01*
X161191159Y-118316677D01*
X161144137Y-118228706D01*
X161064785Y-118132015D01*
X160968094Y-118052663D01*
X160857780Y-117993698D01*
X160738082Y-117957388D01*
X160613600Y-117945128D01*
X158613600Y-117945128D01*
X158489118Y-117957388D01*
X158369420Y-117993698D01*
X158259106Y-118052663D01*
X158162415Y-118132015D01*
X158083063Y-118228706D01*
X158024098Y-118339020D01*
X157987788Y-118458718D01*
X157975528Y-118583200D01*
X157975528Y-120583200D01*
X157987788Y-120707682D01*
X158024098Y-120827380D01*
X158083063Y-120937694D01*
X158162415Y-121034385D01*
X158259106Y-121113737D01*
X158369420Y-121172702D01*
X158489118Y-121209012D01*
X158613600Y-121221272D01*
X160613600Y-121221272D01*
X160738082Y-121209012D01*
X160857780Y-121172702D01*
X160968094Y-121113737D01*
X161064785Y-121034385D01*
X161144137Y-120937694D01*
X161191159Y-120849723D01*
X161352500Y-120982132D01*
X161601793Y-121115382D01*
X161872292Y-121197436D01*
X162153600Y-121225143D01*
X162434909Y-121197436D01*
X162705408Y-121115382D01*
X162954701Y-120982132D01*
X163173208Y-120802808D01*
X163352532Y-120584301D01*
X163423600Y-120451342D01*
X163494668Y-120584301D01*
X163673993Y-120802808D01*
X163892500Y-120982132D01*
X164141793Y-121115382D01*
X164412292Y-121197436D01*
X164693600Y-121225143D01*
X164974909Y-121197436D01*
X165245408Y-121115382D01*
X165494701Y-120982132D01*
X165713208Y-120802808D01*
X165892532Y-120584301D01*
X165963600Y-120451342D01*
X166034668Y-120584301D01*
X166213993Y-120802808D01*
X166432500Y-120982132D01*
X166681793Y-121115382D01*
X166952292Y-121197436D01*
X167233600Y-121225143D01*
X167514909Y-121197436D01*
X167785408Y-121115382D01*
X168034701Y-120982132D01*
X168253208Y-120802808D01*
X168432532Y-120584301D01*
X168503600Y-120451342D01*
X168574668Y-120584301D01*
X168753993Y-120802808D01*
X168972500Y-120982132D01*
X169221793Y-121115382D01*
X169492292Y-121197436D01*
X169773600Y-121225143D01*
X170054909Y-121197436D01*
X170325408Y-121115382D01*
X170574701Y-120982132D01*
X170793208Y-120802808D01*
X170972532Y-120584301D01*
X171043600Y-120451342D01*
X171114668Y-120584301D01*
X171293993Y-120802808D01*
X171512500Y-120982132D01*
X171761793Y-121115382D01*
X172032292Y-121197436D01*
X172313600Y-121225143D01*
X172594909Y-121197436D01*
X172865408Y-121115382D01*
X173114701Y-120982132D01*
X173333208Y-120802808D01*
X173512532Y-120584301D01*
X173583600Y-120451342D01*
X173654668Y-120584301D01*
X173833993Y-120802808D01*
X174052500Y-120982132D01*
X174301793Y-121115382D01*
X174572292Y-121197436D01*
X174853600Y-121225143D01*
X175134909Y-121197436D01*
X175405408Y-121115382D01*
X175654701Y-120982132D01*
X175873208Y-120802808D01*
X176052532Y-120584301D01*
X176123600Y-120451342D01*
X176194668Y-120584301D01*
X176373993Y-120802808D01*
X176592500Y-120982132D01*
X176841793Y-121115382D01*
X177112292Y-121197436D01*
X177393600Y-121225143D01*
X177674909Y-121197436D01*
X177945408Y-121115382D01*
X178194701Y-120982132D01*
X178413208Y-120802808D01*
X178592532Y-120584301D01*
X178598106Y-120573872D01*
X192205000Y-120573872D01*
X192205000Y-121014128D01*
X192290890Y-121445925D01*
X192459369Y-121852669D01*
X192703962Y-122218729D01*
X193015271Y-122530038D01*
X193381331Y-122774631D01*
X193788075Y-122943110D01*
X194219872Y-123029000D01*
X194660128Y-123029000D01*
X195091925Y-122943110D01*
X195498669Y-122774631D01*
X195864729Y-122530038D01*
X196176038Y-122218729D01*
X196420631Y-121852669D01*
X196589110Y-121445925D01*
X196675000Y-121014128D01*
X196675000Y-120573872D01*
X196589110Y-120142075D01*
X196420631Y-119735331D01*
X196176038Y-119369271D01*
X195864729Y-119057962D01*
X195498669Y-118813369D01*
X195091925Y-118644890D01*
X194660128Y-118559000D01*
X194219872Y-118559000D01*
X193788075Y-118644890D01*
X193381331Y-118813369D01*
X193015271Y-119057962D01*
X192703962Y-119369271D01*
X192459369Y-119735331D01*
X192290890Y-120142075D01*
X192205000Y-120573872D01*
X178598106Y-120573872D01*
X178725782Y-120335007D01*
X178807836Y-120064508D01*
X178828600Y-119853691D01*
X178828600Y-119312708D01*
X178807836Y-119101891D01*
X178725782Y-118831392D01*
X178592532Y-118582099D01*
X178413207Y-118363592D01*
X178194700Y-118184268D01*
X177945407Y-118051018D01*
X177674908Y-117968964D01*
X177393600Y-117941257D01*
X177112291Y-117968964D01*
X176841792Y-118051018D01*
X176592499Y-118184268D01*
X176373992Y-118363593D01*
X176194668Y-118582100D01*
X176123600Y-118715058D01*
X176052532Y-118582099D01*
X175873207Y-118363592D01*
X175654700Y-118184268D01*
X175405407Y-118051018D01*
X175134908Y-117968964D01*
X174853600Y-117941257D01*
X174572291Y-117968964D01*
X174301792Y-118051018D01*
X174052499Y-118184268D01*
X173833992Y-118363593D01*
X173654668Y-118582100D01*
X173583600Y-118715058D01*
X173512532Y-118582099D01*
X173333207Y-118363592D01*
X173114700Y-118184268D01*
X172865407Y-118051018D01*
X172594908Y-117968964D01*
X172313600Y-117941257D01*
X172032291Y-117968964D01*
X171834243Y-118029041D01*
X152613411Y-98808210D01*
X168411268Y-98808210D01*
X168448590Y-98811886D01*
X168485912Y-98808210D01*
X168485923Y-98808210D01*
X168597576Y-98797213D01*
X168740837Y-98753756D01*
X168872866Y-98683184D01*
X168988591Y-98588211D01*
X169012394Y-98559207D01*
X169294242Y-98277359D01*
X169492292Y-98337436D01*
X169773600Y-98365143D01*
X170054909Y-98337436D01*
X170325408Y-98255382D01*
X170574701Y-98122132D01*
X170793208Y-97942808D01*
X170972532Y-97724301D01*
X171043600Y-97591342D01*
X171114668Y-97724301D01*
X171293993Y-97942808D01*
X171512500Y-98122132D01*
X171761793Y-98255382D01*
X172032292Y-98337436D01*
X172313600Y-98365143D01*
X172594909Y-98337436D01*
X172865408Y-98255382D01*
X173114701Y-98122132D01*
X173333208Y-97942808D01*
X173512532Y-97724301D01*
X173583600Y-97591342D01*
X173654668Y-97724301D01*
X173833993Y-97942808D01*
X174052500Y-98122132D01*
X174301793Y-98255382D01*
X174572292Y-98337436D01*
X174853600Y-98365143D01*
X175134909Y-98337436D01*
X175405408Y-98255382D01*
X175654701Y-98122132D01*
X175873208Y-97942808D01*
X176052532Y-97724301D01*
X176121722Y-97594855D01*
X176129170Y-97612427D01*
X176287927Y-97845862D01*
X176489175Y-98043839D01*
X176725179Y-98198751D01*
X176986870Y-98304644D01*
X177044561Y-98315104D01*
X177266600Y-98193115D01*
X177266600Y-96850200D01*
X177520600Y-96850200D01*
X177520600Y-98193115D01*
X177742639Y-98315104D01*
X177800330Y-98304644D01*
X178062021Y-98198751D01*
X178298025Y-98043839D01*
X178499273Y-97845862D01*
X178658030Y-97612427D01*
X178768196Y-97352506D01*
X178825537Y-97076087D01*
X178673074Y-96850200D01*
X177520600Y-96850200D01*
X177266600Y-96850200D01*
X177246600Y-96850200D01*
X177246600Y-96596200D01*
X177266600Y-96596200D01*
X177266600Y-95253285D01*
X177520600Y-95253285D01*
X177520600Y-96596200D01*
X178673074Y-96596200D01*
X178825537Y-96370313D01*
X178768196Y-96093894D01*
X178658030Y-95833973D01*
X178499273Y-95600538D01*
X178298025Y-95402561D01*
X178062021Y-95247649D01*
X177800330Y-95141756D01*
X177742639Y-95131296D01*
X177520600Y-95253285D01*
X177266600Y-95253285D01*
X177044561Y-95131296D01*
X176986870Y-95141756D01*
X176725179Y-95247649D01*
X176489175Y-95402561D01*
X176287927Y-95600538D01*
X176129170Y-95833973D01*
X176121722Y-95851545D01*
X176052532Y-95722099D01*
X175873207Y-95503592D01*
X175654700Y-95324268D01*
X175405407Y-95191018D01*
X175134908Y-95108964D01*
X174853600Y-95081257D01*
X174572291Y-95108964D01*
X174301792Y-95191018D01*
X174052499Y-95324268D01*
X173833992Y-95503593D01*
X173654668Y-95722100D01*
X173583600Y-95855058D01*
X173512532Y-95722099D01*
X173333207Y-95503592D01*
X173114700Y-95324268D01*
X172865407Y-95191018D01*
X172594908Y-95108964D01*
X172313600Y-95081257D01*
X172032291Y-95108964D01*
X171761792Y-95191018D01*
X171512499Y-95324268D01*
X171293992Y-95503593D01*
X171114668Y-95722100D01*
X171043600Y-95855058D01*
X170972532Y-95722099D01*
X170793207Y-95503592D01*
X170574700Y-95324268D01*
X170325407Y-95191018D01*
X170054908Y-95108964D01*
X169773600Y-95081257D01*
X169492291Y-95108964D01*
X169221792Y-95191018D01*
X168972499Y-95324268D01*
X168753992Y-95503593D01*
X168574668Y-95722100D01*
X168503600Y-95855058D01*
X168432532Y-95722099D01*
X168253207Y-95503592D01*
X168034700Y-95324268D01*
X167785407Y-95191018D01*
X167514908Y-95108964D01*
X167233600Y-95081257D01*
X166952291Y-95108964D01*
X166681792Y-95191018D01*
X166432499Y-95324268D01*
X166213992Y-95503593D01*
X166034668Y-95722100D01*
X165963600Y-95855058D01*
X165892532Y-95722099D01*
X165713207Y-95503592D01*
X165494700Y-95324268D01*
X165245407Y-95191018D01*
X164974908Y-95108964D01*
X164693600Y-95081257D01*
X164412291Y-95108964D01*
X164214242Y-95169041D01*
X163797005Y-94751804D01*
X163773202Y-94722800D01*
X163657477Y-94627827D01*
X163525448Y-94557255D01*
X163382187Y-94513798D01*
X163270534Y-94502801D01*
X163270523Y-94502801D01*
X163233201Y-94499125D01*
X163195879Y-94502801D01*
X126516521Y-94502801D01*
X126479198Y-94499125D01*
X126441875Y-94502801D01*
X126441866Y-94502801D01*
X126330213Y-94513798D01*
X126186952Y-94557255D01*
X126054923Y-94627827D01*
X126054921Y-94627828D01*
X126054922Y-94627828D01*
X126009222Y-94665333D01*
X125820535Y-94627800D01*
X125537865Y-94627800D01*
X125260626Y-94682947D01*
X124999473Y-94791120D01*
X124764441Y-94948163D01*
X124564563Y-95148041D01*
X124407520Y-95383073D01*
X124299347Y-95644226D01*
X124244200Y-95921465D01*
X124244200Y-96204135D01*
X124288691Y-96427801D01*
X116909709Y-96427801D01*
X116954200Y-96204135D01*
X116954200Y-95921465D01*
X116899053Y-95644226D01*
X116790880Y-95383073D01*
X116633837Y-95148041D01*
X116433959Y-94948163D01*
X116198927Y-94791120D01*
X115937774Y-94682947D01*
X115660535Y-94627800D01*
X115377865Y-94627800D01*
X115195314Y-94664112D01*
X114788193Y-94256992D01*
X114764390Y-94227988D01*
X114648665Y-94133015D01*
X114516636Y-94062443D01*
X114373375Y-94018986D01*
X114261722Y-94007989D01*
X114261711Y-94007989D01*
X114224389Y-94004313D01*
X114187067Y-94007989D01*
X104188922Y-94007989D01*
X104151599Y-94004313D01*
X104114276Y-94007989D01*
X104114266Y-94007989D01*
X104002613Y-94018986D01*
X103859352Y-94062443D01*
X103727322Y-94133015D01*
X103643682Y-94201657D01*
X103611598Y-94227988D01*
X103587800Y-94256986D01*
X102765988Y-95078799D01*
X102736990Y-95102597D01*
X102713192Y-95131595D01*
X102713191Y-95131596D01*
X102642016Y-95218322D01*
X102571444Y-95350352D01*
X102527988Y-95493613D01*
X102513314Y-95642598D01*
X92100000Y-95642598D01*
X92100000Y-79728000D01*
X110946728Y-79728000D01*
X110958988Y-79852482D01*
X110995298Y-79972180D01*
X111054263Y-80082494D01*
X111133615Y-80179185D01*
X111230306Y-80258537D01*
X111340620Y-80317502D01*
X111460318Y-80353812D01*
X111584800Y-80366072D01*
X113049050Y-80363000D01*
X113207800Y-80204250D01*
X113207800Y-78105000D01*
X113461800Y-78105000D01*
X113461800Y-80204250D01*
X113620550Y-80363000D01*
X115084800Y-80366072D01*
X115209282Y-80353812D01*
X115328980Y-80317502D01*
X115439294Y-80258537D01*
X115535985Y-80179185D01*
X115615337Y-80082494D01*
X115674302Y-79972180D01*
X115710612Y-79852482D01*
X115722872Y-79728000D01*
X115719800Y-78263750D01*
X115561050Y-78105000D01*
X113461800Y-78105000D01*
X113207800Y-78105000D01*
X111108550Y-78105000D01*
X110949800Y-78263750D01*
X110946728Y-79728000D01*
X92100000Y-79728000D01*
X92100000Y-75573872D01*
X102205000Y-75573872D01*
X102205000Y-76014128D01*
X102290890Y-76445925D01*
X102459369Y-76852669D01*
X102703962Y-77218729D01*
X103015271Y-77530038D01*
X103381331Y-77774631D01*
X103788075Y-77943110D01*
X104219872Y-78029000D01*
X104660128Y-78029000D01*
X105091925Y-77943110D01*
X105498669Y-77774631D01*
X105864729Y-77530038D01*
X106176038Y-77218729D01*
X106420631Y-76852669D01*
X106589110Y-76445925D01*
X106632458Y-76228000D01*
X110946728Y-76228000D01*
X110949800Y-77692250D01*
X111108550Y-77851000D01*
X113207800Y-77851000D01*
X113207800Y-75751750D01*
X113461800Y-75751750D01*
X113461800Y-77851000D01*
X115561050Y-77851000D01*
X115654178Y-77757872D01*
X119744800Y-77757872D01*
X119744800Y-78198128D01*
X119830690Y-78629925D01*
X119999169Y-79036669D01*
X120243762Y-79402729D01*
X120555071Y-79714038D01*
X120921131Y-79958631D01*
X121327875Y-80127110D01*
X121759672Y-80213000D01*
X122199928Y-80213000D01*
X122631725Y-80127110D01*
X123038469Y-79958631D01*
X123404529Y-79714038D01*
X123715838Y-79402729D01*
X123960431Y-79036669D01*
X124128910Y-78629925D01*
X124214800Y-78198128D01*
X124214800Y-77757872D01*
X175354800Y-77757872D01*
X175354800Y-78198128D01*
X175440690Y-78629925D01*
X175609169Y-79036669D01*
X175853762Y-79402729D01*
X176165071Y-79714038D01*
X176531131Y-79958631D01*
X176937875Y-80127110D01*
X177369672Y-80213000D01*
X177809928Y-80213000D01*
X178241725Y-80127110D01*
X178648469Y-79958631D01*
X179014529Y-79714038D01*
X179325838Y-79402729D01*
X179570431Y-79036669D01*
X179738910Y-78629925D01*
X179824800Y-78198128D01*
X179824800Y-77757872D01*
X179821862Y-77743098D01*
X182949800Y-77743098D01*
X182949800Y-78212902D01*
X183041454Y-78673679D01*
X183221240Y-79107721D01*
X183482250Y-79498349D01*
X183814451Y-79830550D01*
X184205079Y-80091560D01*
X184639121Y-80271346D01*
X185099898Y-80363000D01*
X185569702Y-80363000D01*
X186030479Y-80271346D01*
X186464521Y-80091560D01*
X186855149Y-79830550D01*
X187187350Y-79498349D01*
X187448360Y-79107721D01*
X187628146Y-78673679D01*
X187719800Y-78212902D01*
X187719800Y-77743098D01*
X187628146Y-77282321D01*
X187448360Y-76848279D01*
X187187350Y-76457651D01*
X186855149Y-76125450D01*
X186464521Y-75864440D01*
X186030479Y-75684654D01*
X185569702Y-75593000D01*
X185099898Y-75593000D01*
X184639121Y-75684654D01*
X184205079Y-75864440D01*
X183814451Y-76125450D01*
X183482250Y-76457651D01*
X183221240Y-76848279D01*
X183041454Y-77282321D01*
X182949800Y-77743098D01*
X179821862Y-77743098D01*
X179738910Y-77326075D01*
X179570431Y-76919331D01*
X179325838Y-76553271D01*
X179014529Y-76241962D01*
X178648469Y-75997369D01*
X178241725Y-75828890D01*
X177809928Y-75743000D01*
X177369672Y-75743000D01*
X176937875Y-75828890D01*
X176531131Y-75997369D01*
X176165071Y-76241962D01*
X175853762Y-76553271D01*
X175609169Y-76919331D01*
X175440690Y-77326075D01*
X175354800Y-77757872D01*
X124214800Y-77757872D01*
X124128910Y-77326075D01*
X123960431Y-76919331D01*
X123715838Y-76553271D01*
X123404529Y-76241962D01*
X123038469Y-75997369D01*
X122631725Y-75828890D01*
X122199928Y-75743000D01*
X121759672Y-75743000D01*
X121327875Y-75828890D01*
X120921131Y-75997369D01*
X120555071Y-76241962D01*
X120243762Y-76553271D01*
X119999169Y-76919331D01*
X119830690Y-77326075D01*
X119744800Y-77757872D01*
X115654178Y-77757872D01*
X115719800Y-77692250D01*
X115722872Y-76228000D01*
X115710612Y-76103518D01*
X115674302Y-75983820D01*
X115615337Y-75873506D01*
X115535985Y-75776815D01*
X115439294Y-75697463D01*
X115328980Y-75638498D01*
X115209282Y-75602188D01*
X115084800Y-75589928D01*
X113620550Y-75593000D01*
X113461800Y-75751750D01*
X113207800Y-75751750D01*
X113049050Y-75593000D01*
X111584800Y-75589928D01*
X111460318Y-75602188D01*
X111340620Y-75638498D01*
X111230306Y-75697463D01*
X111133615Y-75776815D01*
X111054263Y-75873506D01*
X110995298Y-75983820D01*
X110958988Y-76103518D01*
X110946728Y-76228000D01*
X106632458Y-76228000D01*
X106675000Y-76014128D01*
X106675000Y-75573872D01*
X192205000Y-75573872D01*
X192205000Y-76014128D01*
X192290890Y-76445925D01*
X192459369Y-76852669D01*
X192703962Y-77218729D01*
X193015271Y-77530038D01*
X193381331Y-77774631D01*
X193788075Y-77943110D01*
X194219872Y-78029000D01*
X194660128Y-78029000D01*
X195091925Y-77943110D01*
X195498669Y-77774631D01*
X195864729Y-77530038D01*
X196176038Y-77218729D01*
X196420631Y-76852669D01*
X196589110Y-76445925D01*
X196675000Y-76014128D01*
X196675000Y-75573872D01*
X196589110Y-75142075D01*
X196420631Y-74735331D01*
X196176038Y-74369271D01*
X195864729Y-74057962D01*
X195498669Y-73813369D01*
X195091925Y-73644890D01*
X194660128Y-73559000D01*
X194219872Y-73559000D01*
X193788075Y-73644890D01*
X193381331Y-73813369D01*
X193015271Y-74057962D01*
X192703962Y-74369271D01*
X192459369Y-74735331D01*
X192290890Y-75142075D01*
X192205000Y-75573872D01*
X106675000Y-75573872D01*
X106589110Y-75142075D01*
X106420631Y-74735331D01*
X106176038Y-74369271D01*
X105864729Y-74057962D01*
X105498669Y-73813369D01*
X105091925Y-73644890D01*
X104660128Y-73559000D01*
X104219872Y-73559000D01*
X103788075Y-73644890D01*
X103381331Y-73813369D01*
X103015271Y-74057962D01*
X102703962Y-74369271D01*
X102459369Y-74735331D01*
X102290890Y-75142075D01*
X102205000Y-75573872D01*
X92100000Y-75573872D01*
X92100000Y-66954000D01*
X206780000Y-66954000D01*
X206780001Y-129634000D01*
%TA.AperFunction,Conductor*%
D26*
G36*
X206780001Y-129634000D02*
G01*
X92100000Y-129634000D01*
X92100000Y-123261153D01*
X114568800Y-123261153D01*
X114568800Y-123568447D01*
X114628750Y-123869835D01*
X114746346Y-124153737D01*
X114917069Y-124409242D01*
X115134358Y-124626531D01*
X115389863Y-124797254D01*
X115673765Y-124914850D01*
X115975153Y-124974800D01*
X116282447Y-124974800D01*
X116583835Y-124914850D01*
X116867737Y-124797254D01*
X117123242Y-124626531D01*
X117340531Y-124409242D01*
X117511254Y-124153737D01*
X117628850Y-123869835D01*
X117688800Y-123568447D01*
X117688800Y-123261153D01*
X117628850Y-122959765D01*
X117511254Y-122675863D01*
X117340531Y-122420358D01*
X117123242Y-122203069D01*
X116867737Y-122032346D01*
X116583835Y-121914750D01*
X116282447Y-121854800D01*
X115975153Y-121854800D01*
X115673765Y-121914750D01*
X115389863Y-122032346D01*
X115134358Y-122203069D01*
X114917069Y-122420358D01*
X114746346Y-122675863D01*
X114628750Y-122959765D01*
X114568800Y-123261153D01*
X92100000Y-123261153D01*
X92100000Y-120573872D01*
X102205000Y-120573872D01*
X102205000Y-121014128D01*
X102290890Y-121445925D01*
X102459369Y-121852669D01*
X102703962Y-122218729D01*
X103015271Y-122530038D01*
X103381331Y-122774631D01*
X103788075Y-122943110D01*
X104219872Y-123029000D01*
X104660128Y-123029000D01*
X105091925Y-122943110D01*
X105498669Y-122774631D01*
X105864729Y-122530038D01*
X106176038Y-122218729D01*
X106420631Y-121852669D01*
X106589110Y-121445925D01*
X106675000Y-121014128D01*
X106675000Y-120573872D01*
X106589110Y-120142075D01*
X106420631Y-119735331D01*
X106176038Y-119369271D01*
X105864729Y-119057962D01*
X105498669Y-118813369D01*
X105091925Y-118644890D01*
X104660128Y-118559000D01*
X104219872Y-118559000D01*
X103788075Y-118644890D01*
X103381331Y-118813369D01*
X103015271Y-119057962D01*
X102703962Y-119369271D01*
X102459369Y-119735331D01*
X102290890Y-120142075D01*
X102205000Y-120573872D01*
X92100000Y-120573872D01*
X92100000Y-95642598D01*
X102513314Y-95642598D01*
X102516991Y-95679930D01*
X102516990Y-107960670D01*
X102513314Y-107997992D01*
X102516990Y-108035314D01*
X102516990Y-108035324D01*
X102527987Y-108146977D01*
X102571444Y-108290238D01*
X102642016Y-108422268D01*
X102681861Y-108470818D01*
X102736989Y-108537993D01*
X102765993Y-108561796D01*
X114400003Y-120195808D01*
X114423797Y-120224801D01*
X114452790Y-120248595D01*
X114452794Y-120248599D01*
X114501714Y-120288746D01*
X114539522Y-120319774D01*
X114671551Y-120390346D01*
X114814812Y-120433803D01*
X114926465Y-120444800D01*
X114926474Y-120444800D01*
X114963797Y-120448476D01*
X115001120Y-120444800D01*
X137091687Y-120444800D01*
X137237688Y-120663305D01*
X137304127Y-120729744D01*
X137285820Y-120735298D01*
X137175506Y-120794263D01*
X137078815Y-120873615D01*
X136999463Y-120970306D01*
X136940498Y-121080620D01*
X136904188Y-121200318D01*
X136891928Y-121324800D01*
X136891928Y-123124800D01*
X136904188Y-123249282D01*
X136940498Y-123368980D01*
X136999463Y-123479294D01*
X137078815Y-123575985D01*
X137175506Y-123655337D01*
X137285820Y-123714302D01*
X137405518Y-123750612D01*
X137530000Y-123762872D01*
X139330000Y-123762872D01*
X139454482Y-123750612D01*
X139574180Y-123714302D01*
X139684494Y-123655337D01*
X139781185Y-123575985D01*
X139860537Y-123479294D01*
X139919502Y-123368980D01*
X139955812Y-123249282D01*
X139968072Y-123124800D01*
X139968072Y-121324800D01*
X139955812Y-121200318D01*
X139919502Y-121080620D01*
X139860537Y-120970306D01*
X139781185Y-120873615D01*
X139684494Y-120794263D01*
X139574180Y-120735298D01*
X139555873Y-120729744D01*
X139622312Y-120663305D01*
X139790299Y-120411895D01*
X139906011Y-120132543D01*
X139965000Y-119835984D01*
X139965000Y-119533616D01*
X139906011Y-119237057D01*
X139790299Y-118957705D01*
X139622312Y-118706295D01*
X139408505Y-118492488D01*
X139157095Y-118324501D01*
X138877743Y-118208789D01*
X138581184Y-118149800D01*
X138278816Y-118149800D01*
X137982257Y-118208789D01*
X137702905Y-118324501D01*
X137451495Y-118492488D01*
X137237688Y-118706295D01*
X137091687Y-118924800D01*
X120021001Y-118924800D01*
X125924730Y-113021072D01*
X126988000Y-113021072D01*
X127112482Y-113008812D01*
X127232180Y-112972502D01*
X127342494Y-112913537D01*
X127439185Y-112834185D01*
X127518537Y-112737494D01*
X127577502Y-112627180D01*
X127613812Y-112507482D01*
X127626072Y-112383000D01*
X127626072Y-110928001D01*
X160043600Y-110928001D01*
X167072703Y-117957104D01*
X166952291Y-117968964D01*
X166681792Y-118051018D01*
X166432499Y-118184268D01*
X166213992Y-118363593D01*
X166034668Y-118582100D01*
X165963600Y-118715058D01*
X165892532Y-118582099D01*
X165713207Y-118363592D01*
X165494700Y-118184268D01*
X165245407Y-118051018D01*
X164974908Y-117968964D01*
X164693600Y-117941257D01*
X164412291Y-117968964D01*
X164141792Y-118051018D01*
X163892499Y-118184268D01*
X163673992Y-118363593D01*
X163494668Y-118582100D01*
X163423600Y-118715058D01*
X163352532Y-118582099D01*
X163173207Y-118363592D01*
X162954700Y-118184268D01*
X162705407Y-118051018D01*
X162434908Y-117968964D01*
X162153600Y-117941257D01*
X161872291Y-117968964D01*
X161601792Y-118051018D01*
X161352499Y-118184268D01*
X161191159Y-118316677D01*
X161144137Y-118228706D01*
X161064785Y-118132015D01*
X160968094Y-118052663D01*
X160857780Y-117993698D01*
X160738082Y-117957388D01*
X160613600Y-117945128D01*
X158613600Y-117945128D01*
X158489118Y-117957388D01*
X158369420Y-117993698D01*
X158259106Y-118052663D01*
X158162415Y-118132015D01*
X158083063Y-118228706D01*
X158024098Y-118339020D01*
X157987788Y-118458718D01*
X157975528Y-118583200D01*
X157975528Y-120583200D01*
X157987788Y-120707682D01*
X158024098Y-120827380D01*
X158083063Y-120937694D01*
X158162415Y-121034385D01*
X158259106Y-121113737D01*
X158369420Y-121172702D01*
X158489118Y-121209012D01*
X158613600Y-121221272D01*
X160613600Y-121221272D01*
X160738082Y-121209012D01*
X160857780Y-121172702D01*
X160968094Y-121113737D01*
X161064785Y-121034385D01*
X161144137Y-120937694D01*
X161191159Y-120849723D01*
X161352500Y-120982132D01*
X161601793Y-121115382D01*
X161872292Y-121197436D01*
X162153600Y-121225143D01*
X162434909Y-121197436D01*
X162705408Y-121115382D01*
X162954701Y-120982132D01*
X163173208Y-120802808D01*
X163352532Y-120584301D01*
X163423600Y-120451342D01*
X163494668Y-120584301D01*
X163673993Y-120802808D01*
X163892500Y-120982132D01*
X164141793Y-121115382D01*
X164412292Y-121197436D01*
X164693600Y-121225143D01*
X164974909Y-121197436D01*
X165245408Y-121115382D01*
X165494701Y-120982132D01*
X165713208Y-120802808D01*
X165892532Y-120584301D01*
X165963600Y-120451342D01*
X166034668Y-120584301D01*
X166213993Y-120802808D01*
X166432500Y-120982132D01*
X166681793Y-121115382D01*
X166952292Y-121197436D01*
X167233600Y-121225143D01*
X167514909Y-121197436D01*
X167785408Y-121115382D01*
X168034701Y-120982132D01*
X168253208Y-120802808D01*
X168432532Y-120584301D01*
X168503600Y-120451342D01*
X168574668Y-120584301D01*
X168753993Y-120802808D01*
X168972500Y-120982132D01*
X169221793Y-121115382D01*
X169492292Y-121197436D01*
X169773600Y-121225143D01*
X170054909Y-121197436D01*
X170325408Y-121115382D01*
X170574701Y-120982132D01*
X170793208Y-120802808D01*
X170972532Y-120584301D01*
X171043600Y-120451342D01*
X171114668Y-120584301D01*
X171293993Y-120802808D01*
X171512500Y-120982132D01*
X171761793Y-121115382D01*
X172032292Y-121197436D01*
X172313600Y-121225143D01*
X172594909Y-121197436D01*
X172865408Y-121115382D01*
X173114701Y-120982132D01*
X173333208Y-120802808D01*
X173512532Y-120584301D01*
X173583600Y-120451342D01*
X173654668Y-120584301D01*
X173833993Y-120802808D01*
X174052500Y-120982132D01*
X174301793Y-121115382D01*
X174572292Y-121197436D01*
X174853600Y-121225143D01*
X175134909Y-121197436D01*
X175405408Y-121115382D01*
X175654701Y-120982132D01*
X175873208Y-120802808D01*
X176052532Y-120584301D01*
X176123600Y-120451342D01*
X176194668Y-120584301D01*
X176373993Y-120802808D01*
X176592500Y-120982132D01*
X176841793Y-121115382D01*
X177112292Y-121197436D01*
X177393600Y-121225143D01*
X177674909Y-121197436D01*
X177945408Y-121115382D01*
X178194701Y-120982132D01*
X178413208Y-120802808D01*
X178592532Y-120584301D01*
X178598106Y-120573872D01*
X192205000Y-120573872D01*
X192205000Y-121014128D01*
X192290890Y-121445925D01*
X192459369Y-121852669D01*
X192703962Y-122218729D01*
X193015271Y-122530038D01*
X193381331Y-122774631D01*
X193788075Y-122943110D01*
X194219872Y-123029000D01*
X194660128Y-123029000D01*
X195091925Y-122943110D01*
X195498669Y-122774631D01*
X195864729Y-122530038D01*
X196176038Y-122218729D01*
X196420631Y-121852669D01*
X196589110Y-121445925D01*
X196675000Y-121014128D01*
X196675000Y-120573872D01*
X196589110Y-120142075D01*
X196420631Y-119735331D01*
X196176038Y-119369271D01*
X195864729Y-119057962D01*
X195498669Y-118813369D01*
X195091925Y-118644890D01*
X194660128Y-118559000D01*
X194219872Y-118559000D01*
X193788075Y-118644890D01*
X193381331Y-118813369D01*
X193015271Y-119057962D01*
X192703962Y-119369271D01*
X192459369Y-119735331D01*
X192290890Y-120142075D01*
X192205000Y-120573872D01*
X178598106Y-120573872D01*
X178725782Y-120335007D01*
X178807836Y-120064508D01*
X178828600Y-119853691D01*
X178828600Y-119312708D01*
X178807836Y-119101891D01*
X178725782Y-118831392D01*
X178592532Y-118582099D01*
X178413207Y-118363592D01*
X178194700Y-118184268D01*
X177945407Y-118051018D01*
X177674908Y-117968964D01*
X177393600Y-117941257D01*
X177112291Y-117968964D01*
X176841792Y-118051018D01*
X176592499Y-118184268D01*
X176373992Y-118363593D01*
X176194668Y-118582100D01*
X176123600Y-118715058D01*
X176052532Y-118582099D01*
X175873207Y-118363592D01*
X175654700Y-118184268D01*
X175405407Y-118051018D01*
X175134908Y-117968964D01*
X174853600Y-117941257D01*
X174572291Y-117968964D01*
X174301792Y-118051018D01*
X174052499Y-118184268D01*
X173833992Y-118363593D01*
X173654668Y-118582100D01*
X173583600Y-118715058D01*
X173512532Y-118582099D01*
X173333207Y-118363592D01*
X173114700Y-118184268D01*
X172865407Y-118051018D01*
X172594908Y-117968964D01*
X172313600Y-117941257D01*
X172032291Y-117968964D01*
X171834243Y-118029041D01*
X152613411Y-98808210D01*
X168411268Y-98808210D01*
X168448590Y-98811886D01*
X168485912Y-98808210D01*
X168485923Y-98808210D01*
X168597576Y-98797213D01*
X168740837Y-98753756D01*
X168872866Y-98683184D01*
X168988591Y-98588211D01*
X169012394Y-98559207D01*
X169294242Y-98277359D01*
X169492292Y-98337436D01*
X169773600Y-98365143D01*
X170054909Y-98337436D01*
X170325408Y-98255382D01*
X170574701Y-98122132D01*
X170793208Y-97942808D01*
X170972532Y-97724301D01*
X171043600Y-97591342D01*
X171114668Y-97724301D01*
X171293993Y-97942808D01*
X171512500Y-98122132D01*
X171761793Y-98255382D01*
X172032292Y-98337436D01*
X172313600Y-98365143D01*
X172594909Y-98337436D01*
X172865408Y-98255382D01*
X173114701Y-98122132D01*
X173333208Y-97942808D01*
X173512532Y-97724301D01*
X173583600Y-97591342D01*
X173654668Y-97724301D01*
X173833993Y-97942808D01*
X174052500Y-98122132D01*
X174301793Y-98255382D01*
X174572292Y-98337436D01*
X174853600Y-98365143D01*
X175134909Y-98337436D01*
X175405408Y-98255382D01*
X175654701Y-98122132D01*
X175873208Y-97942808D01*
X176052532Y-97724301D01*
X176121722Y-97594855D01*
X176129170Y-97612427D01*
X176287927Y-97845862D01*
X176489175Y-98043839D01*
X176725179Y-98198751D01*
X176986870Y-98304644D01*
X177044561Y-98315104D01*
X177266600Y-98193115D01*
X177266600Y-96850200D01*
X177520600Y-96850200D01*
X177520600Y-98193115D01*
X177742639Y-98315104D01*
X177800330Y-98304644D01*
X178062021Y-98198751D01*
X178298025Y-98043839D01*
X178499273Y-97845862D01*
X178658030Y-97612427D01*
X178768196Y-97352506D01*
X178825537Y-97076087D01*
X178673074Y-96850200D01*
X177520600Y-96850200D01*
X177266600Y-96850200D01*
X177246600Y-96850200D01*
X177246600Y-96596200D01*
X177266600Y-96596200D01*
X177266600Y-95253285D01*
X177520600Y-95253285D01*
X177520600Y-96596200D01*
X178673074Y-96596200D01*
X178825537Y-96370313D01*
X178768196Y-96093894D01*
X178658030Y-95833973D01*
X178499273Y-95600538D01*
X178298025Y-95402561D01*
X178062021Y-95247649D01*
X177800330Y-95141756D01*
X177742639Y-95131296D01*
X177520600Y-95253285D01*
X177266600Y-95253285D01*
X177044561Y-95131296D01*
X176986870Y-95141756D01*
X176725179Y-95247649D01*
X176489175Y-95402561D01*
X176287927Y-95600538D01*
X176129170Y-95833973D01*
X176121722Y-95851545D01*
X176052532Y-95722099D01*
X175873207Y-95503592D01*
X175654700Y-95324268D01*
X175405407Y-95191018D01*
X175134908Y-95108964D01*
X174853600Y-95081257D01*
X174572291Y-95108964D01*
X174301792Y-95191018D01*
X174052499Y-95324268D01*
X173833992Y-95503593D01*
X173654668Y-95722100D01*
X173583600Y-95855058D01*
X173512532Y-95722099D01*
X173333207Y-95503592D01*
X173114700Y-95324268D01*
X172865407Y-95191018D01*
X172594908Y-95108964D01*
X172313600Y-95081257D01*
X172032291Y-95108964D01*
X171761792Y-95191018D01*
X171512499Y-95324268D01*
X171293992Y-95503593D01*
X171114668Y-95722100D01*
X171043600Y-95855058D01*
X170972532Y-95722099D01*
X170793207Y-95503592D01*
X170574700Y-95324268D01*
X170325407Y-95191018D01*
X170054908Y-95108964D01*
X169773600Y-95081257D01*
X169492291Y-95108964D01*
X169221792Y-95191018D01*
X168972499Y-95324268D01*
X168753992Y-95503593D01*
X168574668Y-95722100D01*
X168503600Y-95855058D01*
X168432532Y-95722099D01*
X168253207Y-95503592D01*
X168034700Y-95324268D01*
X167785407Y-95191018D01*
X167514908Y-95108964D01*
X167233600Y-95081257D01*
X166952291Y-95108964D01*
X166681792Y-95191018D01*
X166432499Y-95324268D01*
X166213992Y-95503593D01*
X166034668Y-95722100D01*
X165963600Y-95855058D01*
X165892532Y-95722099D01*
X165713207Y-95503592D01*
X165494700Y-95324268D01*
X165245407Y-95191018D01*
X164974908Y-95108964D01*
X164693600Y-95081257D01*
X164412291Y-95108964D01*
X164214242Y-95169041D01*
X163797005Y-94751804D01*
X163773202Y-94722800D01*
X163657477Y-94627827D01*
X163525448Y-94557255D01*
X163382187Y-94513798D01*
X163270534Y-94502801D01*
X163270523Y-94502801D01*
X163233201Y-94499125D01*
X163195879Y-94502801D01*
X126516521Y-94502801D01*
X126479198Y-94499125D01*
X126441875Y-94502801D01*
X126441866Y-94502801D01*
X126330213Y-94513798D01*
X126186952Y-94557255D01*
X126054923Y-94627827D01*
X126054921Y-94627828D01*
X126054922Y-94627828D01*
X126009222Y-94665333D01*
X125820535Y-94627800D01*
X125537865Y-94627800D01*
X125260626Y-94682947D01*
X124999473Y-94791120D01*
X124764441Y-94948163D01*
X124564563Y-95148041D01*
X124407520Y-95383073D01*
X124299347Y-95644226D01*
X124244200Y-95921465D01*
X124244200Y-96204135D01*
X124288691Y-96427801D01*
X116909709Y-96427801D01*
X116954200Y-96204135D01*
X116954200Y-95921465D01*
X116899053Y-95644226D01*
X116790880Y-95383073D01*
X116633837Y-95148041D01*
X116433959Y-94948163D01*
X116198927Y-94791120D01*
X115937774Y-94682947D01*
X115660535Y-94627800D01*
X115377865Y-94627800D01*
X115195314Y-94664112D01*
X114788193Y-94256992D01*
X114764390Y-94227988D01*
X114648665Y-94133015D01*
X114516636Y-94062443D01*
X114373375Y-94018986D01*
X114261722Y-94007989D01*
X114261711Y-94007989D01*
X114224389Y-94004313D01*
X114187067Y-94007989D01*
X104188922Y-94007989D01*
X104151599Y-94004313D01*
X104114276Y-94007989D01*
X104114266Y-94007989D01*
X104002613Y-94018986D01*
X103859352Y-94062443D01*
X103727322Y-94133015D01*
X103643682Y-94201657D01*
X103611598Y-94227988D01*
X103587800Y-94256986D01*
X102765988Y-95078799D01*
X102736990Y-95102597D01*
X102713192Y-95131595D01*
X102713191Y-95131596D01*
X102642016Y-95218322D01*
X102571444Y-95350352D01*
X102527988Y-95493613D01*
X102513314Y-95642598D01*
X92100000Y-95642598D01*
X92100000Y-79728000D01*
X110946728Y-79728000D01*
X110958988Y-79852482D01*
X110995298Y-79972180D01*
X111054263Y-80082494D01*
X111133615Y-80179185D01*
X111230306Y-80258537D01*
X111340620Y-80317502D01*
X111460318Y-80353812D01*
X111584800Y-80366072D01*
X113049050Y-80363000D01*
X113207800Y-80204250D01*
X113207800Y-78105000D01*
X113461800Y-78105000D01*
X113461800Y-80204250D01*
X113620550Y-80363000D01*
X115084800Y-80366072D01*
X115209282Y-80353812D01*
X115328980Y-80317502D01*
X115439294Y-80258537D01*
X115535985Y-80179185D01*
X115615337Y-80082494D01*
X115674302Y-79972180D01*
X115710612Y-79852482D01*
X115722872Y-79728000D01*
X115719800Y-78263750D01*
X115561050Y-78105000D01*
X113461800Y-78105000D01*
X113207800Y-78105000D01*
X111108550Y-78105000D01*
X110949800Y-78263750D01*
X110946728Y-79728000D01*
X92100000Y-79728000D01*
X92100000Y-75573872D01*
X102205000Y-75573872D01*
X102205000Y-76014128D01*
X102290890Y-76445925D01*
X102459369Y-76852669D01*
X102703962Y-77218729D01*
X103015271Y-77530038D01*
X103381331Y-77774631D01*
X103788075Y-77943110D01*
X104219872Y-78029000D01*
X104660128Y-78029000D01*
X105091925Y-77943110D01*
X105498669Y-77774631D01*
X105864729Y-77530038D01*
X106176038Y-77218729D01*
X106420631Y-76852669D01*
X106589110Y-76445925D01*
X106632458Y-76228000D01*
X110946728Y-76228000D01*
X110949800Y-77692250D01*
X111108550Y-77851000D01*
X113207800Y-77851000D01*
X113207800Y-75751750D01*
X113461800Y-75751750D01*
X113461800Y-77851000D01*
X115561050Y-77851000D01*
X115654178Y-77757872D01*
X119744800Y-77757872D01*
X119744800Y-78198128D01*
X119830690Y-78629925D01*
X119999169Y-79036669D01*
X120243762Y-79402729D01*
X120555071Y-79714038D01*
X120921131Y-79958631D01*
X121327875Y-80127110D01*
X121759672Y-80213000D01*
X122199928Y-80213000D01*
X122631725Y-80127110D01*
X123038469Y-79958631D01*
X123404529Y-79714038D01*
X123715838Y-79402729D01*
X123960431Y-79036669D01*
X124128910Y-78629925D01*
X124214800Y-78198128D01*
X124214800Y-77757872D01*
X175354800Y-77757872D01*
X175354800Y-78198128D01*
X175440690Y-78629925D01*
X175609169Y-79036669D01*
X175853762Y-79402729D01*
X176165071Y-79714038D01*
X176531131Y-79958631D01*
X176937875Y-80127110D01*
X177369672Y-80213000D01*
X177809928Y-80213000D01*
X178241725Y-80127110D01*
X178648469Y-79958631D01*
X179014529Y-79714038D01*
X179325838Y-79402729D01*
X179570431Y-79036669D01*
X179738910Y-78629925D01*
X179824800Y-78198128D01*
X179824800Y-77757872D01*
X179821862Y-77743098D01*
X182949800Y-77743098D01*
X182949800Y-78212902D01*
X183041454Y-78673679D01*
X183221240Y-79107721D01*
X183482250Y-79498349D01*
X183814451Y-79830550D01*
X184205079Y-80091560D01*
X184639121Y-80271346D01*
X185099898Y-80363000D01*
X185569702Y-80363000D01*
X186030479Y-80271346D01*
X186464521Y-80091560D01*
X186855149Y-79830550D01*
X187187350Y-79498349D01*
X187448360Y-79107721D01*
X187628146Y-78673679D01*
X187719800Y-78212902D01*
X187719800Y-77743098D01*
X187628146Y-77282321D01*
X187448360Y-76848279D01*
X187187350Y-76457651D01*
X186855149Y-76125450D01*
X186464521Y-75864440D01*
X186030479Y-75684654D01*
X185569702Y-75593000D01*
X185099898Y-75593000D01*
X184639121Y-75684654D01*
X184205079Y-75864440D01*
X183814451Y-76125450D01*
X183482250Y-76457651D01*
X183221240Y-76848279D01*
X183041454Y-77282321D01*
X182949800Y-77743098D01*
X179821862Y-77743098D01*
X179738910Y-77326075D01*
X179570431Y-76919331D01*
X179325838Y-76553271D01*
X179014529Y-76241962D01*
X178648469Y-75997369D01*
X178241725Y-75828890D01*
X177809928Y-75743000D01*
X177369672Y-75743000D01*
X176937875Y-75828890D01*
X176531131Y-75997369D01*
X176165071Y-76241962D01*
X175853762Y-76553271D01*
X175609169Y-76919331D01*
X175440690Y-77326075D01*
X175354800Y-77757872D01*
X124214800Y-77757872D01*
X124128910Y-77326075D01*
X123960431Y-76919331D01*
X123715838Y-76553271D01*
X123404529Y-76241962D01*
X123038469Y-75997369D01*
X122631725Y-75828890D01*
X122199928Y-75743000D01*
X121759672Y-75743000D01*
X121327875Y-75828890D01*
X120921131Y-75997369D01*
X120555071Y-76241962D01*
X120243762Y-76553271D01*
X119999169Y-76919331D01*
X119830690Y-77326075D01*
X119744800Y-77757872D01*
X115654178Y-77757872D01*
X115719800Y-77692250D01*
X115722872Y-76228000D01*
X115710612Y-76103518D01*
X115674302Y-75983820D01*
X115615337Y-75873506D01*
X115535985Y-75776815D01*
X115439294Y-75697463D01*
X115328980Y-75638498D01*
X115209282Y-75602188D01*
X115084800Y-75589928D01*
X113620550Y-75593000D01*
X113461800Y-75751750D01*
X113207800Y-75751750D01*
X113049050Y-75593000D01*
X111584800Y-75589928D01*
X111460318Y-75602188D01*
X111340620Y-75638498D01*
X111230306Y-75697463D01*
X111133615Y-75776815D01*
X111054263Y-75873506D01*
X110995298Y-75983820D01*
X110958988Y-76103518D01*
X110946728Y-76228000D01*
X106632458Y-76228000D01*
X106675000Y-76014128D01*
X106675000Y-75573872D01*
X192205000Y-75573872D01*
X192205000Y-76014128D01*
X192290890Y-76445925D01*
X192459369Y-76852669D01*
X192703962Y-77218729D01*
X193015271Y-77530038D01*
X193381331Y-77774631D01*
X193788075Y-77943110D01*
X194219872Y-78029000D01*
X194660128Y-78029000D01*
X195091925Y-77943110D01*
X195498669Y-77774631D01*
X195864729Y-77530038D01*
X196176038Y-77218729D01*
X196420631Y-76852669D01*
X196589110Y-76445925D01*
X196675000Y-76014128D01*
X196675000Y-75573872D01*
X196589110Y-75142075D01*
X196420631Y-74735331D01*
X196176038Y-74369271D01*
X195864729Y-74057962D01*
X195498669Y-73813369D01*
X195091925Y-73644890D01*
X194660128Y-73559000D01*
X194219872Y-73559000D01*
X193788075Y-73644890D01*
X193381331Y-73813369D01*
X193015271Y-74057962D01*
X192703962Y-74369271D01*
X192459369Y-74735331D01*
X192290890Y-75142075D01*
X192205000Y-75573872D01*
X106675000Y-75573872D01*
X106589110Y-75142075D01*
X106420631Y-74735331D01*
X106176038Y-74369271D01*
X105864729Y-74057962D01*
X105498669Y-73813369D01*
X105091925Y-73644890D01*
X104660128Y-73559000D01*
X104219872Y-73559000D01*
X103788075Y-73644890D01*
X103381331Y-73813369D01*
X103015271Y-74057962D01*
X102703962Y-74369271D01*
X102459369Y-74735331D01*
X102290890Y-75142075D01*
X102205000Y-75573872D01*
X92100000Y-75573872D01*
X92100000Y-66954000D01*
X206780000Y-66954000D01*
X206780001Y-129634000D01*
G37*
%TD.AperFunction*%
D25*
X128054200Y-99528265D02*
X128054200Y-99810935D01*
X128109347Y-100088174D01*
X128217520Y-100349327D01*
X128374563Y-100584359D01*
X128574441Y-100784237D01*
X128729200Y-100887644D01*
X128729201Y-105526997D01*
X127620666Y-106635532D01*
X127627812Y-106480508D01*
X127586965Y-106210762D01*
X127494277Y-105954168D01*
X127433860Y-105841137D01*
X127194993Y-105775612D01*
X126417605Y-106553000D01*
X126431748Y-106567143D01*
X126252143Y-106746748D01*
X126238000Y-106732605D01*
X125460612Y-107509993D01*
X125526137Y-107748860D01*
X125684477Y-107823164D01*
X125581957Y-107865629D01*
X125355114Y-108017201D01*
X125162201Y-108210114D01*
X125010629Y-108436957D01*
X124906225Y-108689011D01*
X124853000Y-108956589D01*
X124853000Y-109229411D01*
X124888524Y-109408001D01*
X113911803Y-109408001D01*
X111129294Y-106625492D01*
X124848188Y-106625492D01*
X124889035Y-106895238D01*
X124981723Y-107151832D01*
X125042140Y-107264863D01*
X125281007Y-107330388D01*
X126058395Y-106553000D01*
X125281007Y-105775612D01*
X125042140Y-105841137D01*
X124926240Y-106088116D01*
X124860750Y-106352960D01*
X124848188Y-106625492D01*
X111129294Y-106625492D01*
X110099809Y-105596007D01*
X125460612Y-105596007D01*
X126238000Y-106373395D01*
X127015388Y-105596007D01*
X126949863Y-105357140D01*
X126702884Y-105241240D01*
X126438040Y-105175750D01*
X126165508Y-105163188D01*
X125895762Y-105204035D01*
X125639168Y-105296723D01*
X125526137Y-105357140D01*
X125460612Y-105596007D01*
X110099809Y-105596007D01*
X106343209Y-101839408D01*
X106387000Y-101619260D01*
X106387000Y-101326740D01*
X106329932Y-101039842D01*
X106258753Y-100868001D01*
X109186675Y-100868001D01*
X109223997Y-100871677D01*
X109261319Y-100868001D01*
X109261330Y-100868001D01*
X109372983Y-100857004D01*
X109516244Y-100813547D01*
X109648273Y-100742975D01*
X109763998Y-100648002D01*
X109787801Y-100618998D01*
X111102201Y-99304599D01*
X128098691Y-99304599D01*
X128054200Y-99528265D01*
%TA.AperFunction,Conductor*%
D26*
G36*
X128054200Y-99528265D02*
G01*
X128054200Y-99810935D01*
X128109347Y-100088174D01*
X128217520Y-100349327D01*
X128374563Y-100584359D01*
X128574441Y-100784237D01*
X128729200Y-100887644D01*
X128729201Y-105526997D01*
X127620666Y-106635532D01*
X127627812Y-106480508D01*
X127586965Y-106210762D01*
X127494277Y-105954168D01*
X127433860Y-105841137D01*
X127194993Y-105775612D01*
X126417605Y-106553000D01*
X126431748Y-106567143D01*
X126252143Y-106746748D01*
X126238000Y-106732605D01*
X125460612Y-107509993D01*
X125526137Y-107748860D01*
X125684477Y-107823164D01*
X125581957Y-107865629D01*
X125355114Y-108017201D01*
X125162201Y-108210114D01*
X125010629Y-108436957D01*
X124906225Y-108689011D01*
X124853000Y-108956589D01*
X124853000Y-109229411D01*
X124888524Y-109408001D01*
X113911803Y-109408001D01*
X111129294Y-106625492D01*
X124848188Y-106625492D01*
X124889035Y-106895238D01*
X124981723Y-107151832D01*
X125042140Y-107264863D01*
X125281007Y-107330388D01*
X126058395Y-106553000D01*
X125281007Y-105775612D01*
X125042140Y-105841137D01*
X124926240Y-106088116D01*
X124860750Y-106352960D01*
X124848188Y-106625492D01*
X111129294Y-106625492D01*
X110099809Y-105596007D01*
X125460612Y-105596007D01*
X126238000Y-106373395D01*
X127015388Y-105596007D01*
X126949863Y-105357140D01*
X126702884Y-105241240D01*
X126438040Y-105175750D01*
X126165508Y-105163188D01*
X125895762Y-105204035D01*
X125639168Y-105296723D01*
X125526137Y-105357140D01*
X125460612Y-105596007D01*
X110099809Y-105596007D01*
X106343209Y-101839408D01*
X106387000Y-101619260D01*
X106387000Y-101326740D01*
X106329932Y-101039842D01*
X106258753Y-100868001D01*
X109186675Y-100868001D01*
X109223997Y-100871677D01*
X109261319Y-100868001D01*
X109261330Y-100868001D01*
X109372983Y-100857004D01*
X109516244Y-100813547D01*
X109648273Y-100742975D01*
X109763998Y-100648002D01*
X109787801Y-100618998D01*
X111102201Y-99304599D01*
X128098691Y-99304599D01*
X128054200Y-99528265D01*
G37*
%TD.AperFunction*%
D25*
X105029000Y-96266000D02*
X105049000Y-96266000D01*
X105049000Y-96520000D01*
X105029000Y-96520000D01*
X105029000Y-96540000D01*
X104775000Y-96540000D01*
X104775000Y-96520000D01*
X104755000Y-96520000D01*
X104755000Y-96266000D01*
X104775000Y-96266000D01*
X104775000Y-96246000D01*
X105029000Y-96246000D01*
X105029000Y-96266000D01*
%TA.AperFunction,Conductor*%
D26*
G36*
X105029000Y-96266000D02*
G01*
X105049000Y-96266000D01*
X105049000Y-96520000D01*
X105029000Y-96520000D01*
X105029000Y-96540000D01*
X104775000Y-96540000D01*
X104775000Y-96520000D01*
X104755000Y-96520000D01*
X104755000Y-96266000D01*
X104775000Y-96266000D01*
X104775000Y-96246000D01*
X105029000Y-96246000D01*
X105029000Y-96266000D01*
G37*
%TD.AperFunction*%
%TD*%
M02*
