%TF.GenerationSoftware,KiCad,Pcbnew,(5.1.10-1-10_14)*%
%TF.CreationDate,2021-11-27T08:47:14+01:00*%
%TF.ProjectId,Distance_Measurement_V2,44697374-616e-4636-955f-4d6561737572,Version 2 Rev. 01*%
%TF.SameCoordinates,Original*%
%TF.FileFunction,Legend,Top*%
%TF.FilePolarity,Positive*%
%FSLAX46Y46*%
G04 Gerber Fmt 4.6, Leading zero omitted, Abs format (unit mm)*
G04 Created by KiCad (PCBNEW (5.1.10-1-10_14)) date 2021-11-27 08:47:14*
%MOMM*%
%LPD*%
G01*
G04 APERTURE LIST*
%ADD10C,0.150000*%
%ADD11C,0.250000*%
%ADD12C,0.100000*%
%ADD13C,0.120000*%
G04 APERTURE END LIST*
D10*
X192854171Y-110838614D02*
X194354171Y-110481471D01*
X193282742Y-110195757D01*
X194354171Y-109910042D01*
X192854171Y-109552900D01*
X194282742Y-108410042D02*
X194354171Y-108552900D01*
X194354171Y-108838614D01*
X194282742Y-108981471D01*
X194139885Y-109052900D01*
X193568457Y-109052900D01*
X193425600Y-108981471D01*
X193354171Y-108838614D01*
X193354171Y-108552900D01*
X193425600Y-108410042D01*
X193568457Y-108338614D01*
X193711314Y-108338614D01*
X193854171Y-109052900D01*
X194354171Y-107695757D02*
X193354171Y-107695757D01*
X193497028Y-107695757D02*
X193425600Y-107624328D01*
X193354171Y-107481471D01*
X193354171Y-107267185D01*
X193425600Y-107124328D01*
X193568457Y-107052900D01*
X194354171Y-107052900D01*
X193568457Y-107052900D02*
X193425600Y-106981471D01*
X193354171Y-106838614D01*
X193354171Y-106624328D01*
X193425600Y-106481471D01*
X193568457Y-106410042D01*
X194354171Y-106410042D01*
X194354171Y-105481471D02*
X194282742Y-105624328D01*
X194211314Y-105695757D01*
X194068457Y-105767185D01*
X193639885Y-105767185D01*
X193497028Y-105695757D01*
X193425600Y-105624328D01*
X193354171Y-105481471D01*
X193354171Y-105267185D01*
X193425600Y-105124328D01*
X193497028Y-105052900D01*
X193639885Y-104981471D01*
X194068457Y-104981471D01*
X194211314Y-105052900D01*
X194282742Y-105124328D01*
X194354171Y-105267185D01*
X194354171Y-105481471D01*
X194282742Y-104410042D02*
X194354171Y-104267185D01*
X194354171Y-103981471D01*
X194282742Y-103838614D01*
X194139885Y-103767185D01*
X194068457Y-103767185D01*
X193925600Y-103838614D01*
X193854171Y-103981471D01*
X193854171Y-104195757D01*
X193782742Y-104338614D01*
X193639885Y-104410042D01*
X193568457Y-104410042D01*
X193425600Y-104338614D01*
X193354171Y-104195757D01*
X193354171Y-103981471D01*
X193425600Y-103838614D01*
X194354171Y-101981471D02*
X192854171Y-101981471D01*
X192854171Y-101624328D01*
X192925600Y-101410042D01*
X193068457Y-101267185D01*
X193211314Y-101195757D01*
X193497028Y-101124328D01*
X193711314Y-101124328D01*
X193997028Y-101195757D01*
X194139885Y-101267185D01*
X194282742Y-101410042D01*
X194354171Y-101624328D01*
X194354171Y-101981471D01*
X194354171Y-99695757D02*
X194354171Y-100552900D01*
X194354171Y-100124328D02*
X192854171Y-100124328D01*
X193068457Y-100267185D01*
X193211314Y-100410042D01*
X193282742Y-100552900D01*
X194354171Y-97910042D02*
X193354171Y-97910042D01*
X193497028Y-97910042D02*
X193425600Y-97838614D01*
X193354171Y-97695757D01*
X193354171Y-97481471D01*
X193425600Y-97338614D01*
X193568457Y-97267185D01*
X194354171Y-97267185D01*
X193568457Y-97267185D02*
X193425600Y-97195757D01*
X193354171Y-97052900D01*
X193354171Y-96838614D01*
X193425600Y-96695757D01*
X193568457Y-96624328D01*
X194354171Y-96624328D01*
X194354171Y-95910042D02*
X193354171Y-95910042D01*
X192854171Y-95910042D02*
X192925600Y-95981471D01*
X192997028Y-95910042D01*
X192925600Y-95838614D01*
X192854171Y-95910042D01*
X192997028Y-95910042D01*
X193354171Y-95195757D02*
X194354171Y-95195757D01*
X193497028Y-95195757D02*
X193425600Y-95124328D01*
X193354171Y-94981471D01*
X193354171Y-94767185D01*
X193425600Y-94624328D01*
X193568457Y-94552900D01*
X194354171Y-94552900D01*
X194354171Y-93838614D02*
X193354171Y-93838614D01*
X192854171Y-93838614D02*
X192925600Y-93910042D01*
X192997028Y-93838614D01*
X192925600Y-93767185D01*
X192854171Y-93838614D01*
X192997028Y-93838614D01*
X196754171Y-110695757D02*
X195254171Y-110695757D01*
X195254171Y-110338614D01*
X195325600Y-110124328D01*
X195468457Y-109981471D01*
X195611314Y-109910042D01*
X195897028Y-109838614D01*
X196111314Y-109838614D01*
X196397028Y-109910042D01*
X196539885Y-109981471D01*
X196682742Y-110124328D01*
X196754171Y-110338614D01*
X196754171Y-110695757D01*
X196754171Y-109195757D02*
X195754171Y-109195757D01*
X195254171Y-109195757D02*
X195325600Y-109267185D01*
X195397028Y-109195757D01*
X195325600Y-109124328D01*
X195254171Y-109195757D01*
X195397028Y-109195757D01*
X196682742Y-108552900D02*
X196754171Y-108410042D01*
X196754171Y-108124328D01*
X196682742Y-107981471D01*
X196539885Y-107910042D01*
X196468457Y-107910042D01*
X196325600Y-107981471D01*
X196254171Y-108124328D01*
X196254171Y-108338614D01*
X196182742Y-108481471D01*
X196039885Y-108552900D01*
X195968457Y-108552900D01*
X195825600Y-108481471D01*
X195754171Y-108338614D01*
X195754171Y-108124328D01*
X195825600Y-107981471D01*
X195754171Y-107481471D02*
X195754171Y-106910042D01*
X195254171Y-107267185D02*
X196539885Y-107267185D01*
X196682742Y-107195757D01*
X196754171Y-107052900D01*
X196754171Y-106910042D01*
X196754171Y-105767185D02*
X195968457Y-105767185D01*
X195825600Y-105838614D01*
X195754171Y-105981471D01*
X195754171Y-106267185D01*
X195825600Y-106410042D01*
X196682742Y-105767185D02*
X196754171Y-105910042D01*
X196754171Y-106267185D01*
X196682742Y-106410042D01*
X196539885Y-106481471D01*
X196397028Y-106481471D01*
X196254171Y-106410042D01*
X196182742Y-106267185D01*
X196182742Y-105910042D01*
X196111314Y-105767185D01*
X195754171Y-105052900D02*
X196754171Y-105052900D01*
X195897028Y-105052900D02*
X195825600Y-104981471D01*
X195754171Y-104838614D01*
X195754171Y-104624328D01*
X195825600Y-104481471D01*
X195968457Y-104410042D01*
X196754171Y-104410042D01*
X196682742Y-103052900D02*
X196754171Y-103195757D01*
X196754171Y-103481471D01*
X196682742Y-103624328D01*
X196611314Y-103695757D01*
X196468457Y-103767185D01*
X196039885Y-103767185D01*
X195897028Y-103695757D01*
X195825600Y-103624328D01*
X195754171Y-103481471D01*
X195754171Y-103195757D01*
X195825600Y-103052900D01*
X196682742Y-101838614D02*
X196754171Y-101981471D01*
X196754171Y-102267185D01*
X196682742Y-102410042D01*
X196539885Y-102481471D01*
X195968457Y-102481471D01*
X195825600Y-102410042D01*
X195754171Y-102267185D01*
X195754171Y-101981471D01*
X195825600Y-101838614D01*
X195968457Y-101767185D01*
X196111314Y-101767185D01*
X196254171Y-102481471D01*
X196754171Y-99981471D02*
X195254171Y-99981471D01*
X196325600Y-99481471D01*
X195254171Y-98981471D01*
X196754171Y-98981471D01*
X196682742Y-97695757D02*
X196754171Y-97838614D01*
X196754171Y-98124328D01*
X196682742Y-98267185D01*
X196539885Y-98338614D01*
X195968457Y-98338614D01*
X195825600Y-98267185D01*
X195754171Y-98124328D01*
X195754171Y-97838614D01*
X195825600Y-97695757D01*
X195968457Y-97624328D01*
X196111314Y-97624328D01*
X196254171Y-98338614D01*
X196754171Y-96338614D02*
X195968457Y-96338614D01*
X195825600Y-96410042D01*
X195754171Y-96552900D01*
X195754171Y-96838614D01*
X195825600Y-96981471D01*
X196682742Y-96338614D02*
X196754171Y-96481471D01*
X196754171Y-96838614D01*
X196682742Y-96981471D01*
X196539885Y-97052900D01*
X196397028Y-97052900D01*
X196254171Y-96981471D01*
X196182742Y-96838614D01*
X196182742Y-96481471D01*
X196111314Y-96338614D01*
X196682742Y-95695757D02*
X196754171Y-95552900D01*
X196754171Y-95267185D01*
X196682742Y-95124328D01*
X196539885Y-95052900D01*
X196468457Y-95052900D01*
X196325600Y-95124328D01*
X196254171Y-95267185D01*
X196254171Y-95481471D01*
X196182742Y-95624328D01*
X196039885Y-95695757D01*
X195968457Y-95695757D01*
X195825600Y-95624328D01*
X195754171Y-95481471D01*
X195754171Y-95267185D01*
X195825600Y-95124328D01*
X195754171Y-93767185D02*
X196754171Y-93767185D01*
X195754171Y-94410042D02*
X196539885Y-94410042D01*
X196682742Y-94338614D01*
X196754171Y-94195757D01*
X196754171Y-93981471D01*
X196682742Y-93838614D01*
X196611314Y-93767185D01*
X196754171Y-93052900D02*
X195754171Y-93052900D01*
X196039885Y-93052900D02*
X195897028Y-92981471D01*
X195825600Y-92910042D01*
X195754171Y-92767185D01*
X195754171Y-92624328D01*
X196682742Y-91552900D02*
X196754171Y-91695757D01*
X196754171Y-91981471D01*
X196682742Y-92124328D01*
X196539885Y-92195757D01*
X195968457Y-92195757D01*
X195825600Y-92124328D01*
X195754171Y-91981471D01*
X195754171Y-91695757D01*
X195825600Y-91552900D01*
X195968457Y-91481471D01*
X196111314Y-91481471D01*
X196254171Y-92195757D01*
X196754171Y-90838614D02*
X195754171Y-90838614D01*
X195897028Y-90838614D02*
X195825600Y-90767185D01*
X195754171Y-90624328D01*
X195754171Y-90410042D01*
X195825600Y-90267185D01*
X195968457Y-90195757D01*
X196754171Y-90195757D01*
X195968457Y-90195757D02*
X195825600Y-90124328D01*
X195754171Y-89981471D01*
X195754171Y-89767185D01*
X195825600Y-89624328D01*
X195968457Y-89552900D01*
X196754171Y-89552900D01*
X196682742Y-88267185D02*
X196754171Y-88410042D01*
X196754171Y-88695757D01*
X196682742Y-88838614D01*
X196539885Y-88910042D01*
X195968457Y-88910042D01*
X195825600Y-88838614D01*
X195754171Y-88695757D01*
X195754171Y-88410042D01*
X195825600Y-88267185D01*
X195968457Y-88195757D01*
X196111314Y-88195757D01*
X196254171Y-88910042D01*
X195754171Y-87552900D02*
X196754171Y-87552900D01*
X195897028Y-87552900D02*
X195825600Y-87481471D01*
X195754171Y-87338614D01*
X195754171Y-87124328D01*
X195825600Y-86981471D01*
X195968457Y-86910042D01*
X196754171Y-86910042D01*
X195754171Y-86410042D02*
X195754171Y-85838614D01*
X195254171Y-86195757D02*
X196539885Y-86195757D01*
X196682742Y-86124328D01*
X196754171Y-85981471D01*
X196754171Y-85838614D01*
X199154171Y-109838614D02*
X198439885Y-110338614D01*
X199154171Y-110695757D02*
X197654171Y-110695757D01*
X197654171Y-110124328D01*
X197725600Y-109981471D01*
X197797028Y-109910042D01*
X197939885Y-109838614D01*
X198154171Y-109838614D01*
X198297028Y-109910042D01*
X198368457Y-109981471D01*
X198439885Y-110124328D01*
X198439885Y-110695757D01*
X199082742Y-108624328D02*
X199154171Y-108767185D01*
X199154171Y-109052900D01*
X199082742Y-109195757D01*
X198939885Y-109267185D01*
X198368457Y-109267185D01*
X198225600Y-109195757D01*
X198154171Y-109052900D01*
X198154171Y-108767185D01*
X198225600Y-108624328D01*
X198368457Y-108552900D01*
X198511314Y-108552900D01*
X198654171Y-109267185D01*
X198154171Y-108052900D02*
X199154171Y-107695757D01*
X198154171Y-107338614D01*
X199011314Y-106767185D02*
X199082742Y-106695757D01*
X199154171Y-106767185D01*
X199082742Y-106838614D01*
X199011314Y-106767185D01*
X199154171Y-106767185D01*
X197654171Y-104624328D02*
X197654171Y-104481471D01*
X197725600Y-104338614D01*
X197797028Y-104267185D01*
X197939885Y-104195757D01*
X198225600Y-104124328D01*
X198582742Y-104124328D01*
X198868457Y-104195757D01*
X199011314Y-104267185D01*
X199082742Y-104338614D01*
X199154171Y-104481471D01*
X199154171Y-104624328D01*
X199082742Y-104767185D01*
X199011314Y-104838614D01*
X198868457Y-104910042D01*
X198582742Y-104981471D01*
X198225600Y-104981471D01*
X197939885Y-104910042D01*
X197797028Y-104838614D01*
X197725600Y-104767185D01*
X197654171Y-104624328D01*
X197797028Y-103552900D02*
X197725600Y-103481471D01*
X197654171Y-103338614D01*
X197654171Y-102981471D01*
X197725600Y-102838614D01*
X197797028Y-102767185D01*
X197939885Y-102695757D01*
X198082742Y-102695757D01*
X198297028Y-102767185D01*
X199154171Y-103624328D01*
X199154171Y-102695757D01*
X200768457Y-110695757D02*
X200768457Y-110195757D01*
X201554171Y-109981471D02*
X201554171Y-110695757D01*
X200054171Y-110695757D01*
X200054171Y-109981471D01*
X201554171Y-109338614D02*
X200554171Y-109338614D01*
X200697028Y-109338614D02*
X200625600Y-109267185D01*
X200554171Y-109124328D01*
X200554171Y-108910042D01*
X200625600Y-108767185D01*
X200768457Y-108695757D01*
X201554171Y-108695757D01*
X200768457Y-108695757D02*
X200625600Y-108624328D01*
X200554171Y-108481471D01*
X200554171Y-108267185D01*
X200625600Y-108124328D01*
X200768457Y-108052900D01*
X201554171Y-108052900D01*
X201554171Y-107338614D02*
X200554171Y-107338614D01*
X200054171Y-107338614D02*
X200125600Y-107410042D01*
X200197028Y-107338614D01*
X200125600Y-107267185D01*
X200054171Y-107338614D01*
X200197028Y-107338614D01*
X201554171Y-106410042D02*
X201482742Y-106552900D01*
X201339885Y-106624328D01*
X200054171Y-106624328D01*
X201554171Y-105838614D02*
X200554171Y-105838614D01*
X200054171Y-105838614D02*
X200125600Y-105910042D01*
X200197028Y-105838614D01*
X200125600Y-105767185D01*
X200054171Y-105838614D01*
X200197028Y-105838614D01*
X201554171Y-104481471D02*
X200768457Y-104481471D01*
X200625600Y-104552900D01*
X200554171Y-104695757D01*
X200554171Y-104981471D01*
X200625600Y-105124328D01*
X201482742Y-104481471D02*
X201554171Y-104624328D01*
X201554171Y-104981471D01*
X201482742Y-105124328D01*
X201339885Y-105195757D01*
X201197028Y-105195757D01*
X201054171Y-105124328D01*
X200982742Y-104981471D01*
X200982742Y-104624328D01*
X200911314Y-104481471D01*
X201554171Y-101410042D02*
X201554171Y-101481471D01*
X201482742Y-101624328D01*
X201268457Y-101838614D01*
X200839885Y-102195757D01*
X200625600Y-102338614D01*
X200411314Y-102410042D01*
X200268457Y-102410042D01*
X200125600Y-102338614D01*
X200054171Y-102195757D01*
X200054171Y-102124328D01*
X200125600Y-101981471D01*
X200268457Y-101910042D01*
X200339885Y-101910042D01*
X200482742Y-101981471D01*
X200554171Y-102052900D01*
X200839885Y-102481471D01*
X200911314Y-102552900D01*
X201054171Y-102624328D01*
X201268457Y-102624328D01*
X201411314Y-102552900D01*
X201482742Y-102481471D01*
X201554171Y-102338614D01*
X201554171Y-102124328D01*
X201482742Y-101981471D01*
X201411314Y-101910042D01*
X201125600Y-101695757D01*
X200911314Y-101624328D01*
X200768457Y-101624328D01*
X201554171Y-99624328D02*
X200054171Y-99624328D01*
X200054171Y-99052900D01*
X200125600Y-98910042D01*
X200197028Y-98838614D01*
X200339885Y-98767185D01*
X200554171Y-98767185D01*
X200697028Y-98838614D01*
X200768457Y-98910042D01*
X200839885Y-99052900D01*
X200839885Y-99624328D01*
X201554171Y-97481471D02*
X200768457Y-97481471D01*
X200625600Y-97552900D01*
X200554171Y-97695757D01*
X200554171Y-97981471D01*
X200625600Y-98124328D01*
X201482742Y-97481471D02*
X201554171Y-97624328D01*
X201554171Y-97981471D01*
X201482742Y-98124328D01*
X201339885Y-98195757D01*
X201197028Y-98195757D01*
X201054171Y-98124328D01*
X200982742Y-97981471D01*
X200982742Y-97624328D01*
X200911314Y-97481471D01*
X200554171Y-96767185D02*
X202054171Y-96767185D01*
X200625600Y-96767185D02*
X200554171Y-96624328D01*
X200554171Y-96338614D01*
X200625600Y-96195757D01*
X200697028Y-96124328D01*
X200839885Y-96052900D01*
X201268457Y-96052900D01*
X201411314Y-96124328D01*
X201482742Y-96195757D01*
X201554171Y-96338614D01*
X201554171Y-96624328D01*
X201482742Y-96767185D01*
X201554171Y-94767185D02*
X200768457Y-94767185D01*
X200625600Y-94838614D01*
X200554171Y-94981471D01*
X200554171Y-95267185D01*
X200625600Y-95410042D01*
X201482742Y-94767185D02*
X201554171Y-94910042D01*
X201554171Y-95267185D01*
X201482742Y-95410042D01*
X201339885Y-95481471D01*
X201197028Y-95481471D01*
X201054171Y-95410042D01*
X200982742Y-95267185D01*
X200982742Y-94910042D01*
X200911314Y-94767185D01*
X203882742Y-110052900D02*
X203954171Y-110195757D01*
X203954171Y-110481471D01*
X203882742Y-110624328D01*
X203811314Y-110695757D01*
X203668457Y-110767185D01*
X203239885Y-110767185D01*
X203097028Y-110695757D01*
X203025600Y-110624328D01*
X202954171Y-110481471D01*
X202954171Y-110195757D01*
X203025600Y-110052900D01*
X203954171Y-109195757D02*
X203882742Y-109338614D01*
X203811314Y-109410042D01*
X203668457Y-109481471D01*
X203239885Y-109481471D01*
X203097028Y-109410042D01*
X203025600Y-109338614D01*
X202954171Y-109195757D01*
X202954171Y-108981471D01*
X203025600Y-108838614D01*
X203097028Y-108767185D01*
X203239885Y-108695757D01*
X203668457Y-108695757D01*
X203811314Y-108767185D01*
X203882742Y-108838614D01*
X203954171Y-108981471D01*
X203954171Y-109195757D01*
X202954171Y-108052900D02*
X204454171Y-108052900D01*
X203025600Y-108052900D02*
X202954171Y-107910042D01*
X202954171Y-107624328D01*
X203025600Y-107481471D01*
X203097028Y-107410042D01*
X203239885Y-107338614D01*
X203668457Y-107338614D01*
X203811314Y-107410042D01*
X203882742Y-107481471D01*
X203954171Y-107624328D01*
X203954171Y-107910042D01*
X203882742Y-108052900D01*
X202954171Y-106838614D02*
X203954171Y-106481471D01*
X202954171Y-106124328D02*
X203954171Y-106481471D01*
X204311314Y-106624328D01*
X204382742Y-106695757D01*
X204454171Y-106838614D01*
X203954171Y-105552900D02*
X202954171Y-105552900D01*
X203239885Y-105552900D02*
X203097028Y-105481471D01*
X203025600Y-105410042D01*
X202954171Y-105267185D01*
X202954171Y-105124328D01*
X203954171Y-104624328D02*
X202954171Y-104624328D01*
X202454171Y-104624328D02*
X202525600Y-104695757D01*
X202597028Y-104624328D01*
X202525600Y-104552900D01*
X202454171Y-104624328D01*
X202597028Y-104624328D01*
X202954171Y-103267185D02*
X204168457Y-103267185D01*
X204311314Y-103338614D01*
X204382742Y-103410042D01*
X204454171Y-103552900D01*
X204454171Y-103767185D01*
X204382742Y-103910042D01*
X203882742Y-103267185D02*
X203954171Y-103410042D01*
X203954171Y-103695757D01*
X203882742Y-103838614D01*
X203811314Y-103910042D01*
X203668457Y-103981471D01*
X203239885Y-103981471D01*
X203097028Y-103910042D01*
X203025600Y-103838614D01*
X202954171Y-103695757D01*
X202954171Y-103410042D01*
X203025600Y-103267185D01*
X203954171Y-102552900D02*
X202454171Y-102552900D01*
X203954171Y-101910042D02*
X203168457Y-101910042D01*
X203025600Y-101981471D01*
X202954171Y-102124328D01*
X202954171Y-102338614D01*
X203025600Y-102481471D01*
X203097028Y-102552900D01*
X202954171Y-101410042D02*
X202954171Y-100838614D01*
X202454171Y-101195757D02*
X203739885Y-101195757D01*
X203882742Y-101124328D01*
X203954171Y-100981471D01*
X203954171Y-100838614D01*
X202597028Y-99267185D02*
X202525600Y-99195757D01*
X202454171Y-99052900D01*
X202454171Y-98695757D01*
X202525600Y-98552900D01*
X202597028Y-98481471D01*
X202739885Y-98410042D01*
X202882742Y-98410042D01*
X203097028Y-98481471D01*
X203954171Y-99338614D01*
X203954171Y-98410042D01*
X202454171Y-97481471D02*
X202454171Y-97338614D01*
X202525600Y-97195757D01*
X202597028Y-97124328D01*
X202739885Y-97052900D01*
X203025600Y-96981471D01*
X203382742Y-96981471D01*
X203668457Y-97052900D01*
X203811314Y-97124328D01*
X203882742Y-97195757D01*
X203954171Y-97338614D01*
X203954171Y-97481471D01*
X203882742Y-97624328D01*
X203811314Y-97695757D01*
X203668457Y-97767185D01*
X203382742Y-97838614D01*
X203025600Y-97838614D01*
X202739885Y-97767185D01*
X202597028Y-97695757D01*
X202525600Y-97624328D01*
X202454171Y-97481471D01*
X202597028Y-96410042D02*
X202525600Y-96338614D01*
X202454171Y-96195757D01*
X202454171Y-95838614D01*
X202525600Y-95695757D01*
X202597028Y-95624328D01*
X202739885Y-95552900D01*
X202882742Y-95552900D01*
X203097028Y-95624328D01*
X203954171Y-96481471D01*
X203954171Y-95552900D01*
X203954171Y-94124328D02*
X203954171Y-94981471D01*
X203954171Y-94552900D02*
X202454171Y-94552900D01*
X202668457Y-94695757D01*
X202811314Y-94838614D01*
X202882742Y-94981471D01*
X107164380Y-101528571D02*
X107497714Y-101528571D01*
X107640571Y-102052380D02*
X107164380Y-102052380D01*
X107164380Y-101052380D01*
X107640571Y-101052380D01*
X108497714Y-102004761D02*
X108402476Y-102052380D01*
X108212000Y-102052380D01*
X108116761Y-102004761D01*
X108069142Y-101957142D01*
X108021523Y-101861904D01*
X108021523Y-101576190D01*
X108069142Y-101480952D01*
X108116761Y-101433333D01*
X108212000Y-101385714D01*
X108402476Y-101385714D01*
X108497714Y-101433333D01*
X108926285Y-102052380D02*
X108926285Y-101052380D01*
X109354857Y-102052380D02*
X109354857Y-101528571D01*
X109307238Y-101433333D01*
X109212000Y-101385714D01*
X109069142Y-101385714D01*
X108973904Y-101433333D01*
X108926285Y-101480952D01*
X109973904Y-102052380D02*
X109878666Y-102004761D01*
X109831047Y-101957142D01*
X109783428Y-101861904D01*
X109783428Y-101576190D01*
X109831047Y-101480952D01*
X109878666Y-101433333D01*
X109973904Y-101385714D01*
X110116761Y-101385714D01*
X110212000Y-101433333D01*
X110259619Y-101480952D01*
X110307238Y-101576190D01*
X110307238Y-101861904D01*
X110259619Y-101957142D01*
X110212000Y-102004761D01*
X110116761Y-102052380D01*
X109973904Y-102052380D01*
X107172285Y-98512380D02*
X107743714Y-98512380D01*
X107458000Y-99512380D02*
X107458000Y-98512380D01*
X108077047Y-99512380D02*
X108077047Y-98845714D01*
X108077047Y-99036190D02*
X108124666Y-98940952D01*
X108172285Y-98893333D01*
X108267523Y-98845714D01*
X108362761Y-98845714D01*
X108696095Y-99512380D02*
X108696095Y-98845714D01*
X108696095Y-98512380D02*
X108648476Y-98560000D01*
X108696095Y-98607619D01*
X108743714Y-98560000D01*
X108696095Y-98512380D01*
X108696095Y-98607619D01*
X109600857Y-98845714D02*
X109600857Y-99655238D01*
X109553238Y-99750476D01*
X109505619Y-99798095D01*
X109410380Y-99845714D01*
X109267523Y-99845714D01*
X109172285Y-99798095D01*
X109600857Y-99464761D02*
X109505619Y-99512380D01*
X109315142Y-99512380D01*
X109219904Y-99464761D01*
X109172285Y-99417142D01*
X109124666Y-99321904D01*
X109124666Y-99036190D01*
X109172285Y-98940952D01*
X109219904Y-98893333D01*
X109315142Y-98845714D01*
X109505619Y-98845714D01*
X109600857Y-98893333D01*
X107696095Y-103513000D02*
X107600857Y-103465380D01*
X107458000Y-103465380D01*
X107315142Y-103513000D01*
X107219904Y-103608238D01*
X107172285Y-103703476D01*
X107124666Y-103893952D01*
X107124666Y-104036809D01*
X107172285Y-104227285D01*
X107219904Y-104322523D01*
X107315142Y-104417761D01*
X107458000Y-104465380D01*
X107553238Y-104465380D01*
X107696095Y-104417761D01*
X107743714Y-104370142D01*
X107743714Y-104036809D01*
X107553238Y-104036809D01*
X108172285Y-104465380D02*
X108172285Y-103465380D01*
X108743714Y-104465380D01*
X108743714Y-103465380D01*
X109219904Y-104465380D02*
X109219904Y-103465380D01*
X109458000Y-103465380D01*
X109600857Y-103513000D01*
X109696095Y-103608238D01*
X109743714Y-103703476D01*
X109791333Y-103893952D01*
X109791333Y-104036809D01*
X109743714Y-104227285D01*
X109696095Y-104322523D01*
X109600857Y-104417761D01*
X109458000Y-104465380D01*
X109219904Y-104465380D01*
X107140523Y-95845380D02*
X107473857Y-96845380D01*
X107807190Y-95845380D01*
X108569095Y-96797761D02*
X108473857Y-96845380D01*
X108283380Y-96845380D01*
X108188142Y-96797761D01*
X108140523Y-96750142D01*
X108092904Y-96654904D01*
X108092904Y-96369190D01*
X108140523Y-96273952D01*
X108188142Y-96226333D01*
X108283380Y-96178714D01*
X108473857Y-96178714D01*
X108569095Y-96226333D01*
X109426238Y-96797761D02*
X109331000Y-96845380D01*
X109140523Y-96845380D01*
X109045285Y-96797761D01*
X108997666Y-96750142D01*
X108950047Y-96654904D01*
X108950047Y-96369190D01*
X108997666Y-96273952D01*
X109045285Y-96226333D01*
X109140523Y-96178714D01*
X109331000Y-96178714D01*
X109426238Y-96226333D01*
D11*
X191834700Y-83520742D02*
X192977557Y-83520742D01*
X105127100Y-82032457D02*
X106650909Y-82032457D01*
X105889004Y-82794361D02*
X105889004Y-81270552D01*
D12*
%TO.C,LS1*%
X122528800Y-120914800D02*
G75*
G03*
X122528800Y-120914800I-6400000J0D01*
G01*
D13*
%TO.C,BT1*%
X110334800Y-67928000D02*
X188334800Y-67928000D01*
X188334800Y-67928000D02*
X188334800Y-88028000D01*
X188334800Y-88028000D02*
X110334800Y-88028000D01*
X110334800Y-88028000D02*
X110334800Y-67928000D01*
%TO.C,U1*%
X178833600Y-118543200D02*
X185733600Y-118543200D01*
X178833600Y-121083200D02*
X178833600Y-118543200D01*
D10*
G36*
X158978600Y-122123200D02*
G01*
X160248600Y-122123200D01*
X159613600Y-121488200D01*
X158978600Y-122123200D01*
G37*
X158978600Y-122123200D02*
X160248600Y-122123200D01*
X159613600Y-121488200D01*
X158978600Y-122123200D01*
D13*
X151273600Y-97343200D02*
X151273600Y-118953200D01*
X185733600Y-95223200D02*
X153403600Y-95223200D01*
X178833600Y-121083200D02*
X153403600Y-121083200D01*
X185733600Y-118543200D02*
X185733600Y-95223200D01*
X151273600Y-97353200D02*
G75*
G02*
X153403600Y-95223200I2130000J0D01*
G01*
X153403600Y-121083200D02*
G75*
G02*
X151273600Y-118953200I0J2130000D01*
G01*
%TO.C,R2*%
X130529200Y-99669600D02*
X131299200Y-99669600D01*
X138609200Y-99669600D02*
X137839200Y-99669600D01*
X131299200Y-101039600D02*
X137839200Y-101039600D01*
X131299200Y-98299600D02*
X131299200Y-101039600D01*
X137839200Y-98299600D02*
X131299200Y-98299600D01*
X137839200Y-101039600D02*
X137839200Y-98299600D01*
%TO.C,Q1*%
X128088000Y-110893000D02*
X128088000Y-107293000D01*
X127360795Y-106768816D02*
G75*
G02*
X128088000Y-107293000I-1122795J-2324184D01*
G01*
X125139193Y-106736600D02*
G75*
G03*
X123638000Y-109093000I1098807J-2356400D01*
G01*
X125139193Y-111449400D02*
G75*
G02*
X123638000Y-109093000I1098807J2356400D01*
G01*
X127360795Y-111417184D02*
G75*
G03*
X128088000Y-110893000I-1122795J2324184D01*
G01*
%TO.C,D1*%
X139510000Y-122514800D02*
X139666000Y-122514800D01*
X137194000Y-122514800D02*
X137350000Y-122514800D01*
X139509837Y-119913670D02*
G75*
G02*
X139510000Y-121995761I-1079837J-1041130D01*
G01*
X137350163Y-119913670D02*
G75*
G03*
X137350000Y-121995761I1079837J-1041130D01*
G01*
X139508608Y-119282465D02*
G75*
G02*
X139665516Y-122514800I-1078608J-1672335D01*
G01*
X137351392Y-119282465D02*
G75*
G03*
X137194484Y-122514800I1078608J-1672335D01*
G01*
%TO.C,J1*%
X104902000Y-105343000D02*
X103572000Y-105343000D01*
X103572000Y-105343000D02*
X103572000Y-104013000D01*
X103572000Y-102743000D02*
X103572000Y-95063000D01*
X106232000Y-95063000D02*
X103572000Y-95063000D01*
X106232000Y-102743000D02*
X106232000Y-95063000D01*
X106232000Y-102743000D02*
X103572000Y-102743000D01*
%TO.C,R1*%
X124639200Y-96062800D02*
X123869200Y-96062800D01*
X116559200Y-96062800D02*
X117329200Y-96062800D01*
X123869200Y-94692800D02*
X117329200Y-94692800D01*
X123869200Y-97432800D02*
X123869200Y-94692800D01*
X117329200Y-97432800D02*
X123869200Y-97432800D01*
X117329200Y-94692800D02*
X117329200Y-97432800D01*
%TO.C,LS1*%
D10*
X115560942Y-114117180D02*
X115084752Y-114117180D01*
X115084752Y-113117180D01*
X115846657Y-114069561D02*
X115989514Y-114117180D01*
X116227609Y-114117180D01*
X116322847Y-114069561D01*
X116370466Y-114021942D01*
X116418085Y-113926704D01*
X116418085Y-113831466D01*
X116370466Y-113736228D01*
X116322847Y-113688609D01*
X116227609Y-113640990D01*
X116037133Y-113593371D01*
X115941895Y-113545752D01*
X115894276Y-113498133D01*
X115846657Y-113402895D01*
X115846657Y-113307657D01*
X115894276Y-113212419D01*
X115941895Y-113164800D01*
X116037133Y-113117180D01*
X116275228Y-113117180D01*
X116418085Y-113164800D01*
X117370466Y-114117180D02*
X116799038Y-114117180D01*
X117084752Y-114117180D02*
X117084752Y-113117180D01*
X116989514Y-113260038D01*
X116894276Y-113355276D01*
X116799038Y-113402895D01*
%TO.C,BT1*%
X148549085Y-78906571D02*
X148691942Y-78954190D01*
X148739561Y-79001809D01*
X148787180Y-79097047D01*
X148787180Y-79239904D01*
X148739561Y-79335142D01*
X148691942Y-79382761D01*
X148596704Y-79430380D01*
X148215752Y-79430380D01*
X148215752Y-78430380D01*
X148549085Y-78430380D01*
X148644323Y-78478000D01*
X148691942Y-78525619D01*
X148739561Y-78620857D01*
X148739561Y-78716095D01*
X148691942Y-78811333D01*
X148644323Y-78858952D01*
X148549085Y-78906571D01*
X148215752Y-78906571D01*
X149072895Y-78430380D02*
X149644323Y-78430380D01*
X149358609Y-79430380D02*
X149358609Y-78430380D01*
X150501466Y-79430380D02*
X149930038Y-79430380D01*
X150215752Y-79430380D02*
X150215752Y-78430380D01*
X150120514Y-78573238D01*
X150025276Y-78668476D01*
X149930038Y-78716095D01*
%TO.C,U1*%
X186065980Y-98345104D02*
X186875504Y-98345104D01*
X186970742Y-98297485D01*
X187018361Y-98249866D01*
X187065980Y-98154628D01*
X187065980Y-97964152D01*
X187018361Y-97868914D01*
X186970742Y-97821295D01*
X186875504Y-97773676D01*
X186065980Y-97773676D01*
X187065980Y-96773676D02*
X187065980Y-97345104D01*
X187065980Y-97059390D02*
X186065980Y-97059390D01*
X186208838Y-97154628D01*
X186304076Y-97249866D01*
X186351695Y-97345104D01*
%TO.C,R2*%
X134402533Y-102491980D02*
X134069200Y-102015790D01*
X133831104Y-102491980D02*
X133831104Y-101491980D01*
X134212057Y-101491980D01*
X134307295Y-101539600D01*
X134354914Y-101587219D01*
X134402533Y-101682457D01*
X134402533Y-101825314D01*
X134354914Y-101920552D01*
X134307295Y-101968171D01*
X134212057Y-102015790D01*
X133831104Y-102015790D01*
X134783485Y-101587219D02*
X134831104Y-101539600D01*
X134926342Y-101491980D01*
X135164438Y-101491980D01*
X135259676Y-101539600D01*
X135307295Y-101587219D01*
X135354914Y-101682457D01*
X135354914Y-101777695D01*
X135307295Y-101920552D01*
X134735866Y-102491980D01*
X135354914Y-102491980D01*
%TO.C,Q1*%
X123225619Y-109188238D02*
X123178000Y-109283476D01*
X123082761Y-109378714D01*
X122939904Y-109521571D01*
X122892285Y-109616809D01*
X122892285Y-109712047D01*
X123130380Y-109664428D02*
X123082761Y-109759666D01*
X122987523Y-109854904D01*
X122797047Y-109902523D01*
X122463714Y-109902523D01*
X122273238Y-109854904D01*
X122178000Y-109759666D01*
X122130380Y-109664428D01*
X122130380Y-109473952D01*
X122178000Y-109378714D01*
X122273238Y-109283476D01*
X122463714Y-109235857D01*
X122797047Y-109235857D01*
X122987523Y-109283476D01*
X123082761Y-109378714D01*
X123130380Y-109473952D01*
X123130380Y-109664428D01*
X123130380Y-108283476D02*
X123130380Y-108854904D01*
X123130380Y-108569190D02*
X122130380Y-108569190D01*
X122273238Y-108664428D01*
X122368476Y-108759666D01*
X122416095Y-108854904D01*
%TO.C,D1*%
X135922380Y-121692895D02*
X134922380Y-121692895D01*
X134922380Y-121454800D01*
X134970000Y-121311942D01*
X135065238Y-121216704D01*
X135160476Y-121169085D01*
X135350952Y-121121466D01*
X135493809Y-121121466D01*
X135684285Y-121169085D01*
X135779523Y-121216704D01*
X135874761Y-121311942D01*
X135922380Y-121454800D01*
X135922380Y-121692895D01*
X135922380Y-120169085D02*
X135922380Y-120740514D01*
X135922380Y-120454800D02*
X134922380Y-120454800D01*
X135065238Y-120550038D01*
X135160476Y-120645276D01*
X135208095Y-120740514D01*
%TO.C,J1*%
X104568666Y-106235380D02*
X104568666Y-106949666D01*
X104521047Y-107092523D01*
X104425809Y-107187761D01*
X104282952Y-107235380D01*
X104187714Y-107235380D01*
X105568666Y-107235380D02*
X104997238Y-107235380D01*
X105282952Y-107235380D02*
X105282952Y-106235380D01*
X105187714Y-106378238D01*
X105092476Y-106473476D01*
X104997238Y-106521095D01*
%TO.C,R1*%
X120432533Y-94145180D02*
X120099200Y-93668990D01*
X119861104Y-94145180D02*
X119861104Y-93145180D01*
X120242057Y-93145180D01*
X120337295Y-93192800D01*
X120384914Y-93240419D01*
X120432533Y-93335657D01*
X120432533Y-93478514D01*
X120384914Y-93573752D01*
X120337295Y-93621371D01*
X120242057Y-93668990D01*
X119861104Y-93668990D01*
X121384914Y-94145180D02*
X120813485Y-94145180D01*
X121099200Y-94145180D02*
X121099200Y-93145180D01*
X121003961Y-93288038D01*
X120908723Y-93383276D01*
X120813485Y-93430895D01*
%TD*%
M02*
