%TF.GenerationSoftware,KiCad,Pcbnew,(5.1.10-1-10_14)*%
%TF.CreationDate,2021-11-27T08:47:14+01:00*%
%TF.ProjectId,Distance_Measurement_V2,44697374-616e-4636-955f-4d6561737572,Version 2 Rev. 01*%
%TF.SameCoordinates,Original*%
%TF.FileFunction,Soldermask,Bot*%
%TF.FilePolarity,Negative*%
%FSLAX46Y46*%
G04 Gerber Fmt 4.6, Leading zero omitted, Abs format (unit mm)*
G04 Created by KiCad (PCBNEW (5.1.10-1-10_14)) date 2021-11-27 08:47:14*
%MOMM*%
%LPD*%
G01*
G04 APERTURE LIST*
%ADD10C,1.850000*%
%ADD11R,1.850000X1.850000*%
%ADD12C,3.200000*%
%ADD13R,3.500000X3.500000*%
%ADD14C,3.500000*%
%ADD15O,1.600000X2.000000*%
%ADD16R,2.000000X2.000000*%
%ADD17O,1.600000X1.600000*%
%ADD18C,1.600000*%
%ADD19R,1.500000X1.500000*%
%ADD20C,1.500000*%
%ADD21C,1.800000*%
%ADD22R,1.800000X1.800000*%
%ADD23O,1.700000X1.700000*%
%ADD24R,1.700000X1.700000*%
G04 APERTURE END LIST*
D10*
%TO.C,LS1*%
X116128800Y-123414800D03*
D11*
X116128800Y-118414800D03*
%TD*%
D12*
%TO.C,BT1*%
X177589800Y-77978000D03*
X121979800Y-77978000D03*
D13*
X113334800Y-77978000D03*
D14*
X185334800Y-77978000D03*
%TD*%
D15*
%TO.C,U1*%
X159613600Y-96723200D03*
X162153600Y-96723200D03*
X164693600Y-96723200D03*
X167233600Y-96723200D03*
X169773600Y-96723200D03*
X172313600Y-96723200D03*
X174853600Y-96723200D03*
X177393600Y-96723200D03*
X177393600Y-119583200D03*
X174853600Y-119583200D03*
X172313600Y-119583200D03*
X169773600Y-119583200D03*
X167233600Y-119583200D03*
X164693600Y-119583200D03*
D16*
X159613600Y-119583200D03*
D15*
X162153600Y-119583200D03*
%TD*%
D17*
%TO.C,R2*%
X129489200Y-99669600D03*
D18*
X139649200Y-99669600D03*
%TD*%
D19*
%TO.C,Q1*%
X126238000Y-111633000D03*
D20*
X126238000Y-106553000D03*
X126238000Y-109093000D03*
%TD*%
D21*
%TO.C,D1*%
X138430000Y-119684800D03*
D22*
X138430000Y-122224800D03*
%TD*%
D23*
%TO.C,J1*%
X104902000Y-96393000D03*
X104902000Y-98933000D03*
X104902000Y-101473000D03*
D24*
X104902000Y-104013000D03*
%TD*%
D17*
%TO.C,R1*%
X125679200Y-96062800D03*
D18*
X115519200Y-96062800D03*
%TD*%
D12*
%TO.C,REF\u002A\u002A*%
X194440000Y-75794000D03*
%TD*%
%TO.C,REF\u002A\u002A*%
X104440000Y-75794000D03*
%TD*%
%TO.C,REF\u002A\u002A*%
X194440000Y-120794000D03*
%TD*%
%TO.C,REF\u002A\u002A*%
X104440000Y-120794000D03*
%TD*%
M02*
