%TF.GenerationSoftware,KiCad,Pcbnew,(5.1.10-1-10_14)*%
%TF.CreationDate,2021-11-11T14:28:07+01:00*%
%TF.ProjectId,Distance_Measurement,44697374-616e-4636-955f-4d6561737572,02*%
%TF.SameCoordinates,Original*%
%TF.FileFunction,Legend,Top*%
%TF.FilePolarity,Positive*%
%FSLAX46Y46*%
G04 Gerber Fmt 4.6, Leading zero omitted, Abs format (unit mm)*
G04 Created by KiCad (PCBNEW (5.1.10-1-10_14)) date 2021-11-11 14:28:07*
%MOMM*%
%LPD*%
G01*
G04 APERTURE LIST*
%ADD10C,0.150000*%
%ADD11C,0.120000*%
%ADD12C,0.100000*%
G04 APERTURE END LIST*
D10*
X110166785Y-115854071D02*
X110523928Y-117354071D01*
X110809642Y-116282642D01*
X111095357Y-117354071D01*
X111452500Y-115854071D01*
X112595357Y-117282642D02*
X112452500Y-117354071D01*
X112166785Y-117354071D01*
X112023928Y-117282642D01*
X111952500Y-117139785D01*
X111952500Y-116568357D01*
X112023928Y-116425500D01*
X112166785Y-116354071D01*
X112452500Y-116354071D01*
X112595357Y-116425500D01*
X112666785Y-116568357D01*
X112666785Y-116711214D01*
X111952500Y-116854071D01*
X113309642Y-117354071D02*
X113309642Y-116354071D01*
X113309642Y-116496928D02*
X113381071Y-116425500D01*
X113523928Y-116354071D01*
X113738214Y-116354071D01*
X113881071Y-116425500D01*
X113952500Y-116568357D01*
X113952500Y-117354071D01*
X113952500Y-116568357D02*
X114023928Y-116425500D01*
X114166785Y-116354071D01*
X114381071Y-116354071D01*
X114523928Y-116425500D01*
X114595357Y-116568357D01*
X114595357Y-117354071D01*
X115523928Y-117354071D02*
X115381071Y-117282642D01*
X115309642Y-117211214D01*
X115238214Y-117068357D01*
X115238214Y-116639785D01*
X115309642Y-116496928D01*
X115381071Y-116425500D01*
X115523928Y-116354071D01*
X115738214Y-116354071D01*
X115881071Y-116425500D01*
X115952500Y-116496928D01*
X116023928Y-116639785D01*
X116023928Y-117068357D01*
X115952500Y-117211214D01*
X115881071Y-117282642D01*
X115738214Y-117354071D01*
X115523928Y-117354071D01*
X116595357Y-117282642D02*
X116738214Y-117354071D01*
X117023928Y-117354071D01*
X117166785Y-117282642D01*
X117238214Y-117139785D01*
X117238214Y-117068357D01*
X117166785Y-116925500D01*
X117023928Y-116854071D01*
X116809642Y-116854071D01*
X116666785Y-116782642D01*
X116595357Y-116639785D01*
X116595357Y-116568357D01*
X116666785Y-116425500D01*
X116809642Y-116354071D01*
X117023928Y-116354071D01*
X117166785Y-116425500D01*
X119023928Y-117354071D02*
X119023928Y-115854071D01*
X119381071Y-115854071D01*
X119595357Y-115925500D01*
X119738214Y-116068357D01*
X119809642Y-116211214D01*
X119881071Y-116496928D01*
X119881071Y-116711214D01*
X119809642Y-116996928D01*
X119738214Y-117139785D01*
X119595357Y-117282642D01*
X119381071Y-117354071D01*
X119023928Y-117354071D01*
X121309642Y-117354071D02*
X120452500Y-117354071D01*
X120881071Y-117354071D02*
X120881071Y-115854071D01*
X120738214Y-116068357D01*
X120595357Y-116211214D01*
X120452500Y-116282642D01*
X123095357Y-117354071D02*
X123095357Y-116354071D01*
X123095357Y-116496928D02*
X123166785Y-116425500D01*
X123309642Y-116354071D01*
X123523928Y-116354071D01*
X123666785Y-116425500D01*
X123738214Y-116568357D01*
X123738214Y-117354071D01*
X123738214Y-116568357D02*
X123809642Y-116425500D01*
X123952500Y-116354071D01*
X124166785Y-116354071D01*
X124309642Y-116425500D01*
X124381071Y-116568357D01*
X124381071Y-117354071D01*
X125095357Y-117354071D02*
X125095357Y-116354071D01*
X125095357Y-115854071D02*
X125023928Y-115925500D01*
X125095357Y-115996928D01*
X125166785Y-115925500D01*
X125095357Y-115854071D01*
X125095357Y-115996928D01*
X125809642Y-116354071D02*
X125809642Y-117354071D01*
X125809642Y-116496928D02*
X125881071Y-116425500D01*
X126023928Y-116354071D01*
X126238214Y-116354071D01*
X126381071Y-116425500D01*
X126452500Y-116568357D01*
X126452500Y-117354071D01*
X127166785Y-117354071D02*
X127166785Y-116354071D01*
X127166785Y-115854071D02*
X127095357Y-115925500D01*
X127166785Y-115996928D01*
X127238214Y-115925500D01*
X127166785Y-115854071D01*
X127166785Y-115996928D01*
X110309642Y-119754071D02*
X110309642Y-118254071D01*
X110666785Y-118254071D01*
X110881071Y-118325500D01*
X111023928Y-118468357D01*
X111095357Y-118611214D01*
X111166785Y-118896928D01*
X111166785Y-119111214D01*
X111095357Y-119396928D01*
X111023928Y-119539785D01*
X110881071Y-119682642D01*
X110666785Y-119754071D01*
X110309642Y-119754071D01*
X111809642Y-119754071D02*
X111809642Y-118754071D01*
X111809642Y-118254071D02*
X111738214Y-118325500D01*
X111809642Y-118396928D01*
X111881071Y-118325500D01*
X111809642Y-118254071D01*
X111809642Y-118396928D01*
X112452500Y-119682642D02*
X112595357Y-119754071D01*
X112881071Y-119754071D01*
X113023928Y-119682642D01*
X113095357Y-119539785D01*
X113095357Y-119468357D01*
X113023928Y-119325500D01*
X112881071Y-119254071D01*
X112666785Y-119254071D01*
X112523928Y-119182642D01*
X112452500Y-119039785D01*
X112452500Y-118968357D01*
X112523928Y-118825500D01*
X112666785Y-118754071D01*
X112881071Y-118754071D01*
X113023928Y-118825500D01*
X113523928Y-118754071D02*
X114095357Y-118754071D01*
X113738214Y-118254071D02*
X113738214Y-119539785D01*
X113809642Y-119682642D01*
X113952500Y-119754071D01*
X114095357Y-119754071D01*
X115238214Y-119754071D02*
X115238214Y-118968357D01*
X115166785Y-118825500D01*
X115023928Y-118754071D01*
X114738214Y-118754071D01*
X114595357Y-118825500D01*
X115238214Y-119682642D02*
X115095357Y-119754071D01*
X114738214Y-119754071D01*
X114595357Y-119682642D01*
X114523928Y-119539785D01*
X114523928Y-119396928D01*
X114595357Y-119254071D01*
X114738214Y-119182642D01*
X115095357Y-119182642D01*
X115238214Y-119111214D01*
X115952500Y-118754071D02*
X115952500Y-119754071D01*
X115952500Y-118896928D02*
X116023928Y-118825500D01*
X116166785Y-118754071D01*
X116381071Y-118754071D01*
X116523928Y-118825500D01*
X116595357Y-118968357D01*
X116595357Y-119754071D01*
X117952500Y-119682642D02*
X117809642Y-119754071D01*
X117523928Y-119754071D01*
X117381071Y-119682642D01*
X117309642Y-119611214D01*
X117238214Y-119468357D01*
X117238214Y-119039785D01*
X117309642Y-118896928D01*
X117381071Y-118825500D01*
X117523928Y-118754071D01*
X117809642Y-118754071D01*
X117952500Y-118825500D01*
X119166785Y-119682642D02*
X119023928Y-119754071D01*
X118738214Y-119754071D01*
X118595357Y-119682642D01*
X118523928Y-119539785D01*
X118523928Y-118968357D01*
X118595357Y-118825500D01*
X118738214Y-118754071D01*
X119023928Y-118754071D01*
X119166785Y-118825500D01*
X119238214Y-118968357D01*
X119238214Y-119111214D01*
X118523928Y-119254071D01*
X121023928Y-119754071D02*
X121023928Y-118254071D01*
X121523928Y-119325500D01*
X122023928Y-118254071D01*
X122023928Y-119754071D01*
X123309642Y-119682642D02*
X123166785Y-119754071D01*
X122881071Y-119754071D01*
X122738214Y-119682642D01*
X122666785Y-119539785D01*
X122666785Y-118968357D01*
X122738214Y-118825500D01*
X122881071Y-118754071D01*
X123166785Y-118754071D01*
X123309642Y-118825500D01*
X123381071Y-118968357D01*
X123381071Y-119111214D01*
X122666785Y-119254071D01*
X124666785Y-119754071D02*
X124666785Y-118968357D01*
X124595357Y-118825500D01*
X124452500Y-118754071D01*
X124166785Y-118754071D01*
X124023928Y-118825500D01*
X124666785Y-119682642D02*
X124523928Y-119754071D01*
X124166785Y-119754071D01*
X124023928Y-119682642D01*
X123952500Y-119539785D01*
X123952500Y-119396928D01*
X124023928Y-119254071D01*
X124166785Y-119182642D01*
X124523928Y-119182642D01*
X124666785Y-119111214D01*
X125309642Y-119682642D02*
X125452500Y-119754071D01*
X125738214Y-119754071D01*
X125881071Y-119682642D01*
X125952500Y-119539785D01*
X125952500Y-119468357D01*
X125881071Y-119325500D01*
X125738214Y-119254071D01*
X125523928Y-119254071D01*
X125381071Y-119182642D01*
X125309642Y-119039785D01*
X125309642Y-118968357D01*
X125381071Y-118825500D01*
X125523928Y-118754071D01*
X125738214Y-118754071D01*
X125881071Y-118825500D01*
X127238214Y-118754071D02*
X127238214Y-119754071D01*
X126595357Y-118754071D02*
X126595357Y-119539785D01*
X126666785Y-119682642D01*
X126809642Y-119754071D01*
X127023928Y-119754071D01*
X127166785Y-119682642D01*
X127238214Y-119611214D01*
X127952500Y-119754071D02*
X127952500Y-118754071D01*
X127952500Y-119039785D02*
X128023928Y-118896928D01*
X128095357Y-118825500D01*
X128238214Y-118754071D01*
X128381071Y-118754071D01*
X129452500Y-119682642D02*
X129309642Y-119754071D01*
X129023928Y-119754071D01*
X128881071Y-119682642D01*
X128809642Y-119539785D01*
X128809642Y-118968357D01*
X128881071Y-118825500D01*
X129023928Y-118754071D01*
X129309642Y-118754071D01*
X129452500Y-118825500D01*
X129523928Y-118968357D01*
X129523928Y-119111214D01*
X128809642Y-119254071D01*
X130166785Y-119754071D02*
X130166785Y-118754071D01*
X130166785Y-118896928D02*
X130238214Y-118825500D01*
X130381071Y-118754071D01*
X130595357Y-118754071D01*
X130738214Y-118825500D01*
X130809642Y-118968357D01*
X130809642Y-119754071D01*
X130809642Y-118968357D02*
X130881071Y-118825500D01*
X131023928Y-118754071D01*
X131238214Y-118754071D01*
X131381071Y-118825500D01*
X131452500Y-118968357D01*
X131452500Y-119754071D01*
X132738214Y-119682642D02*
X132595357Y-119754071D01*
X132309642Y-119754071D01*
X132166785Y-119682642D01*
X132095357Y-119539785D01*
X132095357Y-118968357D01*
X132166785Y-118825500D01*
X132309642Y-118754071D01*
X132595357Y-118754071D01*
X132738214Y-118825500D01*
X132809642Y-118968357D01*
X132809642Y-119111214D01*
X132095357Y-119254071D01*
X133452500Y-118754071D02*
X133452500Y-119754071D01*
X133452500Y-118896928D02*
X133523928Y-118825500D01*
X133666785Y-118754071D01*
X133881071Y-118754071D01*
X134023928Y-118825500D01*
X134095357Y-118968357D01*
X134095357Y-119754071D01*
X134595357Y-118754071D02*
X135166785Y-118754071D01*
X134809642Y-118254071D02*
X134809642Y-119539785D01*
X134881071Y-119682642D01*
X135023928Y-119754071D01*
X135166785Y-119754071D01*
X111166785Y-122154071D02*
X110666785Y-121439785D01*
X110309642Y-122154071D02*
X110309642Y-120654071D01*
X110881071Y-120654071D01*
X111023928Y-120725500D01*
X111095357Y-120796928D01*
X111166785Y-120939785D01*
X111166785Y-121154071D01*
X111095357Y-121296928D01*
X111023928Y-121368357D01*
X110881071Y-121439785D01*
X110309642Y-121439785D01*
X112381071Y-122082642D02*
X112238214Y-122154071D01*
X111952500Y-122154071D01*
X111809642Y-122082642D01*
X111738214Y-121939785D01*
X111738214Y-121368357D01*
X111809642Y-121225500D01*
X111952500Y-121154071D01*
X112238214Y-121154071D01*
X112381071Y-121225500D01*
X112452500Y-121368357D01*
X112452500Y-121511214D01*
X111738214Y-121654071D01*
X112952500Y-121154071D02*
X113309642Y-122154071D01*
X113666785Y-121154071D01*
X114238214Y-122011214D02*
X114309642Y-122082642D01*
X114238214Y-122154071D01*
X114166785Y-122082642D01*
X114238214Y-122011214D01*
X114238214Y-122154071D01*
X116381071Y-120654071D02*
X116523928Y-120654071D01*
X116666785Y-120725500D01*
X116738214Y-120796928D01*
X116809642Y-120939785D01*
X116881071Y-121225500D01*
X116881071Y-121582642D01*
X116809642Y-121868357D01*
X116738214Y-122011214D01*
X116666785Y-122082642D01*
X116523928Y-122154071D01*
X116381071Y-122154071D01*
X116238214Y-122082642D01*
X116166785Y-122011214D01*
X116095357Y-121868357D01*
X116023928Y-121582642D01*
X116023928Y-121225500D01*
X116095357Y-120939785D01*
X116166785Y-120796928D01*
X116238214Y-120725500D01*
X116381071Y-120654071D01*
X117452500Y-120796928D02*
X117523928Y-120725500D01*
X117666785Y-120654071D01*
X118023928Y-120654071D01*
X118166785Y-120725500D01*
X118238214Y-120796928D01*
X118309642Y-120939785D01*
X118309642Y-121082642D01*
X118238214Y-121296928D01*
X117381071Y-122154071D01*
X118309642Y-122154071D01*
X110309642Y-123768357D02*
X110809642Y-123768357D01*
X111023928Y-124554071D02*
X110309642Y-124554071D01*
X110309642Y-123054071D01*
X111023928Y-123054071D01*
X111666785Y-124554071D02*
X111666785Y-123554071D01*
X111666785Y-123696928D02*
X111738214Y-123625500D01*
X111881071Y-123554071D01*
X112095357Y-123554071D01*
X112238214Y-123625500D01*
X112309642Y-123768357D01*
X112309642Y-124554071D01*
X112309642Y-123768357D02*
X112381071Y-123625500D01*
X112523928Y-123554071D01*
X112738214Y-123554071D01*
X112881071Y-123625500D01*
X112952500Y-123768357D01*
X112952500Y-124554071D01*
X113666785Y-124554071D02*
X113666785Y-123554071D01*
X113666785Y-123054071D02*
X113595357Y-123125500D01*
X113666785Y-123196928D01*
X113738214Y-123125500D01*
X113666785Y-123054071D01*
X113666785Y-123196928D01*
X114595357Y-124554071D02*
X114452500Y-124482642D01*
X114381071Y-124339785D01*
X114381071Y-123054071D01*
X115166785Y-124554071D02*
X115166785Y-123554071D01*
X115166785Y-123054071D02*
X115095357Y-123125500D01*
X115166785Y-123196928D01*
X115238214Y-123125500D01*
X115166785Y-123054071D01*
X115166785Y-123196928D01*
X116523928Y-124554071D02*
X116523928Y-123768357D01*
X116452500Y-123625500D01*
X116309642Y-123554071D01*
X116023928Y-123554071D01*
X115881071Y-123625500D01*
X116523928Y-124482642D02*
X116381071Y-124554071D01*
X116023928Y-124554071D01*
X115881071Y-124482642D01*
X115809642Y-124339785D01*
X115809642Y-124196928D01*
X115881071Y-124054071D01*
X116023928Y-123982642D01*
X116381071Y-123982642D01*
X116523928Y-123911214D01*
X119595357Y-124554071D02*
X119523928Y-124554071D01*
X119381071Y-124482642D01*
X119166785Y-124268357D01*
X118809642Y-123839785D01*
X118666785Y-123625500D01*
X118595357Y-123411214D01*
X118595357Y-123268357D01*
X118666785Y-123125500D01*
X118809642Y-123054071D01*
X118881071Y-123054071D01*
X119023928Y-123125500D01*
X119095357Y-123268357D01*
X119095357Y-123339785D01*
X119023928Y-123482642D01*
X118952500Y-123554071D01*
X118523928Y-123839785D01*
X118452500Y-123911214D01*
X118381071Y-124054071D01*
X118381071Y-124268357D01*
X118452500Y-124411214D01*
X118523928Y-124482642D01*
X118666785Y-124554071D01*
X118881071Y-124554071D01*
X119023928Y-124482642D01*
X119095357Y-124411214D01*
X119309642Y-124125500D01*
X119381071Y-123911214D01*
X119381071Y-123768357D01*
X121381071Y-124554071D02*
X121381071Y-123054071D01*
X121952500Y-123054071D01*
X122095357Y-123125500D01*
X122166785Y-123196928D01*
X122238214Y-123339785D01*
X122238214Y-123554071D01*
X122166785Y-123696928D01*
X122095357Y-123768357D01*
X121952500Y-123839785D01*
X121381071Y-123839785D01*
X123523928Y-124554071D02*
X123523928Y-123768357D01*
X123452500Y-123625500D01*
X123309642Y-123554071D01*
X123023928Y-123554071D01*
X122881071Y-123625500D01*
X123523928Y-124482642D02*
X123381071Y-124554071D01*
X123023928Y-124554071D01*
X122881071Y-124482642D01*
X122809642Y-124339785D01*
X122809642Y-124196928D01*
X122881071Y-124054071D01*
X123023928Y-123982642D01*
X123381071Y-123982642D01*
X123523928Y-123911214D01*
X124238214Y-123554071D02*
X124238214Y-125054071D01*
X124238214Y-123625500D02*
X124381071Y-123554071D01*
X124666785Y-123554071D01*
X124809642Y-123625500D01*
X124881071Y-123696928D01*
X124952500Y-123839785D01*
X124952500Y-124268357D01*
X124881071Y-124411214D01*
X124809642Y-124482642D01*
X124666785Y-124554071D01*
X124381071Y-124554071D01*
X124238214Y-124482642D01*
X126238214Y-124554071D02*
X126238214Y-123768357D01*
X126166785Y-123625500D01*
X126023928Y-123554071D01*
X125738214Y-123554071D01*
X125595357Y-123625500D01*
X126238214Y-124482642D02*
X126095357Y-124554071D01*
X125738214Y-124554071D01*
X125595357Y-124482642D01*
X125523928Y-124339785D01*
X125523928Y-124196928D01*
X125595357Y-124054071D01*
X125738214Y-123982642D01*
X126095357Y-123982642D01*
X126238214Y-123911214D01*
X110952500Y-126882642D02*
X110809642Y-126954071D01*
X110523928Y-126954071D01*
X110381071Y-126882642D01*
X110309642Y-126811214D01*
X110238214Y-126668357D01*
X110238214Y-126239785D01*
X110309642Y-126096928D01*
X110381071Y-126025500D01*
X110523928Y-125954071D01*
X110809642Y-125954071D01*
X110952500Y-126025500D01*
X111809642Y-126954071D02*
X111666785Y-126882642D01*
X111595357Y-126811214D01*
X111523928Y-126668357D01*
X111523928Y-126239785D01*
X111595357Y-126096928D01*
X111666785Y-126025500D01*
X111809642Y-125954071D01*
X112023928Y-125954071D01*
X112166785Y-126025500D01*
X112238214Y-126096928D01*
X112309642Y-126239785D01*
X112309642Y-126668357D01*
X112238214Y-126811214D01*
X112166785Y-126882642D01*
X112023928Y-126954071D01*
X111809642Y-126954071D01*
X112952500Y-125954071D02*
X112952500Y-127454071D01*
X112952500Y-126025500D02*
X113095357Y-125954071D01*
X113381071Y-125954071D01*
X113523928Y-126025500D01*
X113595357Y-126096928D01*
X113666785Y-126239785D01*
X113666785Y-126668357D01*
X113595357Y-126811214D01*
X113523928Y-126882642D01*
X113381071Y-126954071D01*
X113095357Y-126954071D01*
X112952500Y-126882642D01*
X114166785Y-125954071D02*
X114523928Y-126954071D01*
X114881071Y-125954071D02*
X114523928Y-126954071D01*
X114381071Y-127311214D01*
X114309642Y-127382642D01*
X114166785Y-127454071D01*
X115452500Y-126954071D02*
X115452500Y-125954071D01*
X115452500Y-126239785D02*
X115523928Y-126096928D01*
X115595357Y-126025500D01*
X115738214Y-125954071D01*
X115881071Y-125954071D01*
X116381071Y-126954071D02*
X116381071Y-125954071D01*
X116381071Y-125454071D02*
X116309642Y-125525500D01*
X116381071Y-125596928D01*
X116452500Y-125525500D01*
X116381071Y-125454071D01*
X116381071Y-125596928D01*
X117738214Y-125954071D02*
X117738214Y-127168357D01*
X117666785Y-127311214D01*
X117595357Y-127382642D01*
X117452500Y-127454071D01*
X117238214Y-127454071D01*
X117095357Y-127382642D01*
X117738214Y-126882642D02*
X117595357Y-126954071D01*
X117309642Y-126954071D01*
X117166785Y-126882642D01*
X117095357Y-126811214D01*
X117023928Y-126668357D01*
X117023928Y-126239785D01*
X117095357Y-126096928D01*
X117166785Y-126025500D01*
X117309642Y-125954071D01*
X117595357Y-125954071D01*
X117738214Y-126025500D01*
X118452500Y-126954071D02*
X118452500Y-125454071D01*
X119095357Y-126954071D02*
X119095357Y-126168357D01*
X119023928Y-126025500D01*
X118881071Y-125954071D01*
X118666785Y-125954071D01*
X118523928Y-126025500D01*
X118452500Y-126096928D01*
X119595357Y-125954071D02*
X120166785Y-125954071D01*
X119809642Y-125454071D02*
X119809642Y-126739785D01*
X119881071Y-126882642D01*
X120023928Y-126954071D01*
X120166785Y-126954071D01*
X121738214Y-125596928D02*
X121809642Y-125525500D01*
X121952500Y-125454071D01*
X122309642Y-125454071D01*
X122452500Y-125525500D01*
X122523928Y-125596928D01*
X122595357Y-125739785D01*
X122595357Y-125882642D01*
X122523928Y-126096928D01*
X121666785Y-126954071D01*
X122595357Y-126954071D01*
X123523928Y-125454071D02*
X123666785Y-125454071D01*
X123809642Y-125525500D01*
X123881071Y-125596928D01*
X123952500Y-125739785D01*
X124023928Y-126025500D01*
X124023928Y-126382642D01*
X123952500Y-126668357D01*
X123881071Y-126811214D01*
X123809642Y-126882642D01*
X123666785Y-126954071D01*
X123523928Y-126954071D01*
X123381071Y-126882642D01*
X123309642Y-126811214D01*
X123238214Y-126668357D01*
X123166785Y-126382642D01*
X123166785Y-126025500D01*
X123238214Y-125739785D01*
X123309642Y-125596928D01*
X123381071Y-125525500D01*
X123523928Y-125454071D01*
X124595357Y-125596928D02*
X124666785Y-125525500D01*
X124809642Y-125454071D01*
X125166785Y-125454071D01*
X125309642Y-125525500D01*
X125381071Y-125596928D01*
X125452500Y-125739785D01*
X125452500Y-125882642D01*
X125381071Y-126096928D01*
X124523928Y-126954071D01*
X125452500Y-126954071D01*
X126881071Y-126954071D02*
X126023928Y-126954071D01*
X126452500Y-126954071D02*
X126452500Y-125454071D01*
X126309642Y-125668357D01*
X126166785Y-125811214D01*
X126023928Y-125882642D01*
X107164380Y-101528571D02*
X107497714Y-101528571D01*
X107640571Y-102052380D02*
X107164380Y-102052380D01*
X107164380Y-101052380D01*
X107640571Y-101052380D01*
X108497714Y-102004761D02*
X108402476Y-102052380D01*
X108212000Y-102052380D01*
X108116761Y-102004761D01*
X108069142Y-101957142D01*
X108021523Y-101861904D01*
X108021523Y-101576190D01*
X108069142Y-101480952D01*
X108116761Y-101433333D01*
X108212000Y-101385714D01*
X108402476Y-101385714D01*
X108497714Y-101433333D01*
X108926285Y-102052380D02*
X108926285Y-101052380D01*
X109354857Y-102052380D02*
X109354857Y-101528571D01*
X109307238Y-101433333D01*
X109212000Y-101385714D01*
X109069142Y-101385714D01*
X108973904Y-101433333D01*
X108926285Y-101480952D01*
X109973904Y-102052380D02*
X109878666Y-102004761D01*
X109831047Y-101957142D01*
X109783428Y-101861904D01*
X109783428Y-101576190D01*
X109831047Y-101480952D01*
X109878666Y-101433333D01*
X109973904Y-101385714D01*
X110116761Y-101385714D01*
X110212000Y-101433333D01*
X110259619Y-101480952D01*
X110307238Y-101576190D01*
X110307238Y-101861904D01*
X110259619Y-101957142D01*
X110212000Y-102004761D01*
X110116761Y-102052380D01*
X109973904Y-102052380D01*
X107172285Y-98512380D02*
X107743714Y-98512380D01*
X107458000Y-99512380D02*
X107458000Y-98512380D01*
X108077047Y-99512380D02*
X108077047Y-98845714D01*
X108077047Y-99036190D02*
X108124666Y-98940952D01*
X108172285Y-98893333D01*
X108267523Y-98845714D01*
X108362761Y-98845714D01*
X108696095Y-99512380D02*
X108696095Y-98845714D01*
X108696095Y-98512380D02*
X108648476Y-98560000D01*
X108696095Y-98607619D01*
X108743714Y-98560000D01*
X108696095Y-98512380D01*
X108696095Y-98607619D01*
X109600857Y-98845714D02*
X109600857Y-99655238D01*
X109553238Y-99750476D01*
X109505619Y-99798095D01*
X109410380Y-99845714D01*
X109267523Y-99845714D01*
X109172285Y-99798095D01*
X109600857Y-99464761D02*
X109505619Y-99512380D01*
X109315142Y-99512380D01*
X109219904Y-99464761D01*
X109172285Y-99417142D01*
X109124666Y-99321904D01*
X109124666Y-99036190D01*
X109172285Y-98940952D01*
X109219904Y-98893333D01*
X109315142Y-98845714D01*
X109505619Y-98845714D01*
X109600857Y-98893333D01*
X107696095Y-103513000D02*
X107600857Y-103465380D01*
X107458000Y-103465380D01*
X107315142Y-103513000D01*
X107219904Y-103608238D01*
X107172285Y-103703476D01*
X107124666Y-103893952D01*
X107124666Y-104036809D01*
X107172285Y-104227285D01*
X107219904Y-104322523D01*
X107315142Y-104417761D01*
X107458000Y-104465380D01*
X107553238Y-104465380D01*
X107696095Y-104417761D01*
X107743714Y-104370142D01*
X107743714Y-104036809D01*
X107553238Y-104036809D01*
X108172285Y-104465380D02*
X108172285Y-103465380D01*
X108743714Y-104465380D01*
X108743714Y-103465380D01*
X109219904Y-104465380D02*
X109219904Y-103465380D01*
X109458000Y-103465380D01*
X109600857Y-103513000D01*
X109696095Y-103608238D01*
X109743714Y-103703476D01*
X109791333Y-103893952D01*
X109791333Y-104036809D01*
X109743714Y-104227285D01*
X109696095Y-104322523D01*
X109600857Y-104417761D01*
X109458000Y-104465380D01*
X109219904Y-104465380D01*
X107140523Y-95845380D02*
X107473857Y-96845380D01*
X107807190Y-95845380D01*
X108569095Y-96797761D02*
X108473857Y-96845380D01*
X108283380Y-96845380D01*
X108188142Y-96797761D01*
X108140523Y-96750142D01*
X108092904Y-96654904D01*
X108092904Y-96369190D01*
X108140523Y-96273952D01*
X108188142Y-96226333D01*
X108283380Y-96178714D01*
X108473857Y-96178714D01*
X108569095Y-96226333D01*
X109426238Y-96797761D02*
X109331000Y-96845380D01*
X109140523Y-96845380D01*
X109045285Y-96797761D01*
X108997666Y-96750142D01*
X108950047Y-96654904D01*
X108950047Y-96369190D01*
X108997666Y-96273952D01*
X109045285Y-96226333D01*
X109140523Y-96178714D01*
X109331000Y-96178714D01*
X109426238Y-96226333D01*
X170590785Y-120912000D02*
X170495547Y-120864380D01*
X170352690Y-120864380D01*
X170209833Y-120912000D01*
X170114595Y-121007238D01*
X170066976Y-121102476D01*
X170019357Y-121292952D01*
X170019357Y-121435809D01*
X170066976Y-121626285D01*
X170114595Y-121721523D01*
X170209833Y-121816761D01*
X170352690Y-121864380D01*
X170447928Y-121864380D01*
X170590785Y-121816761D01*
X170638404Y-121769142D01*
X170638404Y-121435809D01*
X170447928Y-121435809D01*
X171066976Y-121864380D02*
X171066976Y-120864380D01*
X171638404Y-121864380D01*
X171638404Y-120864380D01*
X172114595Y-121864380D02*
X172114595Y-120864380D01*
X172352690Y-120864380D01*
X172495547Y-120912000D01*
X172590785Y-121007238D01*
X172638404Y-121102476D01*
X172686023Y-121292952D01*
X172686023Y-121435809D01*
X172638404Y-121626285D01*
X172590785Y-121721523D01*
X172495547Y-121816761D01*
X172352690Y-121864380D01*
X172114595Y-121864380D01*
X172130500Y-123960428D02*
X172892404Y-123960428D01*
X172511452Y-124341380D02*
X172511452Y-123579476D01*
X164511452Y-125991380D02*
X164511452Y-125324714D01*
X164511452Y-125419952D02*
X164559071Y-125372333D01*
X164654309Y-125324714D01*
X164797166Y-125324714D01*
X164892404Y-125372333D01*
X164940023Y-125467571D01*
X164940023Y-125991380D01*
X164940023Y-125467571D02*
X164987642Y-125372333D01*
X165082880Y-125324714D01*
X165225738Y-125324714D01*
X165320976Y-125372333D01*
X165368595Y-125467571D01*
X165368595Y-125991380D01*
X166273357Y-125991380D02*
X166273357Y-125467571D01*
X166225738Y-125372333D01*
X166130500Y-125324714D01*
X165940023Y-125324714D01*
X165844785Y-125372333D01*
X166273357Y-125943761D02*
X166178119Y-125991380D01*
X165940023Y-125991380D01*
X165844785Y-125943761D01*
X165797166Y-125848523D01*
X165797166Y-125753285D01*
X165844785Y-125658047D01*
X165940023Y-125610428D01*
X166178119Y-125610428D01*
X166273357Y-125562809D01*
X166654309Y-125991380D02*
X167178119Y-125324714D01*
X166654309Y-125324714D02*
X167178119Y-125991380D01*
X167559071Y-125896142D02*
X167606690Y-125943761D01*
X167559071Y-125991380D01*
X167511452Y-125943761D01*
X167559071Y-125896142D01*
X167559071Y-125991380D01*
X169273357Y-124991380D02*
X168797166Y-124991380D01*
X168749547Y-125467571D01*
X168797166Y-125419952D01*
X168892404Y-125372333D01*
X169130500Y-125372333D01*
X169225738Y-125419952D01*
X169273357Y-125467571D01*
X169320976Y-125562809D01*
X169320976Y-125800904D01*
X169273357Y-125896142D01*
X169225738Y-125943761D01*
X169130500Y-125991380D01*
X168892404Y-125991380D01*
X168797166Y-125943761D01*
X168749547Y-125896142D01*
X169606690Y-124991380D02*
X169940023Y-125991380D01*
X170273357Y-124991380D01*
X171368595Y-125991380D02*
X171368595Y-124991380D01*
X171606690Y-124991380D01*
X171749547Y-125039000D01*
X171844785Y-125134238D01*
X171892404Y-125229476D01*
X171940023Y-125419952D01*
X171940023Y-125562809D01*
X171892404Y-125753285D01*
X171844785Y-125848523D01*
X171749547Y-125943761D01*
X171606690Y-125991380D01*
X171368595Y-125991380D01*
X172940023Y-125896142D02*
X172892404Y-125943761D01*
X172749547Y-125991380D01*
X172654309Y-125991380D01*
X172511452Y-125943761D01*
X172416214Y-125848523D01*
X172368595Y-125753285D01*
X172320976Y-125562809D01*
X172320976Y-125419952D01*
X172368595Y-125229476D01*
X172416214Y-125134238D01*
X172511452Y-125039000D01*
X172654309Y-124991380D01*
X172749547Y-124991380D01*
X172892404Y-125039000D01*
X172940023Y-125086619D01*
D11*
%TO.C,U1*%
X160171000Y-105834000D02*
X160171000Y-112734000D01*
X157631000Y-105834000D02*
X160171000Y-105834000D01*
D10*
G36*
X156591000Y-85979000D02*
G01*
X156591000Y-87249000D01*
X157226000Y-86614000D01*
X156591000Y-85979000D01*
G37*
X156591000Y-85979000D02*
X156591000Y-87249000D01*
X157226000Y-86614000D01*
X156591000Y-85979000D01*
D11*
X181371000Y-78274000D02*
X159761000Y-78274000D01*
X183491000Y-112734000D02*
X183491000Y-80404000D01*
X157631000Y-105834000D02*
X157631000Y-80404000D01*
X160171000Y-112734000D02*
X183491000Y-112734000D01*
X181361000Y-78274000D02*
G75*
G02*
X183491000Y-80404000I0J-2130000D01*
G01*
X157631000Y-80404000D02*
G75*
G02*
X159761000Y-78274000I2130000J0D01*
G01*
%TO.C,R2*%
X122960000Y-88138000D02*
X123730000Y-88138000D01*
X131040000Y-88138000D02*
X130270000Y-88138000D01*
X123730000Y-89508000D02*
X130270000Y-89508000D01*
X123730000Y-86768000D02*
X123730000Y-89508000D01*
X130270000Y-86768000D02*
X123730000Y-86768000D01*
X130270000Y-89508000D02*
X130270000Y-86768000D01*
D12*
%TO.C,LS1*%
X148894000Y-116038000D02*
G75*
G03*
X148894000Y-116038000I-6400000J0D01*
G01*
D11*
%TO.C,Q1*%
X128088000Y-110893000D02*
X128088000Y-107293000D01*
X127360795Y-106768816D02*
G75*
G02*
X128088000Y-107293000I-1122795J-2324184D01*
G01*
X125139193Y-106736600D02*
G75*
G03*
X123638000Y-109093000I1098807J-2356400D01*
G01*
X125139193Y-111449400D02*
G75*
G02*
X123638000Y-109093000I1098807J2356400D01*
G01*
X127360795Y-111417184D02*
G75*
G03*
X128088000Y-110893000I-1122795J2324184D01*
G01*
%TO.C,D1*%
X114872000Y-89444000D02*
X115028000Y-89444000D01*
X112556000Y-89444000D02*
X112712000Y-89444000D01*
X114871837Y-86842870D02*
G75*
G02*
X114872000Y-88924961I-1079837J-1041130D01*
G01*
X112712163Y-86842870D02*
G75*
G03*
X112712000Y-88924961I1079837J-1041130D01*
G01*
X114870608Y-86211665D02*
G75*
G02*
X115027516Y-89444000I-1078608J-1672335D01*
G01*
X112713392Y-86211665D02*
G75*
G03*
X112556484Y-89444000I1078608J-1672335D01*
G01*
%TO.C,J1*%
X104902000Y-105343000D02*
X103572000Y-105343000D01*
X103572000Y-105343000D02*
X103572000Y-104013000D01*
X103572000Y-102743000D02*
X103572000Y-95063000D01*
X106232000Y-95063000D02*
X103572000Y-95063000D01*
X106232000Y-102743000D02*
X106232000Y-95063000D01*
X106232000Y-102743000D02*
X103572000Y-102743000D01*
%TO.C,J2*%
X180311000Y-126133000D02*
X180311000Y-125633000D01*
X179571000Y-126133000D02*
X180311000Y-126133000D01*
X173751000Y-120233000D02*
X180071000Y-120233000D01*
X173751000Y-125893000D02*
X180071000Y-125893000D01*
X180071000Y-121003000D02*
X180071000Y-120233000D01*
X180071000Y-123543000D02*
X180071000Y-122583000D01*
X180071000Y-125893000D02*
X180071000Y-125123000D01*
X173751000Y-125893000D02*
X173751000Y-120233000D01*
X174211000Y-125893000D02*
X174211000Y-120233000D01*
X179511000Y-121003000D02*
X179511000Y-120233000D01*
X179511000Y-123543000D02*
X179511000Y-122583000D01*
X179511000Y-125893000D02*
X179511000Y-125123000D01*
%TO.C,R1*%
X131167000Y-80137000D02*
X130397000Y-80137000D01*
X123087000Y-80137000D02*
X123857000Y-80137000D01*
X130397000Y-78767000D02*
X123857000Y-78767000D01*
X130397000Y-81507000D02*
X130397000Y-78767000D01*
X123857000Y-81507000D02*
X130397000Y-81507000D01*
X123857000Y-78767000D02*
X123857000Y-81507000D01*
%TO.C,U1*%
D10*
X180369095Y-113066380D02*
X180369095Y-113875904D01*
X180416714Y-113971142D01*
X180464333Y-114018761D01*
X180559571Y-114066380D01*
X180750047Y-114066380D01*
X180845285Y-114018761D01*
X180892904Y-113971142D01*
X180940523Y-113875904D01*
X180940523Y-113066380D01*
X181940523Y-114066380D02*
X181369095Y-114066380D01*
X181654809Y-114066380D02*
X181654809Y-113066380D01*
X181559571Y-113209238D01*
X181464333Y-113304476D01*
X181369095Y-113352095D01*
%TO.C,R2*%
X126833333Y-90960380D02*
X126500000Y-90484190D01*
X126261904Y-90960380D02*
X126261904Y-89960380D01*
X126642857Y-89960380D01*
X126738095Y-90008000D01*
X126785714Y-90055619D01*
X126833333Y-90150857D01*
X126833333Y-90293714D01*
X126785714Y-90388952D01*
X126738095Y-90436571D01*
X126642857Y-90484190D01*
X126261904Y-90484190D01*
X127214285Y-90055619D02*
X127261904Y-90008000D01*
X127357142Y-89960380D01*
X127595238Y-89960380D01*
X127690476Y-90008000D01*
X127738095Y-90055619D01*
X127785714Y-90150857D01*
X127785714Y-90246095D01*
X127738095Y-90388952D01*
X127166666Y-90960380D01*
X127785714Y-90960380D01*
%TO.C,LS1*%
X141926142Y-109240380D02*
X141449952Y-109240380D01*
X141449952Y-108240380D01*
X142211857Y-109192761D02*
X142354714Y-109240380D01*
X142592809Y-109240380D01*
X142688047Y-109192761D01*
X142735666Y-109145142D01*
X142783285Y-109049904D01*
X142783285Y-108954666D01*
X142735666Y-108859428D01*
X142688047Y-108811809D01*
X142592809Y-108764190D01*
X142402333Y-108716571D01*
X142307095Y-108668952D01*
X142259476Y-108621333D01*
X142211857Y-108526095D01*
X142211857Y-108430857D01*
X142259476Y-108335619D01*
X142307095Y-108288000D01*
X142402333Y-108240380D01*
X142640428Y-108240380D01*
X142783285Y-108288000D01*
X143735666Y-109240380D02*
X143164238Y-109240380D01*
X143449952Y-109240380D02*
X143449952Y-108240380D01*
X143354714Y-108383238D01*
X143259476Y-108478476D01*
X143164238Y-108526095D01*
%TO.C,Q1*%
X123225619Y-109188238D02*
X123178000Y-109283476D01*
X123082761Y-109378714D01*
X122939904Y-109521571D01*
X122892285Y-109616809D01*
X122892285Y-109712047D01*
X123130380Y-109664428D02*
X123082761Y-109759666D01*
X122987523Y-109854904D01*
X122797047Y-109902523D01*
X122463714Y-109902523D01*
X122273238Y-109854904D01*
X122178000Y-109759666D01*
X122130380Y-109664428D01*
X122130380Y-109473952D01*
X122178000Y-109378714D01*
X122273238Y-109283476D01*
X122463714Y-109235857D01*
X122797047Y-109235857D01*
X122987523Y-109283476D01*
X123082761Y-109378714D01*
X123130380Y-109473952D01*
X123130380Y-109664428D01*
X123130380Y-108283476D02*
X123130380Y-108854904D01*
X123130380Y-108569190D02*
X122130380Y-108569190D01*
X122273238Y-108664428D01*
X122368476Y-108759666D01*
X122416095Y-108854904D01*
%TO.C,D1*%
X111284380Y-88622095D02*
X110284380Y-88622095D01*
X110284380Y-88384000D01*
X110332000Y-88241142D01*
X110427238Y-88145904D01*
X110522476Y-88098285D01*
X110712952Y-88050666D01*
X110855809Y-88050666D01*
X111046285Y-88098285D01*
X111141523Y-88145904D01*
X111236761Y-88241142D01*
X111284380Y-88384000D01*
X111284380Y-88622095D01*
X111284380Y-87098285D02*
X111284380Y-87669714D01*
X111284380Y-87384000D02*
X110284380Y-87384000D01*
X110427238Y-87479238D01*
X110522476Y-87574476D01*
X110570095Y-87669714D01*
%TO.C,J1*%
X104568666Y-106235380D02*
X104568666Y-106949666D01*
X104521047Y-107092523D01*
X104425809Y-107187761D01*
X104282952Y-107235380D01*
X104187714Y-107235380D01*
X105568666Y-107235380D02*
X104997238Y-107235380D01*
X105282952Y-107235380D02*
X105282952Y-106235380D01*
X105187714Y-106378238D01*
X105092476Y-106473476D01*
X104997238Y-106521095D01*
%TO.C,R1*%
X126960333Y-78219380D02*
X126627000Y-77743190D01*
X126388904Y-78219380D02*
X126388904Y-77219380D01*
X126769857Y-77219380D01*
X126865095Y-77267000D01*
X126912714Y-77314619D01*
X126960333Y-77409857D01*
X126960333Y-77552714D01*
X126912714Y-77647952D01*
X126865095Y-77695571D01*
X126769857Y-77743190D01*
X126388904Y-77743190D01*
X127912714Y-78219380D02*
X127341285Y-78219380D01*
X127627000Y-78219380D02*
X127627000Y-77219380D01*
X127531761Y-77362238D01*
X127436523Y-77457476D01*
X127341285Y-77505095D01*
%TD*%
M02*
