M48
; DRILL file {KiCad (5.1.10-1-10_14)} date Sunday, October 17, 2021 at 08:06:40 PM
; FORMAT={-:-/ absolute / inch / decimal}
; #@! TF.CreationDate,2021-10-17T20:06:40+02:00
; #@! TF.GenerationSoftware,Kicad,Pcbnew,(5.1.10-1-10_14)
; #@! TF.FileFunction,Plated,1,2,PTH
FMAT,2
INCH
T1C0.0315
T2C0.0335
T3C0.0354
T4C0.0394
T5C0.0433
%
G90
G05
T1
X4.795Y-3.14
X4.8Y-3.47
X4.97Y-4.195
X4.97Y-4.295
X4.97Y-4.395
X5.195Y-3.14
X5.2Y-3.47
T2
X5.61Y-4.47
X5.61Y-4.6669
T3
X4.48Y-3.41
X4.48Y-3.51
T4
X4.11Y-3.81
X4.11Y-3.91
X4.11Y-4.01
X4.11Y-4.11
X6.265Y-3.41
X6.265Y-3.51
X6.265Y-3.61
X6.265Y-3.71
X6.265Y-3.81
X6.265Y-3.91
X6.265Y-4.01
X6.265Y-4.11
X7.165Y-3.41
X7.165Y-3.51
X7.165Y-3.61
X7.165Y-3.71
X7.165Y-3.81
X7.165Y-3.91
X7.165Y-4.01
X7.165Y-4.11
T5
X6.965Y-4.795
X6.965Y-4.895
T0
M30
