%TF.GenerationSoftware,KiCad,Pcbnew,(5.1.10-1-10_14)*%
%TF.CreationDate,2021-10-17T20:06:43+02:00*%
%TF.ProjectId,Distance_Measurement,44697374-616e-4636-955f-4d6561737572,01*%
%TF.SameCoordinates,Original*%
%TF.FileFunction,Copper,L1,Top*%
%TF.FilePolarity,Positive*%
%FSLAX46Y46*%
G04 Gerber Fmt 4.6, Leading zero omitted, Abs format (unit mm)*
G04 Created by KiCad (PCBNEW (5.1.10-1-10_14)) date 2021-10-17 20:06:43*
%MOMM*%
%LPD*%
G01*
G04 APERTURE LIST*
%TA.AperFunction,ComponentPad*%
%ADD10O,2.000000X1.600000*%
%TD*%
%TA.AperFunction,ComponentPad*%
%ADD11R,2.000000X2.000000*%
%TD*%
%TA.AperFunction,ComponentPad*%
%ADD12O,1.600000X1.600000*%
%TD*%
%TA.AperFunction,ComponentPad*%
%ADD13C,1.600000*%
%TD*%
%TA.AperFunction,ComponentPad*%
%ADD14C,1.850000*%
%TD*%
%TA.AperFunction,ComponentPad*%
%ADD15R,1.850000X1.850000*%
%TD*%
%TA.AperFunction,ComponentPad*%
%ADD16R,1.500000X1.500000*%
%TD*%
%TA.AperFunction,ComponentPad*%
%ADD17C,1.500000*%
%TD*%
%TA.AperFunction,ComponentPad*%
%ADD18C,1.800000*%
%TD*%
%TA.AperFunction,ComponentPad*%
%ADD19R,1.800000X1.800000*%
%TD*%
%TA.AperFunction,ComponentPad*%
%ADD20O,1.700000X1.700000*%
%TD*%
%TA.AperFunction,ComponentPad*%
%ADD21R,1.700000X1.700000*%
%TD*%
%TA.AperFunction,ComponentPad*%
%ADD22C,2.200000*%
%TD*%
%TA.AperFunction,ComponentPad*%
%ADD23R,2.200000X2.200000*%
%TD*%
%TA.AperFunction,Conductor*%
%ADD24C,0.250000*%
%TD*%
%TA.AperFunction,Conductor*%
%ADD25C,0.254000*%
%TD*%
%TA.AperFunction,Conductor*%
%ADD26C,0.100000*%
%TD*%
G04 APERTURE END LIST*
D10*
%TO.P,U1,16*%
%TO.N,N/C*%
X181991000Y-86614000D03*
%TO.P,U1,15*%
X181991000Y-89154000D03*
%TO.P,U1,14*%
%TO.N,Net-(R1-Pad1)*%
X181991000Y-91694000D03*
%TO.P,U1,13*%
%TO.N,N/C*%
X181991000Y-94234000D03*
%TO.P,U1,12*%
%TO.N,Net-(R2-Pad1)*%
X181991000Y-96774000D03*
%TO.P,U1,11*%
%TO.N,N/C*%
X181991000Y-99314000D03*
%TO.P,U1,10*%
%TO.N,GND*%
X181991000Y-101854000D03*
%TO.P,U1,9*%
%TO.N,+5V*%
X181991000Y-104394000D03*
%TO.P,U1,8*%
%TO.N,N/C*%
X159131000Y-104394000D03*
%TO.P,U1,7*%
X159131000Y-101854000D03*
%TO.P,U1,6*%
%TO.N,Net-(J1-Pad3)*%
X159131000Y-99314000D03*
%TO.P,U1,5*%
%TO.N,Net-(J1-Pad2)*%
X159131000Y-96774000D03*
%TO.P,U1,4*%
%TO.N,N/C*%
X159131000Y-94234000D03*
%TO.P,U1,3*%
X159131000Y-91694000D03*
D11*
%TO.P,U1,1*%
X159131000Y-86614000D03*
D10*
%TO.P,U1,2*%
X159131000Y-89154000D03*
%TD*%
D12*
%TO.P,R2,2*%
%TO.N,Net-(Q1-Pad2)*%
X121920000Y-88138000D03*
D13*
%TO.P,R2,1*%
%TO.N,Net-(R2-Pad1)*%
X132080000Y-88138000D03*
%TD*%
D14*
%TO.P,LS1,2*%
%TO.N,Net-(D1-Pad1)*%
X142494000Y-118538000D03*
D15*
%TO.P,LS1,1*%
%TO.N,Net-(LS1-Pad1)*%
X142494000Y-113538000D03*
%TD*%
D16*
%TO.P,Q1,1*%
%TO.N,Net-(D1-Pad1)*%
X126238000Y-111633000D03*
D17*
%TO.P,Q1,3*%
%TO.N,Net-(LS1-Pad1)*%
X126238000Y-106553000D03*
%TO.P,Q1,2*%
%TO.N,Net-(Q1-Pad2)*%
X126238000Y-109093000D03*
%TD*%
D18*
%TO.P,D1,2*%
%TO.N,Net-(D1-Pad2)*%
X113792000Y-86614000D03*
D19*
%TO.P,D1,1*%
%TO.N,Net-(D1-Pad1)*%
X113792000Y-89154000D03*
%TD*%
D20*
%TO.P,J1,4*%
%TO.N,+5V*%
X104394000Y-104394000D03*
%TO.P,J1,3*%
%TO.N,Net-(J1-Pad3)*%
X104394000Y-101854000D03*
%TO.P,J1,2*%
%TO.N,Net-(J1-Pad2)*%
X104394000Y-99314000D03*
D21*
%TO.P,J1,1*%
%TO.N,GND*%
X104394000Y-96774000D03*
%TD*%
D22*
%TO.P,J2,2*%
%TO.N,GND*%
X176911000Y-121793000D03*
D23*
%TO.P,J2,1*%
%TO.N,+5V*%
X176911000Y-124333000D03*
%TD*%
D12*
%TO.P,R1,2*%
%TO.N,Net-(D1-Pad2)*%
X121793000Y-79756000D03*
D13*
%TO.P,R1,1*%
%TO.N,Net-(R1-Pad1)*%
X131953000Y-79756000D03*
%TD*%
D24*
%TO.N,Net-(D1-Pad2)*%
X120650000Y-79756000D02*
X121793000Y-79756000D01*
X113792000Y-86614000D02*
X120650000Y-79756000D01*
%TO.N,Net-(D1-Pad1)*%
X133143000Y-118538000D02*
X126238000Y-111633000D01*
X142494000Y-118538000D02*
X133143000Y-118538000D01*
X113901001Y-89263001D02*
X113792000Y-89154000D01*
X123045001Y-88678001D02*
X122460001Y-89263001D01*
X123045001Y-79342999D02*
X123045001Y-88678001D01*
X119615589Y-78630999D02*
X122333001Y-78630999D01*
X122333001Y-78630999D02*
X123045001Y-79342999D01*
X102768990Y-95477598D02*
X119615589Y-78630999D01*
X122460001Y-89263001D02*
X113901001Y-89263001D01*
X102768989Y-105144401D02*
X102768990Y-95477598D01*
X109257588Y-111633000D02*
X102768989Y-105144401D01*
X126238000Y-111633000D02*
X109257588Y-111633000D01*
%TO.N,Net-(J1-Pad3)*%
X157226000Y-97409000D02*
X159131000Y-99314000D01*
X108839000Y-97409000D02*
X157226000Y-97409000D01*
X104394000Y-101854000D02*
X108839000Y-97409000D01*
%TO.N,Net-(J1-Pad2)*%
X106934000Y-96774000D02*
X104394000Y-99314000D01*
X159131000Y-96774000D02*
X106934000Y-96774000D01*
%TO.N,Net-(LS1-Pad1)*%
X133223000Y-113538000D02*
X126238000Y-106553000D01*
X142494000Y-113538000D02*
X133223000Y-113538000D01*
%TO.N,Net-(Q1-Pad2)*%
X107353998Y-109093000D02*
X126238000Y-109093000D01*
X103218999Y-95663999D02*
X103218999Y-104958001D01*
X110953999Y-87928999D02*
X103218999Y-95663999D01*
X121710999Y-87928999D02*
X110953999Y-87928999D01*
X103218999Y-104958001D02*
X107353998Y-109093000D01*
X121920000Y-88138000D02*
X121710999Y-87928999D01*
%TO.N,Net-(R1-Pad1)*%
X131953000Y-79756000D02*
X131953000Y-75438000D01*
X131953000Y-75438000D02*
X134239000Y-73152000D01*
X134239000Y-73152000D02*
X183134000Y-73152000D01*
X183134000Y-73152000D02*
X188722000Y-78740000D01*
X188722000Y-84963000D02*
X181991000Y-91694000D01*
X188722000Y-78740000D02*
X188722000Y-84963000D01*
%TO.N,Net-(R2-Pad1)*%
X132080000Y-88138000D02*
X132080000Y-84201000D01*
X132080000Y-84201000D02*
X142367000Y-73914000D01*
X142367000Y-73914000D02*
X174498000Y-73914000D01*
X174498000Y-73914000D02*
X178562000Y-77978000D01*
X178562000Y-93345000D02*
X181991000Y-96774000D01*
X178562000Y-77978000D02*
X178562000Y-93345000D01*
%TD*%
D25*
%TO.N,+5V*%
X206780001Y-129634000D02*
X92100000Y-129634000D01*
X92100000Y-125433000D01*
X175172928Y-125433000D01*
X175185188Y-125557482D01*
X175221498Y-125677180D01*
X175280463Y-125787494D01*
X175359815Y-125884185D01*
X175456506Y-125963537D01*
X175566820Y-126022502D01*
X175686518Y-126058812D01*
X175811000Y-126071072D01*
X176625250Y-126068000D01*
X176784000Y-125909250D01*
X176784000Y-124460000D01*
X175334750Y-124460000D01*
X175176000Y-124618750D01*
X175172928Y-125433000D01*
X92100000Y-125433000D01*
X92100000Y-123233000D01*
X175172928Y-123233000D01*
X175176000Y-124047250D01*
X175334750Y-124206000D01*
X176784000Y-124206000D01*
X176784000Y-124186000D01*
X177038000Y-124186000D01*
X177038000Y-124206000D01*
X177058000Y-124206000D01*
X177058000Y-124460000D01*
X177038000Y-124460000D01*
X177038000Y-125909250D01*
X177196750Y-126068000D01*
X178011000Y-126071072D01*
X178135482Y-126058812D01*
X178255180Y-126022502D01*
X178365494Y-125963537D01*
X178462185Y-125884185D01*
X178541537Y-125787494D01*
X178600502Y-125677180D01*
X178636812Y-125557482D01*
X178649072Y-125433000D01*
X178648216Y-125206060D01*
X178695606Y-125253450D01*
X178889692Y-125383134D01*
X179105348Y-125472461D01*
X179334288Y-125518000D01*
X179567712Y-125518000D01*
X179796652Y-125472461D01*
X180012308Y-125383134D01*
X180206394Y-125253450D01*
X180371450Y-125088394D01*
X180501134Y-124894308D01*
X180590461Y-124678652D01*
X180636000Y-124449712D01*
X180636000Y-124216288D01*
X180590461Y-123987348D01*
X180501134Y-123771692D01*
X180371450Y-123577606D01*
X180206394Y-123412550D01*
X180012308Y-123282866D01*
X179796652Y-123193539D01*
X179567712Y-123148000D01*
X179334288Y-123148000D01*
X179105348Y-123193539D01*
X178889692Y-123282866D01*
X178695606Y-123412550D01*
X178648216Y-123459940D01*
X178649072Y-123233000D01*
X178636812Y-123108518D01*
X178600502Y-122988820D01*
X178541537Y-122878506D01*
X178462185Y-122781815D01*
X178381310Y-122715443D01*
X178448537Y-122614831D01*
X178496910Y-122498048D01*
X178530550Y-122548394D01*
X178695606Y-122713450D01*
X178889692Y-122843134D01*
X179105348Y-122932461D01*
X179334288Y-122978000D01*
X179567712Y-122978000D01*
X179796652Y-122932461D01*
X180012308Y-122843134D01*
X180206394Y-122713450D01*
X180371450Y-122548394D01*
X180501134Y-122354308D01*
X180590461Y-122138652D01*
X180636000Y-121909712D01*
X180636000Y-121676288D01*
X180590461Y-121447348D01*
X180501134Y-121231692D01*
X180371450Y-121037606D01*
X180206394Y-120872550D01*
X180012308Y-120742866D01*
X179796652Y-120653539D01*
X179567712Y-120608000D01*
X179334288Y-120608000D01*
X179105348Y-120653539D01*
X178889692Y-120742866D01*
X178695606Y-120872550D01*
X178530550Y-121037606D01*
X178496910Y-121087952D01*
X178448537Y-120971169D01*
X178258663Y-120687002D01*
X178145533Y-120573872D01*
X192205000Y-120573872D01*
X192205000Y-121014128D01*
X192290890Y-121445925D01*
X192459369Y-121852669D01*
X192703962Y-122218729D01*
X193015271Y-122530038D01*
X193381331Y-122774631D01*
X193788075Y-122943110D01*
X194219872Y-123029000D01*
X194660128Y-123029000D01*
X195091925Y-122943110D01*
X195498669Y-122774631D01*
X195864729Y-122530038D01*
X196176038Y-122218729D01*
X196420631Y-121852669D01*
X196589110Y-121445925D01*
X196675000Y-121014128D01*
X196675000Y-120573872D01*
X196589110Y-120142075D01*
X196420631Y-119735331D01*
X196176038Y-119369271D01*
X195864729Y-119057962D01*
X195498669Y-118813369D01*
X195091925Y-118644890D01*
X194660128Y-118559000D01*
X194219872Y-118559000D01*
X193788075Y-118644890D01*
X193381331Y-118813369D01*
X193015271Y-119057962D01*
X192703962Y-119369271D01*
X192459369Y-119735331D01*
X192290890Y-120142075D01*
X192205000Y-120573872D01*
X178145533Y-120573872D01*
X178016998Y-120445337D01*
X177732831Y-120255463D01*
X177417081Y-120124675D01*
X177081883Y-120058000D01*
X176740117Y-120058000D01*
X176404919Y-120124675D01*
X176089169Y-120255463D01*
X175805002Y-120445337D01*
X175563337Y-120687002D01*
X175373463Y-120971169D01*
X175242675Y-121286919D01*
X175176000Y-121622117D01*
X175176000Y-121963883D01*
X175242675Y-122299081D01*
X175373463Y-122614831D01*
X175440690Y-122715443D01*
X175359815Y-122781815D01*
X175280463Y-122878506D01*
X175221498Y-122988820D01*
X175185188Y-123108518D01*
X175172928Y-123233000D01*
X92100000Y-123233000D01*
X92100000Y-120573872D01*
X102205000Y-120573872D01*
X102205000Y-121014128D01*
X102290890Y-121445925D01*
X102459369Y-121852669D01*
X102703962Y-122218729D01*
X103015271Y-122530038D01*
X103381331Y-122774631D01*
X103788075Y-122943110D01*
X104219872Y-123029000D01*
X104660128Y-123029000D01*
X105091925Y-122943110D01*
X105498669Y-122774631D01*
X105864729Y-122530038D01*
X106176038Y-122218729D01*
X106420631Y-121852669D01*
X106589110Y-121445925D01*
X106675000Y-121014128D01*
X106675000Y-120573872D01*
X106589110Y-120142075D01*
X106420631Y-119735331D01*
X106176038Y-119369271D01*
X105864729Y-119057962D01*
X105498669Y-118813369D01*
X105091925Y-118644890D01*
X104660128Y-118559000D01*
X104219872Y-118559000D01*
X103788075Y-118644890D01*
X103381331Y-118813369D01*
X103015271Y-119057962D01*
X102703962Y-119369271D01*
X102459369Y-119735331D01*
X102290890Y-120142075D01*
X102205000Y-120573872D01*
X92100000Y-120573872D01*
X92100000Y-105144401D01*
X102005313Y-105144401D01*
X102008989Y-105181723D01*
X102008989Y-105181733D01*
X102019986Y-105293386D01*
X102050588Y-105394269D01*
X102063443Y-105436647D01*
X102134015Y-105568677D01*
X102202657Y-105652317D01*
X102228988Y-105684401D01*
X102257986Y-105708199D01*
X108693788Y-112144002D01*
X108717587Y-112173001D01*
X108833312Y-112267974D01*
X108965341Y-112338546D01*
X109108602Y-112382003D01*
X109220255Y-112393000D01*
X109220263Y-112393000D01*
X109257588Y-112396676D01*
X109294913Y-112393000D01*
X124850913Y-112393000D01*
X124862188Y-112507482D01*
X124898498Y-112627180D01*
X124957463Y-112737494D01*
X125036815Y-112834185D01*
X125133506Y-112913537D01*
X125243820Y-112972502D01*
X125363518Y-113008812D01*
X125488000Y-113021072D01*
X126551271Y-113021072D01*
X132579201Y-119049003D01*
X132602999Y-119078001D01*
X132718724Y-119172974D01*
X132850753Y-119243546D01*
X132994014Y-119287003D01*
X133105667Y-119298000D01*
X133105675Y-119298000D01*
X133143000Y-119301676D01*
X133180325Y-119298000D01*
X141125620Y-119298000D01*
X141282269Y-119532442D01*
X141499558Y-119749731D01*
X141755063Y-119920454D01*
X142038965Y-120038050D01*
X142340353Y-120098000D01*
X142647647Y-120098000D01*
X142949035Y-120038050D01*
X143232937Y-119920454D01*
X143488442Y-119749731D01*
X143705731Y-119532442D01*
X143876454Y-119276937D01*
X143994050Y-118993035D01*
X144054000Y-118691647D01*
X144054000Y-118384353D01*
X143994050Y-118082965D01*
X143876454Y-117799063D01*
X143705731Y-117543558D01*
X143488442Y-117326269D01*
X143232937Y-117155546D01*
X142949035Y-117037950D01*
X142647647Y-116978000D01*
X142340353Y-116978000D01*
X142038965Y-117037950D01*
X141755063Y-117155546D01*
X141499558Y-117326269D01*
X141282269Y-117543558D01*
X141125620Y-117778000D01*
X133457802Y-117778000D01*
X127626072Y-111946271D01*
X127626072Y-110883000D01*
X127613812Y-110758518D01*
X127577502Y-110638820D01*
X127518537Y-110528506D01*
X127439185Y-110431815D01*
X127342494Y-110352463D01*
X127232180Y-110293498D01*
X127112482Y-110257188D01*
X127004517Y-110246555D01*
X127120886Y-110168799D01*
X127313799Y-109975886D01*
X127465371Y-109749043D01*
X127569775Y-109496989D01*
X127623000Y-109229411D01*
X127623000Y-109012801D01*
X132659201Y-114049003D01*
X132682999Y-114078001D01*
X132798724Y-114172974D01*
X132930753Y-114243546D01*
X133074014Y-114287003D01*
X133185667Y-114298000D01*
X133185675Y-114298000D01*
X133223000Y-114301676D01*
X133260325Y-114298000D01*
X140930928Y-114298000D01*
X140930928Y-114463000D01*
X140943188Y-114587482D01*
X140979498Y-114707180D01*
X141038463Y-114817494D01*
X141117815Y-114914185D01*
X141214506Y-114993537D01*
X141324820Y-115052502D01*
X141444518Y-115088812D01*
X141569000Y-115101072D01*
X143419000Y-115101072D01*
X143543482Y-115088812D01*
X143663180Y-115052502D01*
X143773494Y-114993537D01*
X143870185Y-114914185D01*
X143949537Y-114817494D01*
X144008502Y-114707180D01*
X144044812Y-114587482D01*
X144057072Y-114463000D01*
X144057072Y-112613000D01*
X144044812Y-112488518D01*
X144008502Y-112368820D01*
X143949537Y-112258506D01*
X143870185Y-112161815D01*
X143773494Y-112082463D01*
X143663180Y-112023498D01*
X143543482Y-111987188D01*
X143419000Y-111974928D01*
X141569000Y-111974928D01*
X141444518Y-111987188D01*
X141324820Y-112023498D01*
X141214506Y-112082463D01*
X141117815Y-112161815D01*
X141038463Y-112258506D01*
X140979498Y-112368820D01*
X140943188Y-112488518D01*
X140930928Y-112613000D01*
X140930928Y-112778000D01*
X133537802Y-112778000D01*
X127594167Y-106834365D01*
X127623000Y-106689411D01*
X127623000Y-106416589D01*
X127569775Y-106149011D01*
X127465371Y-105896957D01*
X127313799Y-105670114D01*
X127120886Y-105477201D01*
X126894043Y-105325629D01*
X126641989Y-105221225D01*
X126374411Y-105168000D01*
X126101589Y-105168000D01*
X125834011Y-105221225D01*
X125581957Y-105325629D01*
X125355114Y-105477201D01*
X125162201Y-105670114D01*
X125010629Y-105896957D01*
X124906225Y-106149011D01*
X124853000Y-106416589D01*
X124853000Y-106689411D01*
X124906225Y-106956989D01*
X125010629Y-107209043D01*
X125162201Y-107435886D01*
X125355114Y-107628799D01*
X125581957Y-107780371D01*
X125684873Y-107823000D01*
X125581957Y-107865629D01*
X125355114Y-108017201D01*
X125162201Y-108210114D01*
X125080091Y-108333000D01*
X107668800Y-108333000D01*
X105055775Y-105719975D01*
X105275355Y-105589178D01*
X105491588Y-105394269D01*
X105665641Y-105160920D01*
X105790825Y-104898099D01*
X105835476Y-104750890D01*
X105714155Y-104521000D01*
X104521000Y-104521000D01*
X104521000Y-104541000D01*
X104267000Y-104541000D01*
X104267000Y-104521000D01*
X104247000Y-104521000D01*
X104247000Y-104267000D01*
X104267000Y-104267000D01*
X104267000Y-104247000D01*
X104521000Y-104247000D01*
X104521000Y-104267000D01*
X105714155Y-104267000D01*
X105835476Y-104037110D01*
X105790825Y-103889901D01*
X105665641Y-103627080D01*
X105491588Y-103393731D01*
X105275355Y-103198822D01*
X105158466Y-103129195D01*
X105340632Y-103007475D01*
X105547475Y-102800632D01*
X105709990Y-102557411D01*
X105821932Y-102287158D01*
X105879000Y-102000260D01*
X105879000Y-101707740D01*
X105835209Y-101487592D01*
X109153802Y-98169000D01*
X156911199Y-98169000D01*
X157576841Y-98834642D01*
X157516764Y-99032691D01*
X157489057Y-99314000D01*
X157516764Y-99595309D01*
X157598818Y-99865808D01*
X157732068Y-100115101D01*
X157911392Y-100333608D01*
X158129899Y-100512932D01*
X158262858Y-100584000D01*
X158129899Y-100655068D01*
X157911392Y-100834392D01*
X157732068Y-101052899D01*
X157598818Y-101302192D01*
X157516764Y-101572691D01*
X157489057Y-101854000D01*
X157516764Y-102135309D01*
X157598818Y-102405808D01*
X157732068Y-102655101D01*
X157911392Y-102873608D01*
X158129899Y-103052932D01*
X158262858Y-103124000D01*
X158129899Y-103195068D01*
X157911392Y-103374392D01*
X157732068Y-103592899D01*
X157598818Y-103842192D01*
X157516764Y-104112691D01*
X157489057Y-104394000D01*
X157516764Y-104675309D01*
X157598818Y-104945808D01*
X157732068Y-105195101D01*
X157911392Y-105413608D01*
X158129899Y-105592932D01*
X158379192Y-105726182D01*
X158649691Y-105808236D01*
X158860508Y-105829000D01*
X159401492Y-105829000D01*
X159612309Y-105808236D01*
X159882808Y-105726182D01*
X160132101Y-105592932D01*
X160350608Y-105413608D01*
X160529932Y-105195101D01*
X160663182Y-104945808D01*
X160724690Y-104743039D01*
X180399096Y-104743039D01*
X180409556Y-104800730D01*
X180515449Y-105062421D01*
X180670361Y-105298425D01*
X180868338Y-105499673D01*
X181101773Y-105658430D01*
X181361694Y-105768596D01*
X181638113Y-105825937D01*
X181864000Y-105673474D01*
X181864000Y-104521000D01*
X182118000Y-104521000D01*
X182118000Y-105673474D01*
X182343887Y-105825937D01*
X182620306Y-105768596D01*
X182880227Y-105658430D01*
X183113662Y-105499673D01*
X183311639Y-105298425D01*
X183466551Y-105062421D01*
X183572444Y-104800730D01*
X183582904Y-104743039D01*
X183460915Y-104521000D01*
X182118000Y-104521000D01*
X181864000Y-104521000D01*
X180521085Y-104521000D01*
X180399096Y-104743039D01*
X160724690Y-104743039D01*
X160745236Y-104675309D01*
X160772943Y-104394000D01*
X160745236Y-104112691D01*
X160663182Y-103842192D01*
X160529932Y-103592899D01*
X160350608Y-103374392D01*
X160132101Y-103195068D01*
X159999142Y-103124000D01*
X160132101Y-103052932D01*
X160350608Y-102873608D01*
X160529932Y-102655101D01*
X160663182Y-102405808D01*
X160745236Y-102135309D01*
X160772943Y-101854000D01*
X160745236Y-101572691D01*
X160663182Y-101302192D01*
X160529932Y-101052899D01*
X160350608Y-100834392D01*
X160132101Y-100655068D01*
X159999142Y-100584000D01*
X160132101Y-100512932D01*
X160350608Y-100333608D01*
X160529932Y-100115101D01*
X160663182Y-99865808D01*
X160745236Y-99595309D01*
X160772943Y-99314000D01*
X160745236Y-99032691D01*
X160663182Y-98762192D01*
X160529932Y-98512899D01*
X160350608Y-98294392D01*
X160132101Y-98115068D01*
X159999142Y-98044000D01*
X160132101Y-97972932D01*
X160350608Y-97793608D01*
X160529932Y-97575101D01*
X160663182Y-97325808D01*
X160745236Y-97055309D01*
X160772943Y-96774000D01*
X160745236Y-96492691D01*
X160663182Y-96222192D01*
X160529932Y-95972899D01*
X160350608Y-95754392D01*
X160132101Y-95575068D01*
X159999142Y-95504000D01*
X160132101Y-95432932D01*
X160350608Y-95253608D01*
X160529932Y-95035101D01*
X160663182Y-94785808D01*
X160745236Y-94515309D01*
X160772943Y-94234000D01*
X160745236Y-93952691D01*
X160663182Y-93682192D01*
X160529932Y-93432899D01*
X160350608Y-93214392D01*
X160132101Y-93035068D01*
X159999142Y-92964000D01*
X160132101Y-92892932D01*
X160350608Y-92713608D01*
X160529932Y-92495101D01*
X160663182Y-92245808D01*
X160745236Y-91975309D01*
X160772943Y-91694000D01*
X160745236Y-91412691D01*
X160663182Y-91142192D01*
X160529932Y-90892899D01*
X160350608Y-90674392D01*
X160132101Y-90495068D01*
X159999142Y-90424000D01*
X160132101Y-90352932D01*
X160350608Y-90173608D01*
X160529932Y-89955101D01*
X160663182Y-89705808D01*
X160745236Y-89435309D01*
X160772943Y-89154000D01*
X160745236Y-88872691D01*
X160663182Y-88602192D01*
X160529932Y-88352899D01*
X160397524Y-88191559D01*
X160485494Y-88144537D01*
X160582185Y-88065185D01*
X160661537Y-87968494D01*
X160720502Y-87858180D01*
X160756812Y-87738482D01*
X160769072Y-87614000D01*
X160769072Y-85614000D01*
X160756812Y-85489518D01*
X160720502Y-85369820D01*
X160661537Y-85259506D01*
X160582185Y-85162815D01*
X160485494Y-85083463D01*
X160375180Y-85024498D01*
X160255482Y-84988188D01*
X160131000Y-84975928D01*
X158131000Y-84975928D01*
X158006518Y-84988188D01*
X157886820Y-85024498D01*
X157776506Y-85083463D01*
X157679815Y-85162815D01*
X157600463Y-85259506D01*
X157541498Y-85369820D01*
X157505188Y-85489518D01*
X157492928Y-85614000D01*
X157492928Y-87614000D01*
X157505188Y-87738482D01*
X157541498Y-87858180D01*
X157600463Y-87968494D01*
X157679815Y-88065185D01*
X157776506Y-88144537D01*
X157864476Y-88191559D01*
X157732068Y-88352899D01*
X157598818Y-88602192D01*
X157516764Y-88872691D01*
X157489057Y-89154000D01*
X157516764Y-89435309D01*
X157598818Y-89705808D01*
X157732068Y-89955101D01*
X157911392Y-90173608D01*
X158129899Y-90352932D01*
X158262858Y-90424000D01*
X158129899Y-90495068D01*
X157911392Y-90674392D01*
X157732068Y-90892899D01*
X157598818Y-91142192D01*
X157516764Y-91412691D01*
X157489057Y-91694000D01*
X157516764Y-91975309D01*
X157598818Y-92245808D01*
X157732068Y-92495101D01*
X157911392Y-92713608D01*
X158129899Y-92892932D01*
X158262858Y-92964000D01*
X158129899Y-93035068D01*
X157911392Y-93214392D01*
X157732068Y-93432899D01*
X157598818Y-93682192D01*
X157516764Y-93952691D01*
X157489057Y-94234000D01*
X157516764Y-94515309D01*
X157598818Y-94785808D01*
X157732068Y-95035101D01*
X157911392Y-95253608D01*
X158129899Y-95432932D01*
X158262858Y-95504000D01*
X158129899Y-95575068D01*
X157911392Y-95754392D01*
X157732068Y-95972899D01*
X157710099Y-96014000D01*
X106971322Y-96014000D01*
X106933999Y-96010324D01*
X106896676Y-96014000D01*
X106896667Y-96014000D01*
X106785014Y-96024997D01*
X106641753Y-96068454D01*
X106509724Y-96139026D01*
X106509722Y-96139027D01*
X106509723Y-96139027D01*
X106422996Y-96210201D01*
X106422992Y-96210205D01*
X106393999Y-96233999D01*
X106370205Y-96262992D01*
X105882072Y-96751125D01*
X105882072Y-95924000D01*
X105869812Y-95799518D01*
X105833502Y-95679820D01*
X105774537Y-95569506D01*
X105695185Y-95472815D01*
X105598494Y-95393463D01*
X105488180Y-95334498D01*
X105368482Y-95298188D01*
X105244000Y-95285928D01*
X104671871Y-95285928D01*
X111268801Y-88688999D01*
X112253928Y-88688999D01*
X112253928Y-90054000D01*
X112266188Y-90178482D01*
X112302498Y-90298180D01*
X112361463Y-90408494D01*
X112440815Y-90505185D01*
X112537506Y-90584537D01*
X112647820Y-90643502D01*
X112767518Y-90679812D01*
X112892000Y-90692072D01*
X114692000Y-90692072D01*
X114816482Y-90679812D01*
X114936180Y-90643502D01*
X115046494Y-90584537D01*
X115143185Y-90505185D01*
X115222537Y-90408494D01*
X115281502Y-90298180D01*
X115317812Y-90178482D01*
X115330072Y-90054000D01*
X115330072Y-90023001D01*
X122422679Y-90023001D01*
X122460001Y-90026677D01*
X122497323Y-90023001D01*
X122497334Y-90023001D01*
X122608987Y-90012004D01*
X122752248Y-89968547D01*
X122884277Y-89897975D01*
X123000002Y-89803002D01*
X123023804Y-89773999D01*
X123556003Y-89241801D01*
X123585002Y-89218002D01*
X123637527Y-89154000D01*
X123679975Y-89102278D01*
X123750547Y-88970248D01*
X123771347Y-88901677D01*
X123794004Y-88826987D01*
X123805001Y-88715334D01*
X123805001Y-88715324D01*
X123808677Y-88678001D01*
X123805001Y-88640678D01*
X123805001Y-79614665D01*
X130518000Y-79614665D01*
X130518000Y-79897335D01*
X130573147Y-80174574D01*
X130681320Y-80435727D01*
X130838363Y-80670759D01*
X131038241Y-80870637D01*
X131273273Y-81027680D01*
X131534426Y-81135853D01*
X131811665Y-81191000D01*
X132094335Y-81191000D01*
X132371574Y-81135853D01*
X132632727Y-81027680D01*
X132867759Y-80870637D01*
X133067637Y-80670759D01*
X133224680Y-80435727D01*
X133332853Y-80174574D01*
X133388000Y-79897335D01*
X133388000Y-79614665D01*
X133332853Y-79337426D01*
X133224680Y-79076273D01*
X133067637Y-78841241D01*
X132867759Y-78641363D01*
X132713000Y-78537957D01*
X132713000Y-75752801D01*
X134553802Y-73912000D01*
X141294198Y-73912000D01*
X131568998Y-83637201D01*
X131540000Y-83660999D01*
X131516202Y-83689997D01*
X131516201Y-83689998D01*
X131445026Y-83776724D01*
X131374454Y-83908754D01*
X131330998Y-84052015D01*
X131316324Y-84201000D01*
X131320001Y-84238332D01*
X131320000Y-86919956D01*
X131165241Y-87023363D01*
X130965363Y-87223241D01*
X130808320Y-87458273D01*
X130700147Y-87719426D01*
X130645000Y-87996665D01*
X130645000Y-88279335D01*
X130700147Y-88556574D01*
X130808320Y-88817727D01*
X130965363Y-89052759D01*
X131165241Y-89252637D01*
X131400273Y-89409680D01*
X131661426Y-89517853D01*
X131938665Y-89573000D01*
X132221335Y-89573000D01*
X132498574Y-89517853D01*
X132759727Y-89409680D01*
X132994759Y-89252637D01*
X133194637Y-89052759D01*
X133351680Y-88817727D01*
X133459853Y-88556574D01*
X133515000Y-88279335D01*
X133515000Y-87996665D01*
X133459853Y-87719426D01*
X133351680Y-87458273D01*
X133194637Y-87223241D01*
X132994759Y-87023363D01*
X132840000Y-86919957D01*
X132840000Y-84515801D01*
X142681802Y-74674000D01*
X174183199Y-74674000D01*
X177802000Y-78292802D01*
X177802001Y-93307667D01*
X177798324Y-93345000D01*
X177812998Y-93493985D01*
X177856454Y-93637246D01*
X177927026Y-93769276D01*
X177998201Y-93856002D01*
X178022000Y-93885001D01*
X178050998Y-93908799D01*
X180436841Y-96294642D01*
X180376764Y-96492691D01*
X180349057Y-96774000D01*
X180376764Y-97055309D01*
X180458818Y-97325808D01*
X180592068Y-97575101D01*
X180771392Y-97793608D01*
X180989899Y-97972932D01*
X181122858Y-98044000D01*
X180989899Y-98115068D01*
X180771392Y-98294392D01*
X180592068Y-98512899D01*
X180458818Y-98762192D01*
X180376764Y-99032691D01*
X180349057Y-99314000D01*
X180376764Y-99595309D01*
X180458818Y-99865808D01*
X180592068Y-100115101D01*
X180771392Y-100333608D01*
X180989899Y-100512932D01*
X181122858Y-100584000D01*
X180989899Y-100655068D01*
X180771392Y-100834392D01*
X180592068Y-101052899D01*
X180458818Y-101302192D01*
X180376764Y-101572691D01*
X180349057Y-101854000D01*
X180376764Y-102135309D01*
X180458818Y-102405808D01*
X180592068Y-102655101D01*
X180771392Y-102873608D01*
X180989899Y-103052932D01*
X181119345Y-103122122D01*
X181101773Y-103129570D01*
X180868338Y-103288327D01*
X180670361Y-103489575D01*
X180515449Y-103725579D01*
X180409556Y-103987270D01*
X180399096Y-104044961D01*
X180521085Y-104267000D01*
X181864000Y-104267000D01*
X181864000Y-104247000D01*
X182118000Y-104247000D01*
X182118000Y-104267000D01*
X183460915Y-104267000D01*
X183582904Y-104044961D01*
X183572444Y-103987270D01*
X183466551Y-103725579D01*
X183311639Y-103489575D01*
X183113662Y-103288327D01*
X182880227Y-103129570D01*
X182862655Y-103122122D01*
X182992101Y-103052932D01*
X183210608Y-102873608D01*
X183389932Y-102655101D01*
X183523182Y-102405808D01*
X183605236Y-102135309D01*
X183632943Y-101854000D01*
X183605236Y-101572691D01*
X183523182Y-101302192D01*
X183389932Y-101052899D01*
X183210608Y-100834392D01*
X182992101Y-100655068D01*
X182859142Y-100584000D01*
X182992101Y-100512932D01*
X183210608Y-100333608D01*
X183389932Y-100115101D01*
X183523182Y-99865808D01*
X183605236Y-99595309D01*
X183632943Y-99314000D01*
X183605236Y-99032691D01*
X183523182Y-98762192D01*
X183389932Y-98512899D01*
X183210608Y-98294392D01*
X182992101Y-98115068D01*
X182859142Y-98044000D01*
X182992101Y-97972932D01*
X183210608Y-97793608D01*
X183389932Y-97575101D01*
X183523182Y-97325808D01*
X183605236Y-97055309D01*
X183632943Y-96774000D01*
X183605236Y-96492691D01*
X183523182Y-96222192D01*
X183389932Y-95972899D01*
X183210608Y-95754392D01*
X182992101Y-95575068D01*
X182859142Y-95504000D01*
X182992101Y-95432932D01*
X183210608Y-95253608D01*
X183389932Y-95035101D01*
X183523182Y-94785808D01*
X183605236Y-94515309D01*
X183632943Y-94234000D01*
X183605236Y-93952691D01*
X183523182Y-93682192D01*
X183389932Y-93432899D01*
X183210608Y-93214392D01*
X182992101Y-93035068D01*
X182859142Y-92964000D01*
X182992101Y-92892932D01*
X183210608Y-92713608D01*
X183389932Y-92495101D01*
X183523182Y-92245808D01*
X183605236Y-91975309D01*
X183632943Y-91694000D01*
X183605236Y-91412691D01*
X183545159Y-91214642D01*
X189233008Y-85526795D01*
X189262001Y-85503001D01*
X189285795Y-85474008D01*
X189285799Y-85474004D01*
X189356973Y-85387277D01*
X189356974Y-85387276D01*
X189427546Y-85255247D01*
X189471003Y-85111986D01*
X189482000Y-85000333D01*
X189482000Y-85000324D01*
X189485676Y-84963001D01*
X189482000Y-84925678D01*
X189482000Y-78777322D01*
X189485676Y-78739999D01*
X189482000Y-78702676D01*
X189482000Y-78702667D01*
X189471003Y-78591014D01*
X189427546Y-78447753D01*
X189356974Y-78315724D01*
X189343811Y-78299685D01*
X189285799Y-78228996D01*
X189285795Y-78228992D01*
X189262001Y-78199999D01*
X189233009Y-78176206D01*
X186630675Y-75573872D01*
X192205000Y-75573872D01*
X192205000Y-76014128D01*
X192290890Y-76445925D01*
X192459369Y-76852669D01*
X192703962Y-77218729D01*
X193015271Y-77530038D01*
X193381331Y-77774631D01*
X193788075Y-77943110D01*
X194219872Y-78029000D01*
X194660128Y-78029000D01*
X195091925Y-77943110D01*
X195498669Y-77774631D01*
X195864729Y-77530038D01*
X196176038Y-77218729D01*
X196420631Y-76852669D01*
X196589110Y-76445925D01*
X196675000Y-76014128D01*
X196675000Y-75573872D01*
X196589110Y-75142075D01*
X196420631Y-74735331D01*
X196176038Y-74369271D01*
X195864729Y-74057962D01*
X195498669Y-73813369D01*
X195091925Y-73644890D01*
X194660128Y-73559000D01*
X194219872Y-73559000D01*
X193788075Y-73644890D01*
X193381331Y-73813369D01*
X193015271Y-74057962D01*
X192703962Y-74369271D01*
X192459369Y-74735331D01*
X192290890Y-75142075D01*
X192205000Y-75573872D01*
X186630675Y-75573872D01*
X183697804Y-72641003D01*
X183674001Y-72611999D01*
X183558276Y-72517026D01*
X183426247Y-72446454D01*
X183282986Y-72402997D01*
X183171333Y-72392000D01*
X183171322Y-72392000D01*
X183134000Y-72388324D01*
X183096678Y-72392000D01*
X134276322Y-72392000D01*
X134238999Y-72388324D01*
X134201676Y-72392000D01*
X134201667Y-72392000D01*
X134090014Y-72402997D01*
X133946753Y-72446454D01*
X133814724Y-72517026D01*
X133698999Y-72611999D01*
X133675201Y-72640997D01*
X131441998Y-74874201D01*
X131413000Y-74897999D01*
X131389202Y-74926997D01*
X131389201Y-74926998D01*
X131318026Y-75013724D01*
X131247454Y-75145754D01*
X131203998Y-75289015D01*
X131189324Y-75438000D01*
X131193001Y-75475332D01*
X131193000Y-78537956D01*
X131038241Y-78641363D01*
X130838363Y-78841241D01*
X130681320Y-79076273D01*
X130573147Y-79337426D01*
X130518000Y-79614665D01*
X123805001Y-79614665D01*
X123805001Y-79380321D01*
X123808677Y-79342998D01*
X123805001Y-79305675D01*
X123805001Y-79305666D01*
X123794004Y-79194013D01*
X123750547Y-79050752D01*
X123682393Y-78923246D01*
X123679975Y-78918722D01*
X123608800Y-78831996D01*
X123585002Y-78802998D01*
X123556005Y-78779201D01*
X122896804Y-78120001D01*
X122873002Y-78090998D01*
X122757277Y-77996025D01*
X122625248Y-77925453D01*
X122481987Y-77881996D01*
X122370334Y-77870999D01*
X122370323Y-77870999D01*
X122333001Y-77867323D01*
X122295679Y-77870999D01*
X119652914Y-77870999D01*
X119615589Y-77867323D01*
X119578264Y-77870999D01*
X119578256Y-77870999D01*
X119466603Y-77881996D01*
X119323342Y-77925453D01*
X119191313Y-77996025D01*
X119075588Y-78090998D01*
X119051790Y-78119996D01*
X102257988Y-94913799D01*
X102228990Y-94937597D01*
X102205192Y-94966595D01*
X102205191Y-94966596D01*
X102134016Y-95053322D01*
X102063444Y-95185352D01*
X102019988Y-95328613D01*
X102005314Y-95477598D01*
X102008991Y-95514930D01*
X102008989Y-105107078D01*
X102005313Y-105144401D01*
X92100000Y-105144401D01*
X92100000Y-75573872D01*
X102205000Y-75573872D01*
X102205000Y-76014128D01*
X102290890Y-76445925D01*
X102459369Y-76852669D01*
X102703962Y-77218729D01*
X103015271Y-77530038D01*
X103381331Y-77774631D01*
X103788075Y-77943110D01*
X104219872Y-78029000D01*
X104660128Y-78029000D01*
X105091925Y-77943110D01*
X105498669Y-77774631D01*
X105864729Y-77530038D01*
X106176038Y-77218729D01*
X106420631Y-76852669D01*
X106589110Y-76445925D01*
X106675000Y-76014128D01*
X106675000Y-75573872D01*
X106589110Y-75142075D01*
X106420631Y-74735331D01*
X106176038Y-74369271D01*
X105864729Y-74057962D01*
X105498669Y-73813369D01*
X105091925Y-73644890D01*
X104660128Y-73559000D01*
X104219872Y-73559000D01*
X103788075Y-73644890D01*
X103381331Y-73813369D01*
X103015271Y-74057962D01*
X102703962Y-74369271D01*
X102459369Y-74735331D01*
X102290890Y-75142075D01*
X102205000Y-75573872D01*
X92100000Y-75573872D01*
X92100000Y-66954000D01*
X206780000Y-66954000D01*
X206780001Y-129634000D01*
%TA.AperFunction,Conductor*%
D26*
G36*
X206780001Y-129634000D02*
G01*
X92100000Y-129634000D01*
X92100000Y-125433000D01*
X175172928Y-125433000D01*
X175185188Y-125557482D01*
X175221498Y-125677180D01*
X175280463Y-125787494D01*
X175359815Y-125884185D01*
X175456506Y-125963537D01*
X175566820Y-126022502D01*
X175686518Y-126058812D01*
X175811000Y-126071072D01*
X176625250Y-126068000D01*
X176784000Y-125909250D01*
X176784000Y-124460000D01*
X175334750Y-124460000D01*
X175176000Y-124618750D01*
X175172928Y-125433000D01*
X92100000Y-125433000D01*
X92100000Y-123233000D01*
X175172928Y-123233000D01*
X175176000Y-124047250D01*
X175334750Y-124206000D01*
X176784000Y-124206000D01*
X176784000Y-124186000D01*
X177038000Y-124186000D01*
X177038000Y-124206000D01*
X177058000Y-124206000D01*
X177058000Y-124460000D01*
X177038000Y-124460000D01*
X177038000Y-125909250D01*
X177196750Y-126068000D01*
X178011000Y-126071072D01*
X178135482Y-126058812D01*
X178255180Y-126022502D01*
X178365494Y-125963537D01*
X178462185Y-125884185D01*
X178541537Y-125787494D01*
X178600502Y-125677180D01*
X178636812Y-125557482D01*
X178649072Y-125433000D01*
X178648216Y-125206060D01*
X178695606Y-125253450D01*
X178889692Y-125383134D01*
X179105348Y-125472461D01*
X179334288Y-125518000D01*
X179567712Y-125518000D01*
X179796652Y-125472461D01*
X180012308Y-125383134D01*
X180206394Y-125253450D01*
X180371450Y-125088394D01*
X180501134Y-124894308D01*
X180590461Y-124678652D01*
X180636000Y-124449712D01*
X180636000Y-124216288D01*
X180590461Y-123987348D01*
X180501134Y-123771692D01*
X180371450Y-123577606D01*
X180206394Y-123412550D01*
X180012308Y-123282866D01*
X179796652Y-123193539D01*
X179567712Y-123148000D01*
X179334288Y-123148000D01*
X179105348Y-123193539D01*
X178889692Y-123282866D01*
X178695606Y-123412550D01*
X178648216Y-123459940D01*
X178649072Y-123233000D01*
X178636812Y-123108518D01*
X178600502Y-122988820D01*
X178541537Y-122878506D01*
X178462185Y-122781815D01*
X178381310Y-122715443D01*
X178448537Y-122614831D01*
X178496910Y-122498048D01*
X178530550Y-122548394D01*
X178695606Y-122713450D01*
X178889692Y-122843134D01*
X179105348Y-122932461D01*
X179334288Y-122978000D01*
X179567712Y-122978000D01*
X179796652Y-122932461D01*
X180012308Y-122843134D01*
X180206394Y-122713450D01*
X180371450Y-122548394D01*
X180501134Y-122354308D01*
X180590461Y-122138652D01*
X180636000Y-121909712D01*
X180636000Y-121676288D01*
X180590461Y-121447348D01*
X180501134Y-121231692D01*
X180371450Y-121037606D01*
X180206394Y-120872550D01*
X180012308Y-120742866D01*
X179796652Y-120653539D01*
X179567712Y-120608000D01*
X179334288Y-120608000D01*
X179105348Y-120653539D01*
X178889692Y-120742866D01*
X178695606Y-120872550D01*
X178530550Y-121037606D01*
X178496910Y-121087952D01*
X178448537Y-120971169D01*
X178258663Y-120687002D01*
X178145533Y-120573872D01*
X192205000Y-120573872D01*
X192205000Y-121014128D01*
X192290890Y-121445925D01*
X192459369Y-121852669D01*
X192703962Y-122218729D01*
X193015271Y-122530038D01*
X193381331Y-122774631D01*
X193788075Y-122943110D01*
X194219872Y-123029000D01*
X194660128Y-123029000D01*
X195091925Y-122943110D01*
X195498669Y-122774631D01*
X195864729Y-122530038D01*
X196176038Y-122218729D01*
X196420631Y-121852669D01*
X196589110Y-121445925D01*
X196675000Y-121014128D01*
X196675000Y-120573872D01*
X196589110Y-120142075D01*
X196420631Y-119735331D01*
X196176038Y-119369271D01*
X195864729Y-119057962D01*
X195498669Y-118813369D01*
X195091925Y-118644890D01*
X194660128Y-118559000D01*
X194219872Y-118559000D01*
X193788075Y-118644890D01*
X193381331Y-118813369D01*
X193015271Y-119057962D01*
X192703962Y-119369271D01*
X192459369Y-119735331D01*
X192290890Y-120142075D01*
X192205000Y-120573872D01*
X178145533Y-120573872D01*
X178016998Y-120445337D01*
X177732831Y-120255463D01*
X177417081Y-120124675D01*
X177081883Y-120058000D01*
X176740117Y-120058000D01*
X176404919Y-120124675D01*
X176089169Y-120255463D01*
X175805002Y-120445337D01*
X175563337Y-120687002D01*
X175373463Y-120971169D01*
X175242675Y-121286919D01*
X175176000Y-121622117D01*
X175176000Y-121963883D01*
X175242675Y-122299081D01*
X175373463Y-122614831D01*
X175440690Y-122715443D01*
X175359815Y-122781815D01*
X175280463Y-122878506D01*
X175221498Y-122988820D01*
X175185188Y-123108518D01*
X175172928Y-123233000D01*
X92100000Y-123233000D01*
X92100000Y-120573872D01*
X102205000Y-120573872D01*
X102205000Y-121014128D01*
X102290890Y-121445925D01*
X102459369Y-121852669D01*
X102703962Y-122218729D01*
X103015271Y-122530038D01*
X103381331Y-122774631D01*
X103788075Y-122943110D01*
X104219872Y-123029000D01*
X104660128Y-123029000D01*
X105091925Y-122943110D01*
X105498669Y-122774631D01*
X105864729Y-122530038D01*
X106176038Y-122218729D01*
X106420631Y-121852669D01*
X106589110Y-121445925D01*
X106675000Y-121014128D01*
X106675000Y-120573872D01*
X106589110Y-120142075D01*
X106420631Y-119735331D01*
X106176038Y-119369271D01*
X105864729Y-119057962D01*
X105498669Y-118813369D01*
X105091925Y-118644890D01*
X104660128Y-118559000D01*
X104219872Y-118559000D01*
X103788075Y-118644890D01*
X103381331Y-118813369D01*
X103015271Y-119057962D01*
X102703962Y-119369271D01*
X102459369Y-119735331D01*
X102290890Y-120142075D01*
X102205000Y-120573872D01*
X92100000Y-120573872D01*
X92100000Y-105144401D01*
X102005313Y-105144401D01*
X102008989Y-105181723D01*
X102008989Y-105181733D01*
X102019986Y-105293386D01*
X102050588Y-105394269D01*
X102063443Y-105436647D01*
X102134015Y-105568677D01*
X102202657Y-105652317D01*
X102228988Y-105684401D01*
X102257986Y-105708199D01*
X108693788Y-112144002D01*
X108717587Y-112173001D01*
X108833312Y-112267974D01*
X108965341Y-112338546D01*
X109108602Y-112382003D01*
X109220255Y-112393000D01*
X109220263Y-112393000D01*
X109257588Y-112396676D01*
X109294913Y-112393000D01*
X124850913Y-112393000D01*
X124862188Y-112507482D01*
X124898498Y-112627180D01*
X124957463Y-112737494D01*
X125036815Y-112834185D01*
X125133506Y-112913537D01*
X125243820Y-112972502D01*
X125363518Y-113008812D01*
X125488000Y-113021072D01*
X126551271Y-113021072D01*
X132579201Y-119049003D01*
X132602999Y-119078001D01*
X132718724Y-119172974D01*
X132850753Y-119243546D01*
X132994014Y-119287003D01*
X133105667Y-119298000D01*
X133105675Y-119298000D01*
X133143000Y-119301676D01*
X133180325Y-119298000D01*
X141125620Y-119298000D01*
X141282269Y-119532442D01*
X141499558Y-119749731D01*
X141755063Y-119920454D01*
X142038965Y-120038050D01*
X142340353Y-120098000D01*
X142647647Y-120098000D01*
X142949035Y-120038050D01*
X143232937Y-119920454D01*
X143488442Y-119749731D01*
X143705731Y-119532442D01*
X143876454Y-119276937D01*
X143994050Y-118993035D01*
X144054000Y-118691647D01*
X144054000Y-118384353D01*
X143994050Y-118082965D01*
X143876454Y-117799063D01*
X143705731Y-117543558D01*
X143488442Y-117326269D01*
X143232937Y-117155546D01*
X142949035Y-117037950D01*
X142647647Y-116978000D01*
X142340353Y-116978000D01*
X142038965Y-117037950D01*
X141755063Y-117155546D01*
X141499558Y-117326269D01*
X141282269Y-117543558D01*
X141125620Y-117778000D01*
X133457802Y-117778000D01*
X127626072Y-111946271D01*
X127626072Y-110883000D01*
X127613812Y-110758518D01*
X127577502Y-110638820D01*
X127518537Y-110528506D01*
X127439185Y-110431815D01*
X127342494Y-110352463D01*
X127232180Y-110293498D01*
X127112482Y-110257188D01*
X127004517Y-110246555D01*
X127120886Y-110168799D01*
X127313799Y-109975886D01*
X127465371Y-109749043D01*
X127569775Y-109496989D01*
X127623000Y-109229411D01*
X127623000Y-109012801D01*
X132659201Y-114049003D01*
X132682999Y-114078001D01*
X132798724Y-114172974D01*
X132930753Y-114243546D01*
X133074014Y-114287003D01*
X133185667Y-114298000D01*
X133185675Y-114298000D01*
X133223000Y-114301676D01*
X133260325Y-114298000D01*
X140930928Y-114298000D01*
X140930928Y-114463000D01*
X140943188Y-114587482D01*
X140979498Y-114707180D01*
X141038463Y-114817494D01*
X141117815Y-114914185D01*
X141214506Y-114993537D01*
X141324820Y-115052502D01*
X141444518Y-115088812D01*
X141569000Y-115101072D01*
X143419000Y-115101072D01*
X143543482Y-115088812D01*
X143663180Y-115052502D01*
X143773494Y-114993537D01*
X143870185Y-114914185D01*
X143949537Y-114817494D01*
X144008502Y-114707180D01*
X144044812Y-114587482D01*
X144057072Y-114463000D01*
X144057072Y-112613000D01*
X144044812Y-112488518D01*
X144008502Y-112368820D01*
X143949537Y-112258506D01*
X143870185Y-112161815D01*
X143773494Y-112082463D01*
X143663180Y-112023498D01*
X143543482Y-111987188D01*
X143419000Y-111974928D01*
X141569000Y-111974928D01*
X141444518Y-111987188D01*
X141324820Y-112023498D01*
X141214506Y-112082463D01*
X141117815Y-112161815D01*
X141038463Y-112258506D01*
X140979498Y-112368820D01*
X140943188Y-112488518D01*
X140930928Y-112613000D01*
X140930928Y-112778000D01*
X133537802Y-112778000D01*
X127594167Y-106834365D01*
X127623000Y-106689411D01*
X127623000Y-106416589D01*
X127569775Y-106149011D01*
X127465371Y-105896957D01*
X127313799Y-105670114D01*
X127120886Y-105477201D01*
X126894043Y-105325629D01*
X126641989Y-105221225D01*
X126374411Y-105168000D01*
X126101589Y-105168000D01*
X125834011Y-105221225D01*
X125581957Y-105325629D01*
X125355114Y-105477201D01*
X125162201Y-105670114D01*
X125010629Y-105896957D01*
X124906225Y-106149011D01*
X124853000Y-106416589D01*
X124853000Y-106689411D01*
X124906225Y-106956989D01*
X125010629Y-107209043D01*
X125162201Y-107435886D01*
X125355114Y-107628799D01*
X125581957Y-107780371D01*
X125684873Y-107823000D01*
X125581957Y-107865629D01*
X125355114Y-108017201D01*
X125162201Y-108210114D01*
X125080091Y-108333000D01*
X107668800Y-108333000D01*
X105055775Y-105719975D01*
X105275355Y-105589178D01*
X105491588Y-105394269D01*
X105665641Y-105160920D01*
X105790825Y-104898099D01*
X105835476Y-104750890D01*
X105714155Y-104521000D01*
X104521000Y-104521000D01*
X104521000Y-104541000D01*
X104267000Y-104541000D01*
X104267000Y-104521000D01*
X104247000Y-104521000D01*
X104247000Y-104267000D01*
X104267000Y-104267000D01*
X104267000Y-104247000D01*
X104521000Y-104247000D01*
X104521000Y-104267000D01*
X105714155Y-104267000D01*
X105835476Y-104037110D01*
X105790825Y-103889901D01*
X105665641Y-103627080D01*
X105491588Y-103393731D01*
X105275355Y-103198822D01*
X105158466Y-103129195D01*
X105340632Y-103007475D01*
X105547475Y-102800632D01*
X105709990Y-102557411D01*
X105821932Y-102287158D01*
X105879000Y-102000260D01*
X105879000Y-101707740D01*
X105835209Y-101487592D01*
X109153802Y-98169000D01*
X156911199Y-98169000D01*
X157576841Y-98834642D01*
X157516764Y-99032691D01*
X157489057Y-99314000D01*
X157516764Y-99595309D01*
X157598818Y-99865808D01*
X157732068Y-100115101D01*
X157911392Y-100333608D01*
X158129899Y-100512932D01*
X158262858Y-100584000D01*
X158129899Y-100655068D01*
X157911392Y-100834392D01*
X157732068Y-101052899D01*
X157598818Y-101302192D01*
X157516764Y-101572691D01*
X157489057Y-101854000D01*
X157516764Y-102135309D01*
X157598818Y-102405808D01*
X157732068Y-102655101D01*
X157911392Y-102873608D01*
X158129899Y-103052932D01*
X158262858Y-103124000D01*
X158129899Y-103195068D01*
X157911392Y-103374392D01*
X157732068Y-103592899D01*
X157598818Y-103842192D01*
X157516764Y-104112691D01*
X157489057Y-104394000D01*
X157516764Y-104675309D01*
X157598818Y-104945808D01*
X157732068Y-105195101D01*
X157911392Y-105413608D01*
X158129899Y-105592932D01*
X158379192Y-105726182D01*
X158649691Y-105808236D01*
X158860508Y-105829000D01*
X159401492Y-105829000D01*
X159612309Y-105808236D01*
X159882808Y-105726182D01*
X160132101Y-105592932D01*
X160350608Y-105413608D01*
X160529932Y-105195101D01*
X160663182Y-104945808D01*
X160724690Y-104743039D01*
X180399096Y-104743039D01*
X180409556Y-104800730D01*
X180515449Y-105062421D01*
X180670361Y-105298425D01*
X180868338Y-105499673D01*
X181101773Y-105658430D01*
X181361694Y-105768596D01*
X181638113Y-105825937D01*
X181864000Y-105673474D01*
X181864000Y-104521000D01*
X182118000Y-104521000D01*
X182118000Y-105673474D01*
X182343887Y-105825937D01*
X182620306Y-105768596D01*
X182880227Y-105658430D01*
X183113662Y-105499673D01*
X183311639Y-105298425D01*
X183466551Y-105062421D01*
X183572444Y-104800730D01*
X183582904Y-104743039D01*
X183460915Y-104521000D01*
X182118000Y-104521000D01*
X181864000Y-104521000D01*
X180521085Y-104521000D01*
X180399096Y-104743039D01*
X160724690Y-104743039D01*
X160745236Y-104675309D01*
X160772943Y-104394000D01*
X160745236Y-104112691D01*
X160663182Y-103842192D01*
X160529932Y-103592899D01*
X160350608Y-103374392D01*
X160132101Y-103195068D01*
X159999142Y-103124000D01*
X160132101Y-103052932D01*
X160350608Y-102873608D01*
X160529932Y-102655101D01*
X160663182Y-102405808D01*
X160745236Y-102135309D01*
X160772943Y-101854000D01*
X160745236Y-101572691D01*
X160663182Y-101302192D01*
X160529932Y-101052899D01*
X160350608Y-100834392D01*
X160132101Y-100655068D01*
X159999142Y-100584000D01*
X160132101Y-100512932D01*
X160350608Y-100333608D01*
X160529932Y-100115101D01*
X160663182Y-99865808D01*
X160745236Y-99595309D01*
X160772943Y-99314000D01*
X160745236Y-99032691D01*
X160663182Y-98762192D01*
X160529932Y-98512899D01*
X160350608Y-98294392D01*
X160132101Y-98115068D01*
X159999142Y-98044000D01*
X160132101Y-97972932D01*
X160350608Y-97793608D01*
X160529932Y-97575101D01*
X160663182Y-97325808D01*
X160745236Y-97055309D01*
X160772943Y-96774000D01*
X160745236Y-96492691D01*
X160663182Y-96222192D01*
X160529932Y-95972899D01*
X160350608Y-95754392D01*
X160132101Y-95575068D01*
X159999142Y-95504000D01*
X160132101Y-95432932D01*
X160350608Y-95253608D01*
X160529932Y-95035101D01*
X160663182Y-94785808D01*
X160745236Y-94515309D01*
X160772943Y-94234000D01*
X160745236Y-93952691D01*
X160663182Y-93682192D01*
X160529932Y-93432899D01*
X160350608Y-93214392D01*
X160132101Y-93035068D01*
X159999142Y-92964000D01*
X160132101Y-92892932D01*
X160350608Y-92713608D01*
X160529932Y-92495101D01*
X160663182Y-92245808D01*
X160745236Y-91975309D01*
X160772943Y-91694000D01*
X160745236Y-91412691D01*
X160663182Y-91142192D01*
X160529932Y-90892899D01*
X160350608Y-90674392D01*
X160132101Y-90495068D01*
X159999142Y-90424000D01*
X160132101Y-90352932D01*
X160350608Y-90173608D01*
X160529932Y-89955101D01*
X160663182Y-89705808D01*
X160745236Y-89435309D01*
X160772943Y-89154000D01*
X160745236Y-88872691D01*
X160663182Y-88602192D01*
X160529932Y-88352899D01*
X160397524Y-88191559D01*
X160485494Y-88144537D01*
X160582185Y-88065185D01*
X160661537Y-87968494D01*
X160720502Y-87858180D01*
X160756812Y-87738482D01*
X160769072Y-87614000D01*
X160769072Y-85614000D01*
X160756812Y-85489518D01*
X160720502Y-85369820D01*
X160661537Y-85259506D01*
X160582185Y-85162815D01*
X160485494Y-85083463D01*
X160375180Y-85024498D01*
X160255482Y-84988188D01*
X160131000Y-84975928D01*
X158131000Y-84975928D01*
X158006518Y-84988188D01*
X157886820Y-85024498D01*
X157776506Y-85083463D01*
X157679815Y-85162815D01*
X157600463Y-85259506D01*
X157541498Y-85369820D01*
X157505188Y-85489518D01*
X157492928Y-85614000D01*
X157492928Y-87614000D01*
X157505188Y-87738482D01*
X157541498Y-87858180D01*
X157600463Y-87968494D01*
X157679815Y-88065185D01*
X157776506Y-88144537D01*
X157864476Y-88191559D01*
X157732068Y-88352899D01*
X157598818Y-88602192D01*
X157516764Y-88872691D01*
X157489057Y-89154000D01*
X157516764Y-89435309D01*
X157598818Y-89705808D01*
X157732068Y-89955101D01*
X157911392Y-90173608D01*
X158129899Y-90352932D01*
X158262858Y-90424000D01*
X158129899Y-90495068D01*
X157911392Y-90674392D01*
X157732068Y-90892899D01*
X157598818Y-91142192D01*
X157516764Y-91412691D01*
X157489057Y-91694000D01*
X157516764Y-91975309D01*
X157598818Y-92245808D01*
X157732068Y-92495101D01*
X157911392Y-92713608D01*
X158129899Y-92892932D01*
X158262858Y-92964000D01*
X158129899Y-93035068D01*
X157911392Y-93214392D01*
X157732068Y-93432899D01*
X157598818Y-93682192D01*
X157516764Y-93952691D01*
X157489057Y-94234000D01*
X157516764Y-94515309D01*
X157598818Y-94785808D01*
X157732068Y-95035101D01*
X157911392Y-95253608D01*
X158129899Y-95432932D01*
X158262858Y-95504000D01*
X158129899Y-95575068D01*
X157911392Y-95754392D01*
X157732068Y-95972899D01*
X157710099Y-96014000D01*
X106971322Y-96014000D01*
X106933999Y-96010324D01*
X106896676Y-96014000D01*
X106896667Y-96014000D01*
X106785014Y-96024997D01*
X106641753Y-96068454D01*
X106509724Y-96139026D01*
X106509722Y-96139027D01*
X106509723Y-96139027D01*
X106422996Y-96210201D01*
X106422992Y-96210205D01*
X106393999Y-96233999D01*
X106370205Y-96262992D01*
X105882072Y-96751125D01*
X105882072Y-95924000D01*
X105869812Y-95799518D01*
X105833502Y-95679820D01*
X105774537Y-95569506D01*
X105695185Y-95472815D01*
X105598494Y-95393463D01*
X105488180Y-95334498D01*
X105368482Y-95298188D01*
X105244000Y-95285928D01*
X104671871Y-95285928D01*
X111268801Y-88688999D01*
X112253928Y-88688999D01*
X112253928Y-90054000D01*
X112266188Y-90178482D01*
X112302498Y-90298180D01*
X112361463Y-90408494D01*
X112440815Y-90505185D01*
X112537506Y-90584537D01*
X112647820Y-90643502D01*
X112767518Y-90679812D01*
X112892000Y-90692072D01*
X114692000Y-90692072D01*
X114816482Y-90679812D01*
X114936180Y-90643502D01*
X115046494Y-90584537D01*
X115143185Y-90505185D01*
X115222537Y-90408494D01*
X115281502Y-90298180D01*
X115317812Y-90178482D01*
X115330072Y-90054000D01*
X115330072Y-90023001D01*
X122422679Y-90023001D01*
X122460001Y-90026677D01*
X122497323Y-90023001D01*
X122497334Y-90023001D01*
X122608987Y-90012004D01*
X122752248Y-89968547D01*
X122884277Y-89897975D01*
X123000002Y-89803002D01*
X123023804Y-89773999D01*
X123556003Y-89241801D01*
X123585002Y-89218002D01*
X123637527Y-89154000D01*
X123679975Y-89102278D01*
X123750547Y-88970248D01*
X123771347Y-88901677D01*
X123794004Y-88826987D01*
X123805001Y-88715334D01*
X123805001Y-88715324D01*
X123808677Y-88678001D01*
X123805001Y-88640678D01*
X123805001Y-79614665D01*
X130518000Y-79614665D01*
X130518000Y-79897335D01*
X130573147Y-80174574D01*
X130681320Y-80435727D01*
X130838363Y-80670759D01*
X131038241Y-80870637D01*
X131273273Y-81027680D01*
X131534426Y-81135853D01*
X131811665Y-81191000D01*
X132094335Y-81191000D01*
X132371574Y-81135853D01*
X132632727Y-81027680D01*
X132867759Y-80870637D01*
X133067637Y-80670759D01*
X133224680Y-80435727D01*
X133332853Y-80174574D01*
X133388000Y-79897335D01*
X133388000Y-79614665D01*
X133332853Y-79337426D01*
X133224680Y-79076273D01*
X133067637Y-78841241D01*
X132867759Y-78641363D01*
X132713000Y-78537957D01*
X132713000Y-75752801D01*
X134553802Y-73912000D01*
X141294198Y-73912000D01*
X131568998Y-83637201D01*
X131540000Y-83660999D01*
X131516202Y-83689997D01*
X131516201Y-83689998D01*
X131445026Y-83776724D01*
X131374454Y-83908754D01*
X131330998Y-84052015D01*
X131316324Y-84201000D01*
X131320001Y-84238332D01*
X131320000Y-86919956D01*
X131165241Y-87023363D01*
X130965363Y-87223241D01*
X130808320Y-87458273D01*
X130700147Y-87719426D01*
X130645000Y-87996665D01*
X130645000Y-88279335D01*
X130700147Y-88556574D01*
X130808320Y-88817727D01*
X130965363Y-89052759D01*
X131165241Y-89252637D01*
X131400273Y-89409680D01*
X131661426Y-89517853D01*
X131938665Y-89573000D01*
X132221335Y-89573000D01*
X132498574Y-89517853D01*
X132759727Y-89409680D01*
X132994759Y-89252637D01*
X133194637Y-89052759D01*
X133351680Y-88817727D01*
X133459853Y-88556574D01*
X133515000Y-88279335D01*
X133515000Y-87996665D01*
X133459853Y-87719426D01*
X133351680Y-87458273D01*
X133194637Y-87223241D01*
X132994759Y-87023363D01*
X132840000Y-86919957D01*
X132840000Y-84515801D01*
X142681802Y-74674000D01*
X174183199Y-74674000D01*
X177802000Y-78292802D01*
X177802001Y-93307667D01*
X177798324Y-93345000D01*
X177812998Y-93493985D01*
X177856454Y-93637246D01*
X177927026Y-93769276D01*
X177998201Y-93856002D01*
X178022000Y-93885001D01*
X178050998Y-93908799D01*
X180436841Y-96294642D01*
X180376764Y-96492691D01*
X180349057Y-96774000D01*
X180376764Y-97055309D01*
X180458818Y-97325808D01*
X180592068Y-97575101D01*
X180771392Y-97793608D01*
X180989899Y-97972932D01*
X181122858Y-98044000D01*
X180989899Y-98115068D01*
X180771392Y-98294392D01*
X180592068Y-98512899D01*
X180458818Y-98762192D01*
X180376764Y-99032691D01*
X180349057Y-99314000D01*
X180376764Y-99595309D01*
X180458818Y-99865808D01*
X180592068Y-100115101D01*
X180771392Y-100333608D01*
X180989899Y-100512932D01*
X181122858Y-100584000D01*
X180989899Y-100655068D01*
X180771392Y-100834392D01*
X180592068Y-101052899D01*
X180458818Y-101302192D01*
X180376764Y-101572691D01*
X180349057Y-101854000D01*
X180376764Y-102135309D01*
X180458818Y-102405808D01*
X180592068Y-102655101D01*
X180771392Y-102873608D01*
X180989899Y-103052932D01*
X181119345Y-103122122D01*
X181101773Y-103129570D01*
X180868338Y-103288327D01*
X180670361Y-103489575D01*
X180515449Y-103725579D01*
X180409556Y-103987270D01*
X180399096Y-104044961D01*
X180521085Y-104267000D01*
X181864000Y-104267000D01*
X181864000Y-104247000D01*
X182118000Y-104247000D01*
X182118000Y-104267000D01*
X183460915Y-104267000D01*
X183582904Y-104044961D01*
X183572444Y-103987270D01*
X183466551Y-103725579D01*
X183311639Y-103489575D01*
X183113662Y-103288327D01*
X182880227Y-103129570D01*
X182862655Y-103122122D01*
X182992101Y-103052932D01*
X183210608Y-102873608D01*
X183389932Y-102655101D01*
X183523182Y-102405808D01*
X183605236Y-102135309D01*
X183632943Y-101854000D01*
X183605236Y-101572691D01*
X183523182Y-101302192D01*
X183389932Y-101052899D01*
X183210608Y-100834392D01*
X182992101Y-100655068D01*
X182859142Y-100584000D01*
X182992101Y-100512932D01*
X183210608Y-100333608D01*
X183389932Y-100115101D01*
X183523182Y-99865808D01*
X183605236Y-99595309D01*
X183632943Y-99314000D01*
X183605236Y-99032691D01*
X183523182Y-98762192D01*
X183389932Y-98512899D01*
X183210608Y-98294392D01*
X182992101Y-98115068D01*
X182859142Y-98044000D01*
X182992101Y-97972932D01*
X183210608Y-97793608D01*
X183389932Y-97575101D01*
X183523182Y-97325808D01*
X183605236Y-97055309D01*
X183632943Y-96774000D01*
X183605236Y-96492691D01*
X183523182Y-96222192D01*
X183389932Y-95972899D01*
X183210608Y-95754392D01*
X182992101Y-95575068D01*
X182859142Y-95504000D01*
X182992101Y-95432932D01*
X183210608Y-95253608D01*
X183389932Y-95035101D01*
X183523182Y-94785808D01*
X183605236Y-94515309D01*
X183632943Y-94234000D01*
X183605236Y-93952691D01*
X183523182Y-93682192D01*
X183389932Y-93432899D01*
X183210608Y-93214392D01*
X182992101Y-93035068D01*
X182859142Y-92964000D01*
X182992101Y-92892932D01*
X183210608Y-92713608D01*
X183389932Y-92495101D01*
X183523182Y-92245808D01*
X183605236Y-91975309D01*
X183632943Y-91694000D01*
X183605236Y-91412691D01*
X183545159Y-91214642D01*
X189233008Y-85526795D01*
X189262001Y-85503001D01*
X189285795Y-85474008D01*
X189285799Y-85474004D01*
X189356973Y-85387277D01*
X189356974Y-85387276D01*
X189427546Y-85255247D01*
X189471003Y-85111986D01*
X189482000Y-85000333D01*
X189482000Y-85000324D01*
X189485676Y-84963001D01*
X189482000Y-84925678D01*
X189482000Y-78777322D01*
X189485676Y-78739999D01*
X189482000Y-78702676D01*
X189482000Y-78702667D01*
X189471003Y-78591014D01*
X189427546Y-78447753D01*
X189356974Y-78315724D01*
X189343811Y-78299685D01*
X189285799Y-78228996D01*
X189285795Y-78228992D01*
X189262001Y-78199999D01*
X189233009Y-78176206D01*
X186630675Y-75573872D01*
X192205000Y-75573872D01*
X192205000Y-76014128D01*
X192290890Y-76445925D01*
X192459369Y-76852669D01*
X192703962Y-77218729D01*
X193015271Y-77530038D01*
X193381331Y-77774631D01*
X193788075Y-77943110D01*
X194219872Y-78029000D01*
X194660128Y-78029000D01*
X195091925Y-77943110D01*
X195498669Y-77774631D01*
X195864729Y-77530038D01*
X196176038Y-77218729D01*
X196420631Y-76852669D01*
X196589110Y-76445925D01*
X196675000Y-76014128D01*
X196675000Y-75573872D01*
X196589110Y-75142075D01*
X196420631Y-74735331D01*
X196176038Y-74369271D01*
X195864729Y-74057962D01*
X195498669Y-73813369D01*
X195091925Y-73644890D01*
X194660128Y-73559000D01*
X194219872Y-73559000D01*
X193788075Y-73644890D01*
X193381331Y-73813369D01*
X193015271Y-74057962D01*
X192703962Y-74369271D01*
X192459369Y-74735331D01*
X192290890Y-75142075D01*
X192205000Y-75573872D01*
X186630675Y-75573872D01*
X183697804Y-72641003D01*
X183674001Y-72611999D01*
X183558276Y-72517026D01*
X183426247Y-72446454D01*
X183282986Y-72402997D01*
X183171333Y-72392000D01*
X183171322Y-72392000D01*
X183134000Y-72388324D01*
X183096678Y-72392000D01*
X134276322Y-72392000D01*
X134238999Y-72388324D01*
X134201676Y-72392000D01*
X134201667Y-72392000D01*
X134090014Y-72402997D01*
X133946753Y-72446454D01*
X133814724Y-72517026D01*
X133698999Y-72611999D01*
X133675201Y-72640997D01*
X131441998Y-74874201D01*
X131413000Y-74897999D01*
X131389202Y-74926997D01*
X131389201Y-74926998D01*
X131318026Y-75013724D01*
X131247454Y-75145754D01*
X131203998Y-75289015D01*
X131189324Y-75438000D01*
X131193001Y-75475332D01*
X131193000Y-78537956D01*
X131038241Y-78641363D01*
X130838363Y-78841241D01*
X130681320Y-79076273D01*
X130573147Y-79337426D01*
X130518000Y-79614665D01*
X123805001Y-79614665D01*
X123805001Y-79380321D01*
X123808677Y-79342998D01*
X123805001Y-79305675D01*
X123805001Y-79305666D01*
X123794004Y-79194013D01*
X123750547Y-79050752D01*
X123682393Y-78923246D01*
X123679975Y-78918722D01*
X123608800Y-78831996D01*
X123585002Y-78802998D01*
X123556005Y-78779201D01*
X122896804Y-78120001D01*
X122873002Y-78090998D01*
X122757277Y-77996025D01*
X122625248Y-77925453D01*
X122481987Y-77881996D01*
X122370334Y-77870999D01*
X122370323Y-77870999D01*
X122333001Y-77867323D01*
X122295679Y-77870999D01*
X119652914Y-77870999D01*
X119615589Y-77867323D01*
X119578264Y-77870999D01*
X119578256Y-77870999D01*
X119466603Y-77881996D01*
X119323342Y-77925453D01*
X119191313Y-77996025D01*
X119075588Y-78090998D01*
X119051790Y-78119996D01*
X102257988Y-94913799D01*
X102228990Y-94937597D01*
X102205192Y-94966595D01*
X102205191Y-94966596D01*
X102134016Y-95053322D01*
X102063444Y-95185352D01*
X102019988Y-95328613D01*
X102005314Y-95477598D01*
X102008991Y-95514930D01*
X102008989Y-105107078D01*
X102005313Y-105144401D01*
X92100000Y-105144401D01*
X92100000Y-75573872D01*
X102205000Y-75573872D01*
X102205000Y-76014128D01*
X102290890Y-76445925D01*
X102459369Y-76852669D01*
X102703962Y-77218729D01*
X103015271Y-77530038D01*
X103381331Y-77774631D01*
X103788075Y-77943110D01*
X104219872Y-78029000D01*
X104660128Y-78029000D01*
X105091925Y-77943110D01*
X105498669Y-77774631D01*
X105864729Y-77530038D01*
X106176038Y-77218729D01*
X106420631Y-76852669D01*
X106589110Y-76445925D01*
X106675000Y-76014128D01*
X106675000Y-75573872D01*
X106589110Y-75142075D01*
X106420631Y-74735331D01*
X106176038Y-74369271D01*
X105864729Y-74057962D01*
X105498669Y-73813369D01*
X105091925Y-73644890D01*
X104660128Y-73559000D01*
X104219872Y-73559000D01*
X103788075Y-73644890D01*
X103381331Y-73813369D01*
X103015271Y-74057962D01*
X102703962Y-74369271D01*
X102459369Y-74735331D01*
X102290890Y-75142075D01*
X102205000Y-75573872D01*
X92100000Y-75573872D01*
X92100000Y-66954000D01*
X206780000Y-66954000D01*
X206780001Y-129634000D01*
G37*
%TD.AperFunction*%
%TD*%
M02*
