%TF.GenerationSoftware,KiCad,Pcbnew,(5.1.10-1-10_14)*%
%TF.CreationDate,2021-10-17T20:06:43+02:00*%
%TF.ProjectId,Distance_Measurement,44697374-616e-4636-955f-4d6561737572,01*%
%TF.SameCoordinates,Original*%
%TF.FileFunction,Copper,L2,Bot*%
%TF.FilePolarity,Positive*%
%FSLAX46Y46*%
G04 Gerber Fmt 4.6, Leading zero omitted, Abs format (unit mm)*
G04 Created by KiCad (PCBNEW (5.1.10-1-10_14)) date 2021-10-17 20:06:43*
%MOMM*%
%LPD*%
G01*
G04 APERTURE LIST*
%TA.AperFunction,ComponentPad*%
%ADD10O,2.000000X1.600000*%
%TD*%
%TA.AperFunction,ComponentPad*%
%ADD11R,2.000000X2.000000*%
%TD*%
%TA.AperFunction,ComponentPad*%
%ADD12O,1.600000X1.600000*%
%TD*%
%TA.AperFunction,ComponentPad*%
%ADD13C,1.600000*%
%TD*%
%TA.AperFunction,ComponentPad*%
%ADD14C,1.850000*%
%TD*%
%TA.AperFunction,ComponentPad*%
%ADD15R,1.850000X1.850000*%
%TD*%
%TA.AperFunction,ComponentPad*%
%ADD16R,1.500000X1.500000*%
%TD*%
%TA.AperFunction,ComponentPad*%
%ADD17C,1.500000*%
%TD*%
%TA.AperFunction,ComponentPad*%
%ADD18C,1.800000*%
%TD*%
%TA.AperFunction,ComponentPad*%
%ADD19R,1.800000X1.800000*%
%TD*%
%TA.AperFunction,ComponentPad*%
%ADD20O,1.700000X1.700000*%
%TD*%
%TA.AperFunction,ComponentPad*%
%ADD21R,1.700000X1.700000*%
%TD*%
%TA.AperFunction,ComponentPad*%
%ADD22C,2.200000*%
%TD*%
%TA.AperFunction,ComponentPad*%
%ADD23R,2.200000X2.200000*%
%TD*%
%TA.AperFunction,Conductor*%
%ADD24C,0.254000*%
%TD*%
%TA.AperFunction,Conductor*%
%ADD25C,0.100000*%
%TD*%
G04 APERTURE END LIST*
D10*
%TO.P,U1,16*%
%TO.N,N/C*%
X181991000Y-86614000D03*
%TO.P,U1,15*%
X181991000Y-89154000D03*
%TO.P,U1,14*%
%TO.N,Net-(R1-Pad1)*%
X181991000Y-91694000D03*
%TO.P,U1,13*%
%TO.N,N/C*%
X181991000Y-94234000D03*
%TO.P,U1,12*%
%TO.N,Net-(R2-Pad1)*%
X181991000Y-96774000D03*
%TO.P,U1,11*%
%TO.N,N/C*%
X181991000Y-99314000D03*
%TO.P,U1,10*%
%TO.N,GND*%
X181991000Y-101854000D03*
%TO.P,U1,9*%
%TO.N,+5V*%
X181991000Y-104394000D03*
%TO.P,U1,8*%
%TO.N,N/C*%
X159131000Y-104394000D03*
%TO.P,U1,7*%
X159131000Y-101854000D03*
%TO.P,U1,6*%
%TO.N,Net-(J1-Pad3)*%
X159131000Y-99314000D03*
%TO.P,U1,5*%
%TO.N,Net-(J1-Pad2)*%
X159131000Y-96774000D03*
%TO.P,U1,4*%
%TO.N,N/C*%
X159131000Y-94234000D03*
%TO.P,U1,3*%
X159131000Y-91694000D03*
D11*
%TO.P,U1,1*%
X159131000Y-86614000D03*
D10*
%TO.P,U1,2*%
X159131000Y-89154000D03*
%TD*%
D12*
%TO.P,R2,2*%
%TO.N,Net-(Q1-Pad2)*%
X121920000Y-88138000D03*
D13*
%TO.P,R2,1*%
%TO.N,Net-(R2-Pad1)*%
X132080000Y-88138000D03*
%TD*%
D14*
%TO.P,LS1,2*%
%TO.N,Net-(D1-Pad1)*%
X142494000Y-118538000D03*
D15*
%TO.P,LS1,1*%
%TO.N,Net-(LS1-Pad1)*%
X142494000Y-113538000D03*
%TD*%
D16*
%TO.P,Q1,1*%
%TO.N,Net-(D1-Pad1)*%
X126238000Y-111633000D03*
D17*
%TO.P,Q1,3*%
%TO.N,Net-(LS1-Pad1)*%
X126238000Y-106553000D03*
%TO.P,Q1,2*%
%TO.N,Net-(Q1-Pad2)*%
X126238000Y-109093000D03*
%TD*%
D18*
%TO.P,D1,2*%
%TO.N,Net-(D1-Pad2)*%
X113792000Y-86614000D03*
D19*
%TO.P,D1,1*%
%TO.N,Net-(D1-Pad1)*%
X113792000Y-89154000D03*
%TD*%
D20*
%TO.P,J1,4*%
%TO.N,+5V*%
X104394000Y-104394000D03*
%TO.P,J1,3*%
%TO.N,Net-(J1-Pad3)*%
X104394000Y-101854000D03*
%TO.P,J1,2*%
%TO.N,Net-(J1-Pad2)*%
X104394000Y-99314000D03*
D21*
%TO.P,J1,1*%
%TO.N,GND*%
X104394000Y-96774000D03*
%TD*%
D22*
%TO.P,J2,2*%
%TO.N,GND*%
X176911000Y-121793000D03*
D23*
%TO.P,J2,1*%
%TO.N,+5V*%
X176911000Y-124333000D03*
%TD*%
D12*
%TO.P,R1,2*%
%TO.N,Net-(D1-Pad2)*%
X121793000Y-79756000D03*
D13*
%TO.P,R1,1*%
%TO.N,Net-(R1-Pad1)*%
X131953000Y-79756000D03*
%TD*%
D24*
%TO.N,GND*%
X206780001Y-129634000D02*
X92100000Y-129634000D01*
X92100000Y-120573872D01*
X102205000Y-120573872D01*
X102205000Y-121014128D01*
X102290890Y-121445925D01*
X102459369Y-121852669D01*
X102703962Y-122218729D01*
X103015271Y-122530038D01*
X103381331Y-122774631D01*
X103788075Y-122943110D01*
X104219872Y-123029000D01*
X104660128Y-123029000D01*
X105091925Y-122943110D01*
X105498669Y-122774631D01*
X105864729Y-122530038D01*
X106176038Y-122218729D01*
X106420631Y-121852669D01*
X106421057Y-121851639D01*
X175168591Y-121851639D01*
X175213511Y-122190439D01*
X175323664Y-122513966D01*
X175429662Y-122712274D01*
X175439733Y-122716228D01*
X175359815Y-122781815D01*
X175280463Y-122878506D01*
X175221498Y-122988820D01*
X175185188Y-123108518D01*
X175172928Y-123233000D01*
X175172928Y-125433000D01*
X175185188Y-125557482D01*
X175221498Y-125677180D01*
X175280463Y-125787494D01*
X175359815Y-125884185D01*
X175456506Y-125963537D01*
X175566820Y-126022502D01*
X175686518Y-126058812D01*
X175811000Y-126071072D01*
X178011000Y-126071072D01*
X178135482Y-126058812D01*
X178255180Y-126022502D01*
X178365494Y-125963537D01*
X178462185Y-125884185D01*
X178541537Y-125787494D01*
X178600502Y-125677180D01*
X178636812Y-125557482D01*
X178649072Y-125433000D01*
X178649072Y-125206916D01*
X178695606Y-125253450D01*
X178889692Y-125383134D01*
X179105348Y-125472461D01*
X179334288Y-125518000D01*
X179567712Y-125518000D01*
X179796652Y-125472461D01*
X180012308Y-125383134D01*
X180206394Y-125253450D01*
X180371450Y-125088394D01*
X180501134Y-124894308D01*
X180590461Y-124678652D01*
X180636000Y-124449712D01*
X180636000Y-124216288D01*
X180590461Y-123987348D01*
X180501134Y-123771692D01*
X180371450Y-123577606D01*
X180206394Y-123412550D01*
X180012308Y-123282866D01*
X179796652Y-123193539D01*
X179567712Y-123148000D01*
X179334288Y-123148000D01*
X179105348Y-123193539D01*
X178889692Y-123282866D01*
X178695606Y-123412550D01*
X178649072Y-123459084D01*
X178649072Y-123233000D01*
X178636812Y-123108518D01*
X178600502Y-122988820D01*
X178541537Y-122878506D01*
X178462185Y-122781815D01*
X178382267Y-122716228D01*
X178392338Y-122712274D01*
X178497387Y-122498762D01*
X178530550Y-122548394D01*
X178695606Y-122713450D01*
X178889692Y-122843134D01*
X179105348Y-122932461D01*
X179334288Y-122978000D01*
X179567712Y-122978000D01*
X179796652Y-122932461D01*
X180012308Y-122843134D01*
X180206394Y-122713450D01*
X180371450Y-122548394D01*
X180501134Y-122354308D01*
X180590461Y-122138652D01*
X180636000Y-121909712D01*
X180636000Y-121676288D01*
X180590461Y-121447348D01*
X180501134Y-121231692D01*
X180371450Y-121037606D01*
X180206394Y-120872550D01*
X180012308Y-120742866D01*
X179796652Y-120653539D01*
X179567712Y-120608000D01*
X179334288Y-120608000D01*
X179105348Y-120653539D01*
X178889692Y-120742866D01*
X178695606Y-120872550D01*
X178530550Y-121037606D01*
X178501445Y-121081165D01*
X178498336Y-121072034D01*
X178392338Y-120873726D01*
X178117712Y-120765893D01*
X177090605Y-121793000D01*
X177104748Y-121807143D01*
X176925143Y-121986748D01*
X176911000Y-121972605D01*
X176896858Y-121986748D01*
X176717253Y-121807143D01*
X176731395Y-121793000D01*
X175704288Y-120765893D01*
X175429662Y-120873726D01*
X175278784Y-121180384D01*
X175190631Y-121510585D01*
X175168591Y-121851639D01*
X106421057Y-121851639D01*
X106589110Y-121445925D01*
X106675000Y-121014128D01*
X106675000Y-120586288D01*
X175883893Y-120586288D01*
X176911000Y-121613395D01*
X177938107Y-120586288D01*
X177933232Y-120573872D01*
X192205000Y-120573872D01*
X192205000Y-121014128D01*
X192290890Y-121445925D01*
X192459369Y-121852669D01*
X192703962Y-122218729D01*
X193015271Y-122530038D01*
X193381331Y-122774631D01*
X193788075Y-122943110D01*
X194219872Y-123029000D01*
X194660128Y-123029000D01*
X195091925Y-122943110D01*
X195498669Y-122774631D01*
X195864729Y-122530038D01*
X196176038Y-122218729D01*
X196420631Y-121852669D01*
X196589110Y-121445925D01*
X196675000Y-121014128D01*
X196675000Y-120573872D01*
X196589110Y-120142075D01*
X196420631Y-119735331D01*
X196176038Y-119369271D01*
X195864729Y-119057962D01*
X195498669Y-118813369D01*
X195091925Y-118644890D01*
X194660128Y-118559000D01*
X194219872Y-118559000D01*
X193788075Y-118644890D01*
X193381331Y-118813369D01*
X193015271Y-119057962D01*
X192703962Y-119369271D01*
X192459369Y-119735331D01*
X192290890Y-120142075D01*
X192205000Y-120573872D01*
X177933232Y-120573872D01*
X177830274Y-120311662D01*
X177523616Y-120160784D01*
X177193415Y-120072631D01*
X176852361Y-120050591D01*
X176513561Y-120095511D01*
X176190034Y-120205664D01*
X175991726Y-120311662D01*
X175883893Y-120586288D01*
X106675000Y-120586288D01*
X106675000Y-120573872D01*
X106589110Y-120142075D01*
X106420631Y-119735331D01*
X106176038Y-119369271D01*
X105864729Y-119057962D01*
X105498669Y-118813369D01*
X105091925Y-118644890D01*
X104660128Y-118559000D01*
X104219872Y-118559000D01*
X103788075Y-118644890D01*
X103381331Y-118813369D01*
X103015271Y-119057962D01*
X102703962Y-119369271D01*
X102459369Y-119735331D01*
X102290890Y-120142075D01*
X102205000Y-120573872D01*
X92100000Y-120573872D01*
X92100000Y-118384353D01*
X140934000Y-118384353D01*
X140934000Y-118691647D01*
X140993950Y-118993035D01*
X141111546Y-119276937D01*
X141282269Y-119532442D01*
X141499558Y-119749731D01*
X141755063Y-119920454D01*
X142038965Y-120038050D01*
X142340353Y-120098000D01*
X142647647Y-120098000D01*
X142949035Y-120038050D01*
X143232937Y-119920454D01*
X143488442Y-119749731D01*
X143705731Y-119532442D01*
X143876454Y-119276937D01*
X143994050Y-118993035D01*
X144054000Y-118691647D01*
X144054000Y-118384353D01*
X143994050Y-118082965D01*
X143876454Y-117799063D01*
X143705731Y-117543558D01*
X143488442Y-117326269D01*
X143232937Y-117155546D01*
X142949035Y-117037950D01*
X142647647Y-116978000D01*
X142340353Y-116978000D01*
X142038965Y-117037950D01*
X141755063Y-117155546D01*
X141499558Y-117326269D01*
X141282269Y-117543558D01*
X141111546Y-117799063D01*
X140993950Y-118082965D01*
X140934000Y-118384353D01*
X92100000Y-118384353D01*
X92100000Y-110883000D01*
X124849928Y-110883000D01*
X124849928Y-112383000D01*
X124862188Y-112507482D01*
X124898498Y-112627180D01*
X124957463Y-112737494D01*
X125036815Y-112834185D01*
X125133506Y-112913537D01*
X125243820Y-112972502D01*
X125363518Y-113008812D01*
X125488000Y-113021072D01*
X126988000Y-113021072D01*
X127112482Y-113008812D01*
X127232180Y-112972502D01*
X127342494Y-112913537D01*
X127439185Y-112834185D01*
X127518537Y-112737494D01*
X127577502Y-112627180D01*
X127581803Y-112613000D01*
X140930928Y-112613000D01*
X140930928Y-114463000D01*
X140943188Y-114587482D01*
X140979498Y-114707180D01*
X141038463Y-114817494D01*
X141117815Y-114914185D01*
X141214506Y-114993537D01*
X141324820Y-115052502D01*
X141444518Y-115088812D01*
X141569000Y-115101072D01*
X143419000Y-115101072D01*
X143543482Y-115088812D01*
X143663180Y-115052502D01*
X143773494Y-114993537D01*
X143870185Y-114914185D01*
X143949537Y-114817494D01*
X144008502Y-114707180D01*
X144044812Y-114587482D01*
X144057072Y-114463000D01*
X144057072Y-112613000D01*
X144044812Y-112488518D01*
X144008502Y-112368820D01*
X143949537Y-112258506D01*
X143870185Y-112161815D01*
X143773494Y-112082463D01*
X143663180Y-112023498D01*
X143543482Y-111987188D01*
X143419000Y-111974928D01*
X141569000Y-111974928D01*
X141444518Y-111987188D01*
X141324820Y-112023498D01*
X141214506Y-112082463D01*
X141117815Y-112161815D01*
X141038463Y-112258506D01*
X140979498Y-112368820D01*
X140943188Y-112488518D01*
X140930928Y-112613000D01*
X127581803Y-112613000D01*
X127613812Y-112507482D01*
X127626072Y-112383000D01*
X127626072Y-110883000D01*
X127613812Y-110758518D01*
X127577502Y-110638820D01*
X127518537Y-110528506D01*
X127439185Y-110431815D01*
X127342494Y-110352463D01*
X127232180Y-110293498D01*
X127112482Y-110257188D01*
X127004517Y-110246555D01*
X127120886Y-110168799D01*
X127313799Y-109975886D01*
X127465371Y-109749043D01*
X127569775Y-109496989D01*
X127623000Y-109229411D01*
X127623000Y-108956589D01*
X127569775Y-108689011D01*
X127465371Y-108436957D01*
X127313799Y-108210114D01*
X127120886Y-108017201D01*
X126894043Y-107865629D01*
X126791127Y-107823000D01*
X126894043Y-107780371D01*
X127120886Y-107628799D01*
X127313799Y-107435886D01*
X127465371Y-107209043D01*
X127569775Y-106956989D01*
X127623000Y-106689411D01*
X127623000Y-106416589D01*
X127569775Y-106149011D01*
X127465371Y-105896957D01*
X127313799Y-105670114D01*
X127120886Y-105477201D01*
X126894043Y-105325629D01*
X126641989Y-105221225D01*
X126374411Y-105168000D01*
X126101589Y-105168000D01*
X125834011Y-105221225D01*
X125581957Y-105325629D01*
X125355114Y-105477201D01*
X125162201Y-105670114D01*
X125010629Y-105896957D01*
X124906225Y-106149011D01*
X124853000Y-106416589D01*
X124853000Y-106689411D01*
X124906225Y-106956989D01*
X125010629Y-107209043D01*
X125162201Y-107435886D01*
X125355114Y-107628799D01*
X125581957Y-107780371D01*
X125684873Y-107823000D01*
X125581957Y-107865629D01*
X125355114Y-108017201D01*
X125162201Y-108210114D01*
X125010629Y-108436957D01*
X124906225Y-108689011D01*
X124853000Y-108956589D01*
X124853000Y-109229411D01*
X124906225Y-109496989D01*
X125010629Y-109749043D01*
X125162201Y-109975886D01*
X125355114Y-110168799D01*
X125471483Y-110246555D01*
X125363518Y-110257188D01*
X125243820Y-110293498D01*
X125133506Y-110352463D01*
X125036815Y-110431815D01*
X124957463Y-110528506D01*
X124898498Y-110638820D01*
X124862188Y-110758518D01*
X124849928Y-110883000D01*
X92100000Y-110883000D01*
X92100000Y-97624000D01*
X102905928Y-97624000D01*
X102918188Y-97748482D01*
X102954498Y-97868180D01*
X103013463Y-97978494D01*
X103092815Y-98075185D01*
X103189506Y-98154537D01*
X103299820Y-98213502D01*
X103372380Y-98235513D01*
X103240525Y-98367368D01*
X103078010Y-98610589D01*
X102966068Y-98880842D01*
X102909000Y-99167740D01*
X102909000Y-99460260D01*
X102966068Y-99747158D01*
X103078010Y-100017411D01*
X103240525Y-100260632D01*
X103447368Y-100467475D01*
X103621760Y-100584000D01*
X103447368Y-100700525D01*
X103240525Y-100907368D01*
X103078010Y-101150589D01*
X102966068Y-101420842D01*
X102909000Y-101707740D01*
X102909000Y-102000260D01*
X102966068Y-102287158D01*
X103078010Y-102557411D01*
X103240525Y-102800632D01*
X103447368Y-103007475D01*
X103621760Y-103124000D01*
X103447368Y-103240525D01*
X103240525Y-103447368D01*
X103078010Y-103690589D01*
X102966068Y-103960842D01*
X102909000Y-104247740D01*
X102909000Y-104540260D01*
X102966068Y-104827158D01*
X103078010Y-105097411D01*
X103240525Y-105340632D01*
X103447368Y-105547475D01*
X103690589Y-105709990D01*
X103960842Y-105821932D01*
X104247740Y-105879000D01*
X104540260Y-105879000D01*
X104827158Y-105821932D01*
X105097411Y-105709990D01*
X105340632Y-105547475D01*
X105547475Y-105340632D01*
X105709990Y-105097411D01*
X105821932Y-104827158D01*
X105879000Y-104540260D01*
X105879000Y-104247740D01*
X105821932Y-103960842D01*
X105709990Y-103690589D01*
X105547475Y-103447368D01*
X105340632Y-103240525D01*
X105166240Y-103124000D01*
X105340632Y-103007475D01*
X105547475Y-102800632D01*
X105709990Y-102557411D01*
X105821932Y-102287158D01*
X105879000Y-102000260D01*
X105879000Y-101707740D01*
X105821932Y-101420842D01*
X105709990Y-101150589D01*
X105547475Y-100907368D01*
X105340632Y-100700525D01*
X105166240Y-100584000D01*
X105340632Y-100467475D01*
X105547475Y-100260632D01*
X105709990Y-100017411D01*
X105821932Y-99747158D01*
X105879000Y-99460260D01*
X105879000Y-99167740D01*
X105821932Y-98880842D01*
X105709990Y-98610589D01*
X105547475Y-98367368D01*
X105415620Y-98235513D01*
X105488180Y-98213502D01*
X105598494Y-98154537D01*
X105695185Y-98075185D01*
X105774537Y-97978494D01*
X105833502Y-97868180D01*
X105869812Y-97748482D01*
X105882072Y-97624000D01*
X105879000Y-97059750D01*
X105720250Y-96901000D01*
X104521000Y-96901000D01*
X104521000Y-96921000D01*
X104267000Y-96921000D01*
X104267000Y-96901000D01*
X103067750Y-96901000D01*
X102909000Y-97059750D01*
X102905928Y-97624000D01*
X92100000Y-97624000D01*
X92100000Y-95924000D01*
X102905928Y-95924000D01*
X102909000Y-96488250D01*
X103067750Y-96647000D01*
X104267000Y-96647000D01*
X104267000Y-95447750D01*
X104521000Y-95447750D01*
X104521000Y-96647000D01*
X105720250Y-96647000D01*
X105879000Y-96488250D01*
X105882072Y-95924000D01*
X105869812Y-95799518D01*
X105833502Y-95679820D01*
X105774537Y-95569506D01*
X105695185Y-95472815D01*
X105598494Y-95393463D01*
X105488180Y-95334498D01*
X105368482Y-95298188D01*
X105244000Y-95285928D01*
X104679750Y-95289000D01*
X104521000Y-95447750D01*
X104267000Y-95447750D01*
X104108250Y-95289000D01*
X103544000Y-95285928D01*
X103419518Y-95298188D01*
X103299820Y-95334498D01*
X103189506Y-95393463D01*
X103092815Y-95472815D01*
X103013463Y-95569506D01*
X102954498Y-95679820D01*
X102918188Y-95799518D01*
X102905928Y-95924000D01*
X92100000Y-95924000D01*
X92100000Y-88254000D01*
X112253928Y-88254000D01*
X112253928Y-90054000D01*
X112266188Y-90178482D01*
X112302498Y-90298180D01*
X112361463Y-90408494D01*
X112440815Y-90505185D01*
X112537506Y-90584537D01*
X112647820Y-90643502D01*
X112767518Y-90679812D01*
X112892000Y-90692072D01*
X114692000Y-90692072D01*
X114816482Y-90679812D01*
X114936180Y-90643502D01*
X115046494Y-90584537D01*
X115143185Y-90505185D01*
X115222537Y-90408494D01*
X115281502Y-90298180D01*
X115317812Y-90178482D01*
X115330072Y-90054000D01*
X115330072Y-88254000D01*
X115317812Y-88129518D01*
X115281502Y-88009820D01*
X115274471Y-87996665D01*
X120485000Y-87996665D01*
X120485000Y-88279335D01*
X120540147Y-88556574D01*
X120648320Y-88817727D01*
X120805363Y-89052759D01*
X121005241Y-89252637D01*
X121240273Y-89409680D01*
X121501426Y-89517853D01*
X121778665Y-89573000D01*
X122061335Y-89573000D01*
X122338574Y-89517853D01*
X122599727Y-89409680D01*
X122834759Y-89252637D01*
X123034637Y-89052759D01*
X123191680Y-88817727D01*
X123299853Y-88556574D01*
X123355000Y-88279335D01*
X123355000Y-87996665D01*
X130645000Y-87996665D01*
X130645000Y-88279335D01*
X130700147Y-88556574D01*
X130808320Y-88817727D01*
X130965363Y-89052759D01*
X131165241Y-89252637D01*
X131400273Y-89409680D01*
X131661426Y-89517853D01*
X131938665Y-89573000D01*
X132221335Y-89573000D01*
X132498574Y-89517853D01*
X132759727Y-89409680D01*
X132994759Y-89252637D01*
X133093396Y-89154000D01*
X157489057Y-89154000D01*
X157516764Y-89435309D01*
X157598818Y-89705808D01*
X157732068Y-89955101D01*
X157911392Y-90173608D01*
X158129899Y-90352932D01*
X158262858Y-90424000D01*
X158129899Y-90495068D01*
X157911392Y-90674392D01*
X157732068Y-90892899D01*
X157598818Y-91142192D01*
X157516764Y-91412691D01*
X157489057Y-91694000D01*
X157516764Y-91975309D01*
X157598818Y-92245808D01*
X157732068Y-92495101D01*
X157911392Y-92713608D01*
X158129899Y-92892932D01*
X158262858Y-92964000D01*
X158129899Y-93035068D01*
X157911392Y-93214392D01*
X157732068Y-93432899D01*
X157598818Y-93682192D01*
X157516764Y-93952691D01*
X157489057Y-94234000D01*
X157516764Y-94515309D01*
X157598818Y-94785808D01*
X157732068Y-95035101D01*
X157911392Y-95253608D01*
X158129899Y-95432932D01*
X158262858Y-95504000D01*
X158129899Y-95575068D01*
X157911392Y-95754392D01*
X157732068Y-95972899D01*
X157598818Y-96222192D01*
X157516764Y-96492691D01*
X157489057Y-96774000D01*
X157516764Y-97055309D01*
X157598818Y-97325808D01*
X157732068Y-97575101D01*
X157911392Y-97793608D01*
X158129899Y-97972932D01*
X158262858Y-98044000D01*
X158129899Y-98115068D01*
X157911392Y-98294392D01*
X157732068Y-98512899D01*
X157598818Y-98762192D01*
X157516764Y-99032691D01*
X157489057Y-99314000D01*
X157516764Y-99595309D01*
X157598818Y-99865808D01*
X157732068Y-100115101D01*
X157911392Y-100333608D01*
X158129899Y-100512932D01*
X158262858Y-100584000D01*
X158129899Y-100655068D01*
X157911392Y-100834392D01*
X157732068Y-101052899D01*
X157598818Y-101302192D01*
X157516764Y-101572691D01*
X157489057Y-101854000D01*
X157516764Y-102135309D01*
X157598818Y-102405808D01*
X157732068Y-102655101D01*
X157911392Y-102873608D01*
X158129899Y-103052932D01*
X158262858Y-103124000D01*
X158129899Y-103195068D01*
X157911392Y-103374392D01*
X157732068Y-103592899D01*
X157598818Y-103842192D01*
X157516764Y-104112691D01*
X157489057Y-104394000D01*
X157516764Y-104675309D01*
X157598818Y-104945808D01*
X157732068Y-105195101D01*
X157911392Y-105413608D01*
X158129899Y-105592932D01*
X158379192Y-105726182D01*
X158649691Y-105808236D01*
X158860508Y-105829000D01*
X159401492Y-105829000D01*
X159612309Y-105808236D01*
X159882808Y-105726182D01*
X160132101Y-105592932D01*
X160350608Y-105413608D01*
X160529932Y-105195101D01*
X160663182Y-104945808D01*
X160745236Y-104675309D01*
X160772943Y-104394000D01*
X180349057Y-104394000D01*
X180376764Y-104675309D01*
X180458818Y-104945808D01*
X180592068Y-105195101D01*
X180771392Y-105413608D01*
X180989899Y-105592932D01*
X181239192Y-105726182D01*
X181509691Y-105808236D01*
X181720508Y-105829000D01*
X182261492Y-105829000D01*
X182472309Y-105808236D01*
X182742808Y-105726182D01*
X182992101Y-105592932D01*
X183210608Y-105413608D01*
X183389932Y-105195101D01*
X183523182Y-104945808D01*
X183605236Y-104675309D01*
X183632943Y-104394000D01*
X183605236Y-104112691D01*
X183523182Y-103842192D01*
X183389932Y-103592899D01*
X183210608Y-103374392D01*
X182992101Y-103195068D01*
X182862655Y-103125878D01*
X182880227Y-103118430D01*
X183113662Y-102959673D01*
X183311639Y-102758425D01*
X183466551Y-102522421D01*
X183572444Y-102260730D01*
X183582904Y-102203039D01*
X183460915Y-101981000D01*
X182118000Y-101981000D01*
X182118000Y-102001000D01*
X181864000Y-102001000D01*
X181864000Y-101981000D01*
X180521085Y-101981000D01*
X180399096Y-102203039D01*
X180409556Y-102260730D01*
X180515449Y-102522421D01*
X180670361Y-102758425D01*
X180868338Y-102959673D01*
X181101773Y-103118430D01*
X181119345Y-103125878D01*
X180989899Y-103195068D01*
X180771392Y-103374392D01*
X180592068Y-103592899D01*
X180458818Y-103842192D01*
X180376764Y-104112691D01*
X180349057Y-104394000D01*
X160772943Y-104394000D01*
X160745236Y-104112691D01*
X160663182Y-103842192D01*
X160529932Y-103592899D01*
X160350608Y-103374392D01*
X160132101Y-103195068D01*
X159999142Y-103124000D01*
X160132101Y-103052932D01*
X160350608Y-102873608D01*
X160529932Y-102655101D01*
X160663182Y-102405808D01*
X160745236Y-102135309D01*
X160772943Y-101854000D01*
X160745236Y-101572691D01*
X160663182Y-101302192D01*
X160529932Y-101052899D01*
X160350608Y-100834392D01*
X160132101Y-100655068D01*
X159999142Y-100584000D01*
X160132101Y-100512932D01*
X160350608Y-100333608D01*
X160529932Y-100115101D01*
X160663182Y-99865808D01*
X160745236Y-99595309D01*
X160772943Y-99314000D01*
X160745236Y-99032691D01*
X160663182Y-98762192D01*
X160529932Y-98512899D01*
X160350608Y-98294392D01*
X160132101Y-98115068D01*
X159999142Y-98044000D01*
X160132101Y-97972932D01*
X160350608Y-97793608D01*
X160529932Y-97575101D01*
X160663182Y-97325808D01*
X160745236Y-97055309D01*
X160772943Y-96774000D01*
X160745236Y-96492691D01*
X160663182Y-96222192D01*
X160529932Y-95972899D01*
X160350608Y-95754392D01*
X160132101Y-95575068D01*
X159999142Y-95504000D01*
X160132101Y-95432932D01*
X160350608Y-95253608D01*
X160529932Y-95035101D01*
X160663182Y-94785808D01*
X160745236Y-94515309D01*
X160772943Y-94234000D01*
X160745236Y-93952691D01*
X160663182Y-93682192D01*
X160529932Y-93432899D01*
X160350608Y-93214392D01*
X160132101Y-93035068D01*
X159999142Y-92964000D01*
X160132101Y-92892932D01*
X160350608Y-92713608D01*
X160529932Y-92495101D01*
X160663182Y-92245808D01*
X160745236Y-91975309D01*
X160772943Y-91694000D01*
X160745236Y-91412691D01*
X160663182Y-91142192D01*
X160529932Y-90892899D01*
X160350608Y-90674392D01*
X160132101Y-90495068D01*
X159999142Y-90424000D01*
X160132101Y-90352932D01*
X160350608Y-90173608D01*
X160529932Y-89955101D01*
X160663182Y-89705808D01*
X160745236Y-89435309D01*
X160772943Y-89154000D01*
X160745236Y-88872691D01*
X160663182Y-88602192D01*
X160529932Y-88352899D01*
X160397524Y-88191559D01*
X160485494Y-88144537D01*
X160582185Y-88065185D01*
X160661537Y-87968494D01*
X160720502Y-87858180D01*
X160756812Y-87738482D01*
X160769072Y-87614000D01*
X160769072Y-86614000D01*
X180349057Y-86614000D01*
X180376764Y-86895309D01*
X180458818Y-87165808D01*
X180592068Y-87415101D01*
X180771392Y-87633608D01*
X180989899Y-87812932D01*
X181122858Y-87884000D01*
X180989899Y-87955068D01*
X180771392Y-88134392D01*
X180592068Y-88352899D01*
X180458818Y-88602192D01*
X180376764Y-88872691D01*
X180349057Y-89154000D01*
X180376764Y-89435309D01*
X180458818Y-89705808D01*
X180592068Y-89955101D01*
X180771392Y-90173608D01*
X180989899Y-90352932D01*
X181122858Y-90424000D01*
X180989899Y-90495068D01*
X180771392Y-90674392D01*
X180592068Y-90892899D01*
X180458818Y-91142192D01*
X180376764Y-91412691D01*
X180349057Y-91694000D01*
X180376764Y-91975309D01*
X180458818Y-92245808D01*
X180592068Y-92495101D01*
X180771392Y-92713608D01*
X180989899Y-92892932D01*
X181122858Y-92964000D01*
X180989899Y-93035068D01*
X180771392Y-93214392D01*
X180592068Y-93432899D01*
X180458818Y-93682192D01*
X180376764Y-93952691D01*
X180349057Y-94234000D01*
X180376764Y-94515309D01*
X180458818Y-94785808D01*
X180592068Y-95035101D01*
X180771392Y-95253608D01*
X180989899Y-95432932D01*
X181122858Y-95504000D01*
X180989899Y-95575068D01*
X180771392Y-95754392D01*
X180592068Y-95972899D01*
X180458818Y-96222192D01*
X180376764Y-96492691D01*
X180349057Y-96774000D01*
X180376764Y-97055309D01*
X180458818Y-97325808D01*
X180592068Y-97575101D01*
X180771392Y-97793608D01*
X180989899Y-97972932D01*
X181122858Y-98044000D01*
X180989899Y-98115068D01*
X180771392Y-98294392D01*
X180592068Y-98512899D01*
X180458818Y-98762192D01*
X180376764Y-99032691D01*
X180349057Y-99314000D01*
X180376764Y-99595309D01*
X180458818Y-99865808D01*
X180592068Y-100115101D01*
X180771392Y-100333608D01*
X180989899Y-100512932D01*
X181119345Y-100582122D01*
X181101773Y-100589570D01*
X180868338Y-100748327D01*
X180670361Y-100949575D01*
X180515449Y-101185579D01*
X180409556Y-101447270D01*
X180399096Y-101504961D01*
X180521085Y-101727000D01*
X181864000Y-101727000D01*
X181864000Y-101707000D01*
X182118000Y-101707000D01*
X182118000Y-101727000D01*
X183460915Y-101727000D01*
X183582904Y-101504961D01*
X183572444Y-101447270D01*
X183466551Y-101185579D01*
X183311639Y-100949575D01*
X183113662Y-100748327D01*
X182880227Y-100589570D01*
X182862655Y-100582122D01*
X182992101Y-100512932D01*
X183210608Y-100333608D01*
X183389932Y-100115101D01*
X183523182Y-99865808D01*
X183605236Y-99595309D01*
X183632943Y-99314000D01*
X183605236Y-99032691D01*
X183523182Y-98762192D01*
X183389932Y-98512899D01*
X183210608Y-98294392D01*
X182992101Y-98115068D01*
X182859142Y-98044000D01*
X182992101Y-97972932D01*
X183210608Y-97793608D01*
X183389932Y-97575101D01*
X183523182Y-97325808D01*
X183605236Y-97055309D01*
X183632943Y-96774000D01*
X183605236Y-96492691D01*
X183523182Y-96222192D01*
X183389932Y-95972899D01*
X183210608Y-95754392D01*
X182992101Y-95575068D01*
X182859142Y-95504000D01*
X182992101Y-95432932D01*
X183210608Y-95253608D01*
X183389932Y-95035101D01*
X183523182Y-94785808D01*
X183605236Y-94515309D01*
X183632943Y-94234000D01*
X183605236Y-93952691D01*
X183523182Y-93682192D01*
X183389932Y-93432899D01*
X183210608Y-93214392D01*
X182992101Y-93035068D01*
X182859142Y-92964000D01*
X182992101Y-92892932D01*
X183210608Y-92713608D01*
X183389932Y-92495101D01*
X183523182Y-92245808D01*
X183605236Y-91975309D01*
X183632943Y-91694000D01*
X183605236Y-91412691D01*
X183523182Y-91142192D01*
X183389932Y-90892899D01*
X183210608Y-90674392D01*
X182992101Y-90495068D01*
X182859142Y-90424000D01*
X182992101Y-90352932D01*
X183210608Y-90173608D01*
X183389932Y-89955101D01*
X183523182Y-89705808D01*
X183605236Y-89435309D01*
X183632943Y-89154000D01*
X183605236Y-88872691D01*
X183523182Y-88602192D01*
X183389932Y-88352899D01*
X183210608Y-88134392D01*
X182992101Y-87955068D01*
X182859142Y-87884000D01*
X182992101Y-87812932D01*
X183210608Y-87633608D01*
X183389932Y-87415101D01*
X183523182Y-87165808D01*
X183605236Y-86895309D01*
X183632943Y-86614000D01*
X183605236Y-86332691D01*
X183523182Y-86062192D01*
X183389932Y-85812899D01*
X183210608Y-85594392D01*
X182992101Y-85415068D01*
X182742808Y-85281818D01*
X182472309Y-85199764D01*
X182261492Y-85179000D01*
X181720508Y-85179000D01*
X181509691Y-85199764D01*
X181239192Y-85281818D01*
X180989899Y-85415068D01*
X180771392Y-85594392D01*
X180592068Y-85812899D01*
X180458818Y-86062192D01*
X180376764Y-86332691D01*
X180349057Y-86614000D01*
X160769072Y-86614000D01*
X160769072Y-85614000D01*
X160756812Y-85489518D01*
X160720502Y-85369820D01*
X160661537Y-85259506D01*
X160582185Y-85162815D01*
X160485494Y-85083463D01*
X160375180Y-85024498D01*
X160255482Y-84988188D01*
X160131000Y-84975928D01*
X158131000Y-84975928D01*
X158006518Y-84988188D01*
X157886820Y-85024498D01*
X157776506Y-85083463D01*
X157679815Y-85162815D01*
X157600463Y-85259506D01*
X157541498Y-85369820D01*
X157505188Y-85489518D01*
X157492928Y-85614000D01*
X157492928Y-87614000D01*
X157505188Y-87738482D01*
X157541498Y-87858180D01*
X157600463Y-87968494D01*
X157679815Y-88065185D01*
X157776506Y-88144537D01*
X157864476Y-88191559D01*
X157732068Y-88352899D01*
X157598818Y-88602192D01*
X157516764Y-88872691D01*
X157489057Y-89154000D01*
X133093396Y-89154000D01*
X133194637Y-89052759D01*
X133351680Y-88817727D01*
X133459853Y-88556574D01*
X133515000Y-88279335D01*
X133515000Y-87996665D01*
X133459853Y-87719426D01*
X133351680Y-87458273D01*
X133194637Y-87223241D01*
X132994759Y-87023363D01*
X132759727Y-86866320D01*
X132498574Y-86758147D01*
X132221335Y-86703000D01*
X131938665Y-86703000D01*
X131661426Y-86758147D01*
X131400273Y-86866320D01*
X131165241Y-87023363D01*
X130965363Y-87223241D01*
X130808320Y-87458273D01*
X130700147Y-87719426D01*
X130645000Y-87996665D01*
X123355000Y-87996665D01*
X123299853Y-87719426D01*
X123191680Y-87458273D01*
X123034637Y-87223241D01*
X122834759Y-87023363D01*
X122599727Y-86866320D01*
X122338574Y-86758147D01*
X122061335Y-86703000D01*
X121778665Y-86703000D01*
X121501426Y-86758147D01*
X121240273Y-86866320D01*
X121005241Y-87023363D01*
X120805363Y-87223241D01*
X120648320Y-87458273D01*
X120540147Y-87719426D01*
X120485000Y-87996665D01*
X115274471Y-87996665D01*
X115222537Y-87899506D01*
X115143185Y-87802815D01*
X115046494Y-87723463D01*
X114936180Y-87664498D01*
X114917873Y-87658944D01*
X114984312Y-87592505D01*
X115152299Y-87341095D01*
X115268011Y-87061743D01*
X115327000Y-86765184D01*
X115327000Y-86462816D01*
X115268011Y-86166257D01*
X115152299Y-85886905D01*
X114984312Y-85635495D01*
X114770505Y-85421688D01*
X114519095Y-85253701D01*
X114239743Y-85137989D01*
X113943184Y-85079000D01*
X113640816Y-85079000D01*
X113344257Y-85137989D01*
X113064905Y-85253701D01*
X112813495Y-85421688D01*
X112599688Y-85635495D01*
X112431701Y-85886905D01*
X112315989Y-86166257D01*
X112257000Y-86462816D01*
X112257000Y-86765184D01*
X112315989Y-87061743D01*
X112431701Y-87341095D01*
X112599688Y-87592505D01*
X112666127Y-87658944D01*
X112647820Y-87664498D01*
X112537506Y-87723463D01*
X112440815Y-87802815D01*
X112361463Y-87899506D01*
X112302498Y-88009820D01*
X112266188Y-88129518D01*
X112253928Y-88254000D01*
X92100000Y-88254000D01*
X92100000Y-79614665D01*
X120358000Y-79614665D01*
X120358000Y-79897335D01*
X120413147Y-80174574D01*
X120521320Y-80435727D01*
X120678363Y-80670759D01*
X120878241Y-80870637D01*
X121113273Y-81027680D01*
X121374426Y-81135853D01*
X121651665Y-81191000D01*
X121934335Y-81191000D01*
X122211574Y-81135853D01*
X122472727Y-81027680D01*
X122707759Y-80870637D01*
X122907637Y-80670759D01*
X123064680Y-80435727D01*
X123172853Y-80174574D01*
X123228000Y-79897335D01*
X123228000Y-79614665D01*
X130518000Y-79614665D01*
X130518000Y-79897335D01*
X130573147Y-80174574D01*
X130681320Y-80435727D01*
X130838363Y-80670759D01*
X131038241Y-80870637D01*
X131273273Y-81027680D01*
X131534426Y-81135853D01*
X131811665Y-81191000D01*
X132094335Y-81191000D01*
X132371574Y-81135853D01*
X132632727Y-81027680D01*
X132867759Y-80870637D01*
X133067637Y-80670759D01*
X133224680Y-80435727D01*
X133332853Y-80174574D01*
X133388000Y-79897335D01*
X133388000Y-79614665D01*
X133332853Y-79337426D01*
X133224680Y-79076273D01*
X133067637Y-78841241D01*
X132867759Y-78641363D01*
X132632727Y-78484320D01*
X132371574Y-78376147D01*
X132094335Y-78321000D01*
X131811665Y-78321000D01*
X131534426Y-78376147D01*
X131273273Y-78484320D01*
X131038241Y-78641363D01*
X130838363Y-78841241D01*
X130681320Y-79076273D01*
X130573147Y-79337426D01*
X130518000Y-79614665D01*
X123228000Y-79614665D01*
X123172853Y-79337426D01*
X123064680Y-79076273D01*
X122907637Y-78841241D01*
X122707759Y-78641363D01*
X122472727Y-78484320D01*
X122211574Y-78376147D01*
X121934335Y-78321000D01*
X121651665Y-78321000D01*
X121374426Y-78376147D01*
X121113273Y-78484320D01*
X120878241Y-78641363D01*
X120678363Y-78841241D01*
X120521320Y-79076273D01*
X120413147Y-79337426D01*
X120358000Y-79614665D01*
X92100000Y-79614665D01*
X92100000Y-75573872D01*
X102205000Y-75573872D01*
X102205000Y-76014128D01*
X102290890Y-76445925D01*
X102459369Y-76852669D01*
X102703962Y-77218729D01*
X103015271Y-77530038D01*
X103381331Y-77774631D01*
X103788075Y-77943110D01*
X104219872Y-78029000D01*
X104660128Y-78029000D01*
X105091925Y-77943110D01*
X105498669Y-77774631D01*
X105864729Y-77530038D01*
X106176038Y-77218729D01*
X106420631Y-76852669D01*
X106589110Y-76445925D01*
X106675000Y-76014128D01*
X106675000Y-75573872D01*
X192205000Y-75573872D01*
X192205000Y-76014128D01*
X192290890Y-76445925D01*
X192459369Y-76852669D01*
X192703962Y-77218729D01*
X193015271Y-77530038D01*
X193381331Y-77774631D01*
X193788075Y-77943110D01*
X194219872Y-78029000D01*
X194660128Y-78029000D01*
X195091925Y-77943110D01*
X195498669Y-77774631D01*
X195864729Y-77530038D01*
X196176038Y-77218729D01*
X196420631Y-76852669D01*
X196589110Y-76445925D01*
X196675000Y-76014128D01*
X196675000Y-75573872D01*
X196589110Y-75142075D01*
X196420631Y-74735331D01*
X196176038Y-74369271D01*
X195864729Y-74057962D01*
X195498669Y-73813369D01*
X195091925Y-73644890D01*
X194660128Y-73559000D01*
X194219872Y-73559000D01*
X193788075Y-73644890D01*
X193381331Y-73813369D01*
X193015271Y-74057962D01*
X192703962Y-74369271D01*
X192459369Y-74735331D01*
X192290890Y-75142075D01*
X192205000Y-75573872D01*
X106675000Y-75573872D01*
X106589110Y-75142075D01*
X106420631Y-74735331D01*
X106176038Y-74369271D01*
X105864729Y-74057962D01*
X105498669Y-73813369D01*
X105091925Y-73644890D01*
X104660128Y-73559000D01*
X104219872Y-73559000D01*
X103788075Y-73644890D01*
X103381331Y-73813369D01*
X103015271Y-74057962D01*
X102703962Y-74369271D01*
X102459369Y-74735331D01*
X102290890Y-75142075D01*
X102205000Y-75573872D01*
X92100000Y-75573872D01*
X92100000Y-66954000D01*
X206780000Y-66954000D01*
X206780001Y-129634000D01*
%TA.AperFunction,Conductor*%
D25*
G36*
X206780001Y-129634000D02*
G01*
X92100000Y-129634000D01*
X92100000Y-120573872D01*
X102205000Y-120573872D01*
X102205000Y-121014128D01*
X102290890Y-121445925D01*
X102459369Y-121852669D01*
X102703962Y-122218729D01*
X103015271Y-122530038D01*
X103381331Y-122774631D01*
X103788075Y-122943110D01*
X104219872Y-123029000D01*
X104660128Y-123029000D01*
X105091925Y-122943110D01*
X105498669Y-122774631D01*
X105864729Y-122530038D01*
X106176038Y-122218729D01*
X106420631Y-121852669D01*
X106421057Y-121851639D01*
X175168591Y-121851639D01*
X175213511Y-122190439D01*
X175323664Y-122513966D01*
X175429662Y-122712274D01*
X175439733Y-122716228D01*
X175359815Y-122781815D01*
X175280463Y-122878506D01*
X175221498Y-122988820D01*
X175185188Y-123108518D01*
X175172928Y-123233000D01*
X175172928Y-125433000D01*
X175185188Y-125557482D01*
X175221498Y-125677180D01*
X175280463Y-125787494D01*
X175359815Y-125884185D01*
X175456506Y-125963537D01*
X175566820Y-126022502D01*
X175686518Y-126058812D01*
X175811000Y-126071072D01*
X178011000Y-126071072D01*
X178135482Y-126058812D01*
X178255180Y-126022502D01*
X178365494Y-125963537D01*
X178462185Y-125884185D01*
X178541537Y-125787494D01*
X178600502Y-125677180D01*
X178636812Y-125557482D01*
X178649072Y-125433000D01*
X178649072Y-125206916D01*
X178695606Y-125253450D01*
X178889692Y-125383134D01*
X179105348Y-125472461D01*
X179334288Y-125518000D01*
X179567712Y-125518000D01*
X179796652Y-125472461D01*
X180012308Y-125383134D01*
X180206394Y-125253450D01*
X180371450Y-125088394D01*
X180501134Y-124894308D01*
X180590461Y-124678652D01*
X180636000Y-124449712D01*
X180636000Y-124216288D01*
X180590461Y-123987348D01*
X180501134Y-123771692D01*
X180371450Y-123577606D01*
X180206394Y-123412550D01*
X180012308Y-123282866D01*
X179796652Y-123193539D01*
X179567712Y-123148000D01*
X179334288Y-123148000D01*
X179105348Y-123193539D01*
X178889692Y-123282866D01*
X178695606Y-123412550D01*
X178649072Y-123459084D01*
X178649072Y-123233000D01*
X178636812Y-123108518D01*
X178600502Y-122988820D01*
X178541537Y-122878506D01*
X178462185Y-122781815D01*
X178382267Y-122716228D01*
X178392338Y-122712274D01*
X178497387Y-122498762D01*
X178530550Y-122548394D01*
X178695606Y-122713450D01*
X178889692Y-122843134D01*
X179105348Y-122932461D01*
X179334288Y-122978000D01*
X179567712Y-122978000D01*
X179796652Y-122932461D01*
X180012308Y-122843134D01*
X180206394Y-122713450D01*
X180371450Y-122548394D01*
X180501134Y-122354308D01*
X180590461Y-122138652D01*
X180636000Y-121909712D01*
X180636000Y-121676288D01*
X180590461Y-121447348D01*
X180501134Y-121231692D01*
X180371450Y-121037606D01*
X180206394Y-120872550D01*
X180012308Y-120742866D01*
X179796652Y-120653539D01*
X179567712Y-120608000D01*
X179334288Y-120608000D01*
X179105348Y-120653539D01*
X178889692Y-120742866D01*
X178695606Y-120872550D01*
X178530550Y-121037606D01*
X178501445Y-121081165D01*
X178498336Y-121072034D01*
X178392338Y-120873726D01*
X178117712Y-120765893D01*
X177090605Y-121793000D01*
X177104748Y-121807143D01*
X176925143Y-121986748D01*
X176911000Y-121972605D01*
X176896858Y-121986748D01*
X176717253Y-121807143D01*
X176731395Y-121793000D01*
X175704288Y-120765893D01*
X175429662Y-120873726D01*
X175278784Y-121180384D01*
X175190631Y-121510585D01*
X175168591Y-121851639D01*
X106421057Y-121851639D01*
X106589110Y-121445925D01*
X106675000Y-121014128D01*
X106675000Y-120586288D01*
X175883893Y-120586288D01*
X176911000Y-121613395D01*
X177938107Y-120586288D01*
X177933232Y-120573872D01*
X192205000Y-120573872D01*
X192205000Y-121014128D01*
X192290890Y-121445925D01*
X192459369Y-121852669D01*
X192703962Y-122218729D01*
X193015271Y-122530038D01*
X193381331Y-122774631D01*
X193788075Y-122943110D01*
X194219872Y-123029000D01*
X194660128Y-123029000D01*
X195091925Y-122943110D01*
X195498669Y-122774631D01*
X195864729Y-122530038D01*
X196176038Y-122218729D01*
X196420631Y-121852669D01*
X196589110Y-121445925D01*
X196675000Y-121014128D01*
X196675000Y-120573872D01*
X196589110Y-120142075D01*
X196420631Y-119735331D01*
X196176038Y-119369271D01*
X195864729Y-119057962D01*
X195498669Y-118813369D01*
X195091925Y-118644890D01*
X194660128Y-118559000D01*
X194219872Y-118559000D01*
X193788075Y-118644890D01*
X193381331Y-118813369D01*
X193015271Y-119057962D01*
X192703962Y-119369271D01*
X192459369Y-119735331D01*
X192290890Y-120142075D01*
X192205000Y-120573872D01*
X177933232Y-120573872D01*
X177830274Y-120311662D01*
X177523616Y-120160784D01*
X177193415Y-120072631D01*
X176852361Y-120050591D01*
X176513561Y-120095511D01*
X176190034Y-120205664D01*
X175991726Y-120311662D01*
X175883893Y-120586288D01*
X106675000Y-120586288D01*
X106675000Y-120573872D01*
X106589110Y-120142075D01*
X106420631Y-119735331D01*
X106176038Y-119369271D01*
X105864729Y-119057962D01*
X105498669Y-118813369D01*
X105091925Y-118644890D01*
X104660128Y-118559000D01*
X104219872Y-118559000D01*
X103788075Y-118644890D01*
X103381331Y-118813369D01*
X103015271Y-119057962D01*
X102703962Y-119369271D01*
X102459369Y-119735331D01*
X102290890Y-120142075D01*
X102205000Y-120573872D01*
X92100000Y-120573872D01*
X92100000Y-118384353D01*
X140934000Y-118384353D01*
X140934000Y-118691647D01*
X140993950Y-118993035D01*
X141111546Y-119276937D01*
X141282269Y-119532442D01*
X141499558Y-119749731D01*
X141755063Y-119920454D01*
X142038965Y-120038050D01*
X142340353Y-120098000D01*
X142647647Y-120098000D01*
X142949035Y-120038050D01*
X143232937Y-119920454D01*
X143488442Y-119749731D01*
X143705731Y-119532442D01*
X143876454Y-119276937D01*
X143994050Y-118993035D01*
X144054000Y-118691647D01*
X144054000Y-118384353D01*
X143994050Y-118082965D01*
X143876454Y-117799063D01*
X143705731Y-117543558D01*
X143488442Y-117326269D01*
X143232937Y-117155546D01*
X142949035Y-117037950D01*
X142647647Y-116978000D01*
X142340353Y-116978000D01*
X142038965Y-117037950D01*
X141755063Y-117155546D01*
X141499558Y-117326269D01*
X141282269Y-117543558D01*
X141111546Y-117799063D01*
X140993950Y-118082965D01*
X140934000Y-118384353D01*
X92100000Y-118384353D01*
X92100000Y-110883000D01*
X124849928Y-110883000D01*
X124849928Y-112383000D01*
X124862188Y-112507482D01*
X124898498Y-112627180D01*
X124957463Y-112737494D01*
X125036815Y-112834185D01*
X125133506Y-112913537D01*
X125243820Y-112972502D01*
X125363518Y-113008812D01*
X125488000Y-113021072D01*
X126988000Y-113021072D01*
X127112482Y-113008812D01*
X127232180Y-112972502D01*
X127342494Y-112913537D01*
X127439185Y-112834185D01*
X127518537Y-112737494D01*
X127577502Y-112627180D01*
X127581803Y-112613000D01*
X140930928Y-112613000D01*
X140930928Y-114463000D01*
X140943188Y-114587482D01*
X140979498Y-114707180D01*
X141038463Y-114817494D01*
X141117815Y-114914185D01*
X141214506Y-114993537D01*
X141324820Y-115052502D01*
X141444518Y-115088812D01*
X141569000Y-115101072D01*
X143419000Y-115101072D01*
X143543482Y-115088812D01*
X143663180Y-115052502D01*
X143773494Y-114993537D01*
X143870185Y-114914185D01*
X143949537Y-114817494D01*
X144008502Y-114707180D01*
X144044812Y-114587482D01*
X144057072Y-114463000D01*
X144057072Y-112613000D01*
X144044812Y-112488518D01*
X144008502Y-112368820D01*
X143949537Y-112258506D01*
X143870185Y-112161815D01*
X143773494Y-112082463D01*
X143663180Y-112023498D01*
X143543482Y-111987188D01*
X143419000Y-111974928D01*
X141569000Y-111974928D01*
X141444518Y-111987188D01*
X141324820Y-112023498D01*
X141214506Y-112082463D01*
X141117815Y-112161815D01*
X141038463Y-112258506D01*
X140979498Y-112368820D01*
X140943188Y-112488518D01*
X140930928Y-112613000D01*
X127581803Y-112613000D01*
X127613812Y-112507482D01*
X127626072Y-112383000D01*
X127626072Y-110883000D01*
X127613812Y-110758518D01*
X127577502Y-110638820D01*
X127518537Y-110528506D01*
X127439185Y-110431815D01*
X127342494Y-110352463D01*
X127232180Y-110293498D01*
X127112482Y-110257188D01*
X127004517Y-110246555D01*
X127120886Y-110168799D01*
X127313799Y-109975886D01*
X127465371Y-109749043D01*
X127569775Y-109496989D01*
X127623000Y-109229411D01*
X127623000Y-108956589D01*
X127569775Y-108689011D01*
X127465371Y-108436957D01*
X127313799Y-108210114D01*
X127120886Y-108017201D01*
X126894043Y-107865629D01*
X126791127Y-107823000D01*
X126894043Y-107780371D01*
X127120886Y-107628799D01*
X127313799Y-107435886D01*
X127465371Y-107209043D01*
X127569775Y-106956989D01*
X127623000Y-106689411D01*
X127623000Y-106416589D01*
X127569775Y-106149011D01*
X127465371Y-105896957D01*
X127313799Y-105670114D01*
X127120886Y-105477201D01*
X126894043Y-105325629D01*
X126641989Y-105221225D01*
X126374411Y-105168000D01*
X126101589Y-105168000D01*
X125834011Y-105221225D01*
X125581957Y-105325629D01*
X125355114Y-105477201D01*
X125162201Y-105670114D01*
X125010629Y-105896957D01*
X124906225Y-106149011D01*
X124853000Y-106416589D01*
X124853000Y-106689411D01*
X124906225Y-106956989D01*
X125010629Y-107209043D01*
X125162201Y-107435886D01*
X125355114Y-107628799D01*
X125581957Y-107780371D01*
X125684873Y-107823000D01*
X125581957Y-107865629D01*
X125355114Y-108017201D01*
X125162201Y-108210114D01*
X125010629Y-108436957D01*
X124906225Y-108689011D01*
X124853000Y-108956589D01*
X124853000Y-109229411D01*
X124906225Y-109496989D01*
X125010629Y-109749043D01*
X125162201Y-109975886D01*
X125355114Y-110168799D01*
X125471483Y-110246555D01*
X125363518Y-110257188D01*
X125243820Y-110293498D01*
X125133506Y-110352463D01*
X125036815Y-110431815D01*
X124957463Y-110528506D01*
X124898498Y-110638820D01*
X124862188Y-110758518D01*
X124849928Y-110883000D01*
X92100000Y-110883000D01*
X92100000Y-97624000D01*
X102905928Y-97624000D01*
X102918188Y-97748482D01*
X102954498Y-97868180D01*
X103013463Y-97978494D01*
X103092815Y-98075185D01*
X103189506Y-98154537D01*
X103299820Y-98213502D01*
X103372380Y-98235513D01*
X103240525Y-98367368D01*
X103078010Y-98610589D01*
X102966068Y-98880842D01*
X102909000Y-99167740D01*
X102909000Y-99460260D01*
X102966068Y-99747158D01*
X103078010Y-100017411D01*
X103240525Y-100260632D01*
X103447368Y-100467475D01*
X103621760Y-100584000D01*
X103447368Y-100700525D01*
X103240525Y-100907368D01*
X103078010Y-101150589D01*
X102966068Y-101420842D01*
X102909000Y-101707740D01*
X102909000Y-102000260D01*
X102966068Y-102287158D01*
X103078010Y-102557411D01*
X103240525Y-102800632D01*
X103447368Y-103007475D01*
X103621760Y-103124000D01*
X103447368Y-103240525D01*
X103240525Y-103447368D01*
X103078010Y-103690589D01*
X102966068Y-103960842D01*
X102909000Y-104247740D01*
X102909000Y-104540260D01*
X102966068Y-104827158D01*
X103078010Y-105097411D01*
X103240525Y-105340632D01*
X103447368Y-105547475D01*
X103690589Y-105709990D01*
X103960842Y-105821932D01*
X104247740Y-105879000D01*
X104540260Y-105879000D01*
X104827158Y-105821932D01*
X105097411Y-105709990D01*
X105340632Y-105547475D01*
X105547475Y-105340632D01*
X105709990Y-105097411D01*
X105821932Y-104827158D01*
X105879000Y-104540260D01*
X105879000Y-104247740D01*
X105821932Y-103960842D01*
X105709990Y-103690589D01*
X105547475Y-103447368D01*
X105340632Y-103240525D01*
X105166240Y-103124000D01*
X105340632Y-103007475D01*
X105547475Y-102800632D01*
X105709990Y-102557411D01*
X105821932Y-102287158D01*
X105879000Y-102000260D01*
X105879000Y-101707740D01*
X105821932Y-101420842D01*
X105709990Y-101150589D01*
X105547475Y-100907368D01*
X105340632Y-100700525D01*
X105166240Y-100584000D01*
X105340632Y-100467475D01*
X105547475Y-100260632D01*
X105709990Y-100017411D01*
X105821932Y-99747158D01*
X105879000Y-99460260D01*
X105879000Y-99167740D01*
X105821932Y-98880842D01*
X105709990Y-98610589D01*
X105547475Y-98367368D01*
X105415620Y-98235513D01*
X105488180Y-98213502D01*
X105598494Y-98154537D01*
X105695185Y-98075185D01*
X105774537Y-97978494D01*
X105833502Y-97868180D01*
X105869812Y-97748482D01*
X105882072Y-97624000D01*
X105879000Y-97059750D01*
X105720250Y-96901000D01*
X104521000Y-96901000D01*
X104521000Y-96921000D01*
X104267000Y-96921000D01*
X104267000Y-96901000D01*
X103067750Y-96901000D01*
X102909000Y-97059750D01*
X102905928Y-97624000D01*
X92100000Y-97624000D01*
X92100000Y-95924000D01*
X102905928Y-95924000D01*
X102909000Y-96488250D01*
X103067750Y-96647000D01*
X104267000Y-96647000D01*
X104267000Y-95447750D01*
X104521000Y-95447750D01*
X104521000Y-96647000D01*
X105720250Y-96647000D01*
X105879000Y-96488250D01*
X105882072Y-95924000D01*
X105869812Y-95799518D01*
X105833502Y-95679820D01*
X105774537Y-95569506D01*
X105695185Y-95472815D01*
X105598494Y-95393463D01*
X105488180Y-95334498D01*
X105368482Y-95298188D01*
X105244000Y-95285928D01*
X104679750Y-95289000D01*
X104521000Y-95447750D01*
X104267000Y-95447750D01*
X104108250Y-95289000D01*
X103544000Y-95285928D01*
X103419518Y-95298188D01*
X103299820Y-95334498D01*
X103189506Y-95393463D01*
X103092815Y-95472815D01*
X103013463Y-95569506D01*
X102954498Y-95679820D01*
X102918188Y-95799518D01*
X102905928Y-95924000D01*
X92100000Y-95924000D01*
X92100000Y-88254000D01*
X112253928Y-88254000D01*
X112253928Y-90054000D01*
X112266188Y-90178482D01*
X112302498Y-90298180D01*
X112361463Y-90408494D01*
X112440815Y-90505185D01*
X112537506Y-90584537D01*
X112647820Y-90643502D01*
X112767518Y-90679812D01*
X112892000Y-90692072D01*
X114692000Y-90692072D01*
X114816482Y-90679812D01*
X114936180Y-90643502D01*
X115046494Y-90584537D01*
X115143185Y-90505185D01*
X115222537Y-90408494D01*
X115281502Y-90298180D01*
X115317812Y-90178482D01*
X115330072Y-90054000D01*
X115330072Y-88254000D01*
X115317812Y-88129518D01*
X115281502Y-88009820D01*
X115274471Y-87996665D01*
X120485000Y-87996665D01*
X120485000Y-88279335D01*
X120540147Y-88556574D01*
X120648320Y-88817727D01*
X120805363Y-89052759D01*
X121005241Y-89252637D01*
X121240273Y-89409680D01*
X121501426Y-89517853D01*
X121778665Y-89573000D01*
X122061335Y-89573000D01*
X122338574Y-89517853D01*
X122599727Y-89409680D01*
X122834759Y-89252637D01*
X123034637Y-89052759D01*
X123191680Y-88817727D01*
X123299853Y-88556574D01*
X123355000Y-88279335D01*
X123355000Y-87996665D01*
X130645000Y-87996665D01*
X130645000Y-88279335D01*
X130700147Y-88556574D01*
X130808320Y-88817727D01*
X130965363Y-89052759D01*
X131165241Y-89252637D01*
X131400273Y-89409680D01*
X131661426Y-89517853D01*
X131938665Y-89573000D01*
X132221335Y-89573000D01*
X132498574Y-89517853D01*
X132759727Y-89409680D01*
X132994759Y-89252637D01*
X133093396Y-89154000D01*
X157489057Y-89154000D01*
X157516764Y-89435309D01*
X157598818Y-89705808D01*
X157732068Y-89955101D01*
X157911392Y-90173608D01*
X158129899Y-90352932D01*
X158262858Y-90424000D01*
X158129899Y-90495068D01*
X157911392Y-90674392D01*
X157732068Y-90892899D01*
X157598818Y-91142192D01*
X157516764Y-91412691D01*
X157489057Y-91694000D01*
X157516764Y-91975309D01*
X157598818Y-92245808D01*
X157732068Y-92495101D01*
X157911392Y-92713608D01*
X158129899Y-92892932D01*
X158262858Y-92964000D01*
X158129899Y-93035068D01*
X157911392Y-93214392D01*
X157732068Y-93432899D01*
X157598818Y-93682192D01*
X157516764Y-93952691D01*
X157489057Y-94234000D01*
X157516764Y-94515309D01*
X157598818Y-94785808D01*
X157732068Y-95035101D01*
X157911392Y-95253608D01*
X158129899Y-95432932D01*
X158262858Y-95504000D01*
X158129899Y-95575068D01*
X157911392Y-95754392D01*
X157732068Y-95972899D01*
X157598818Y-96222192D01*
X157516764Y-96492691D01*
X157489057Y-96774000D01*
X157516764Y-97055309D01*
X157598818Y-97325808D01*
X157732068Y-97575101D01*
X157911392Y-97793608D01*
X158129899Y-97972932D01*
X158262858Y-98044000D01*
X158129899Y-98115068D01*
X157911392Y-98294392D01*
X157732068Y-98512899D01*
X157598818Y-98762192D01*
X157516764Y-99032691D01*
X157489057Y-99314000D01*
X157516764Y-99595309D01*
X157598818Y-99865808D01*
X157732068Y-100115101D01*
X157911392Y-100333608D01*
X158129899Y-100512932D01*
X158262858Y-100584000D01*
X158129899Y-100655068D01*
X157911392Y-100834392D01*
X157732068Y-101052899D01*
X157598818Y-101302192D01*
X157516764Y-101572691D01*
X157489057Y-101854000D01*
X157516764Y-102135309D01*
X157598818Y-102405808D01*
X157732068Y-102655101D01*
X157911392Y-102873608D01*
X158129899Y-103052932D01*
X158262858Y-103124000D01*
X158129899Y-103195068D01*
X157911392Y-103374392D01*
X157732068Y-103592899D01*
X157598818Y-103842192D01*
X157516764Y-104112691D01*
X157489057Y-104394000D01*
X157516764Y-104675309D01*
X157598818Y-104945808D01*
X157732068Y-105195101D01*
X157911392Y-105413608D01*
X158129899Y-105592932D01*
X158379192Y-105726182D01*
X158649691Y-105808236D01*
X158860508Y-105829000D01*
X159401492Y-105829000D01*
X159612309Y-105808236D01*
X159882808Y-105726182D01*
X160132101Y-105592932D01*
X160350608Y-105413608D01*
X160529932Y-105195101D01*
X160663182Y-104945808D01*
X160745236Y-104675309D01*
X160772943Y-104394000D01*
X180349057Y-104394000D01*
X180376764Y-104675309D01*
X180458818Y-104945808D01*
X180592068Y-105195101D01*
X180771392Y-105413608D01*
X180989899Y-105592932D01*
X181239192Y-105726182D01*
X181509691Y-105808236D01*
X181720508Y-105829000D01*
X182261492Y-105829000D01*
X182472309Y-105808236D01*
X182742808Y-105726182D01*
X182992101Y-105592932D01*
X183210608Y-105413608D01*
X183389932Y-105195101D01*
X183523182Y-104945808D01*
X183605236Y-104675309D01*
X183632943Y-104394000D01*
X183605236Y-104112691D01*
X183523182Y-103842192D01*
X183389932Y-103592899D01*
X183210608Y-103374392D01*
X182992101Y-103195068D01*
X182862655Y-103125878D01*
X182880227Y-103118430D01*
X183113662Y-102959673D01*
X183311639Y-102758425D01*
X183466551Y-102522421D01*
X183572444Y-102260730D01*
X183582904Y-102203039D01*
X183460915Y-101981000D01*
X182118000Y-101981000D01*
X182118000Y-102001000D01*
X181864000Y-102001000D01*
X181864000Y-101981000D01*
X180521085Y-101981000D01*
X180399096Y-102203039D01*
X180409556Y-102260730D01*
X180515449Y-102522421D01*
X180670361Y-102758425D01*
X180868338Y-102959673D01*
X181101773Y-103118430D01*
X181119345Y-103125878D01*
X180989899Y-103195068D01*
X180771392Y-103374392D01*
X180592068Y-103592899D01*
X180458818Y-103842192D01*
X180376764Y-104112691D01*
X180349057Y-104394000D01*
X160772943Y-104394000D01*
X160745236Y-104112691D01*
X160663182Y-103842192D01*
X160529932Y-103592899D01*
X160350608Y-103374392D01*
X160132101Y-103195068D01*
X159999142Y-103124000D01*
X160132101Y-103052932D01*
X160350608Y-102873608D01*
X160529932Y-102655101D01*
X160663182Y-102405808D01*
X160745236Y-102135309D01*
X160772943Y-101854000D01*
X160745236Y-101572691D01*
X160663182Y-101302192D01*
X160529932Y-101052899D01*
X160350608Y-100834392D01*
X160132101Y-100655068D01*
X159999142Y-100584000D01*
X160132101Y-100512932D01*
X160350608Y-100333608D01*
X160529932Y-100115101D01*
X160663182Y-99865808D01*
X160745236Y-99595309D01*
X160772943Y-99314000D01*
X160745236Y-99032691D01*
X160663182Y-98762192D01*
X160529932Y-98512899D01*
X160350608Y-98294392D01*
X160132101Y-98115068D01*
X159999142Y-98044000D01*
X160132101Y-97972932D01*
X160350608Y-97793608D01*
X160529932Y-97575101D01*
X160663182Y-97325808D01*
X160745236Y-97055309D01*
X160772943Y-96774000D01*
X160745236Y-96492691D01*
X160663182Y-96222192D01*
X160529932Y-95972899D01*
X160350608Y-95754392D01*
X160132101Y-95575068D01*
X159999142Y-95504000D01*
X160132101Y-95432932D01*
X160350608Y-95253608D01*
X160529932Y-95035101D01*
X160663182Y-94785808D01*
X160745236Y-94515309D01*
X160772943Y-94234000D01*
X160745236Y-93952691D01*
X160663182Y-93682192D01*
X160529932Y-93432899D01*
X160350608Y-93214392D01*
X160132101Y-93035068D01*
X159999142Y-92964000D01*
X160132101Y-92892932D01*
X160350608Y-92713608D01*
X160529932Y-92495101D01*
X160663182Y-92245808D01*
X160745236Y-91975309D01*
X160772943Y-91694000D01*
X160745236Y-91412691D01*
X160663182Y-91142192D01*
X160529932Y-90892899D01*
X160350608Y-90674392D01*
X160132101Y-90495068D01*
X159999142Y-90424000D01*
X160132101Y-90352932D01*
X160350608Y-90173608D01*
X160529932Y-89955101D01*
X160663182Y-89705808D01*
X160745236Y-89435309D01*
X160772943Y-89154000D01*
X160745236Y-88872691D01*
X160663182Y-88602192D01*
X160529932Y-88352899D01*
X160397524Y-88191559D01*
X160485494Y-88144537D01*
X160582185Y-88065185D01*
X160661537Y-87968494D01*
X160720502Y-87858180D01*
X160756812Y-87738482D01*
X160769072Y-87614000D01*
X160769072Y-86614000D01*
X180349057Y-86614000D01*
X180376764Y-86895309D01*
X180458818Y-87165808D01*
X180592068Y-87415101D01*
X180771392Y-87633608D01*
X180989899Y-87812932D01*
X181122858Y-87884000D01*
X180989899Y-87955068D01*
X180771392Y-88134392D01*
X180592068Y-88352899D01*
X180458818Y-88602192D01*
X180376764Y-88872691D01*
X180349057Y-89154000D01*
X180376764Y-89435309D01*
X180458818Y-89705808D01*
X180592068Y-89955101D01*
X180771392Y-90173608D01*
X180989899Y-90352932D01*
X181122858Y-90424000D01*
X180989899Y-90495068D01*
X180771392Y-90674392D01*
X180592068Y-90892899D01*
X180458818Y-91142192D01*
X180376764Y-91412691D01*
X180349057Y-91694000D01*
X180376764Y-91975309D01*
X180458818Y-92245808D01*
X180592068Y-92495101D01*
X180771392Y-92713608D01*
X180989899Y-92892932D01*
X181122858Y-92964000D01*
X180989899Y-93035068D01*
X180771392Y-93214392D01*
X180592068Y-93432899D01*
X180458818Y-93682192D01*
X180376764Y-93952691D01*
X180349057Y-94234000D01*
X180376764Y-94515309D01*
X180458818Y-94785808D01*
X180592068Y-95035101D01*
X180771392Y-95253608D01*
X180989899Y-95432932D01*
X181122858Y-95504000D01*
X180989899Y-95575068D01*
X180771392Y-95754392D01*
X180592068Y-95972899D01*
X180458818Y-96222192D01*
X180376764Y-96492691D01*
X180349057Y-96774000D01*
X180376764Y-97055309D01*
X180458818Y-97325808D01*
X180592068Y-97575101D01*
X180771392Y-97793608D01*
X180989899Y-97972932D01*
X181122858Y-98044000D01*
X180989899Y-98115068D01*
X180771392Y-98294392D01*
X180592068Y-98512899D01*
X180458818Y-98762192D01*
X180376764Y-99032691D01*
X180349057Y-99314000D01*
X180376764Y-99595309D01*
X180458818Y-99865808D01*
X180592068Y-100115101D01*
X180771392Y-100333608D01*
X180989899Y-100512932D01*
X181119345Y-100582122D01*
X181101773Y-100589570D01*
X180868338Y-100748327D01*
X180670361Y-100949575D01*
X180515449Y-101185579D01*
X180409556Y-101447270D01*
X180399096Y-101504961D01*
X180521085Y-101727000D01*
X181864000Y-101727000D01*
X181864000Y-101707000D01*
X182118000Y-101707000D01*
X182118000Y-101727000D01*
X183460915Y-101727000D01*
X183582904Y-101504961D01*
X183572444Y-101447270D01*
X183466551Y-101185579D01*
X183311639Y-100949575D01*
X183113662Y-100748327D01*
X182880227Y-100589570D01*
X182862655Y-100582122D01*
X182992101Y-100512932D01*
X183210608Y-100333608D01*
X183389932Y-100115101D01*
X183523182Y-99865808D01*
X183605236Y-99595309D01*
X183632943Y-99314000D01*
X183605236Y-99032691D01*
X183523182Y-98762192D01*
X183389932Y-98512899D01*
X183210608Y-98294392D01*
X182992101Y-98115068D01*
X182859142Y-98044000D01*
X182992101Y-97972932D01*
X183210608Y-97793608D01*
X183389932Y-97575101D01*
X183523182Y-97325808D01*
X183605236Y-97055309D01*
X183632943Y-96774000D01*
X183605236Y-96492691D01*
X183523182Y-96222192D01*
X183389932Y-95972899D01*
X183210608Y-95754392D01*
X182992101Y-95575068D01*
X182859142Y-95504000D01*
X182992101Y-95432932D01*
X183210608Y-95253608D01*
X183389932Y-95035101D01*
X183523182Y-94785808D01*
X183605236Y-94515309D01*
X183632943Y-94234000D01*
X183605236Y-93952691D01*
X183523182Y-93682192D01*
X183389932Y-93432899D01*
X183210608Y-93214392D01*
X182992101Y-93035068D01*
X182859142Y-92964000D01*
X182992101Y-92892932D01*
X183210608Y-92713608D01*
X183389932Y-92495101D01*
X183523182Y-92245808D01*
X183605236Y-91975309D01*
X183632943Y-91694000D01*
X183605236Y-91412691D01*
X183523182Y-91142192D01*
X183389932Y-90892899D01*
X183210608Y-90674392D01*
X182992101Y-90495068D01*
X182859142Y-90424000D01*
X182992101Y-90352932D01*
X183210608Y-90173608D01*
X183389932Y-89955101D01*
X183523182Y-89705808D01*
X183605236Y-89435309D01*
X183632943Y-89154000D01*
X183605236Y-88872691D01*
X183523182Y-88602192D01*
X183389932Y-88352899D01*
X183210608Y-88134392D01*
X182992101Y-87955068D01*
X182859142Y-87884000D01*
X182992101Y-87812932D01*
X183210608Y-87633608D01*
X183389932Y-87415101D01*
X183523182Y-87165808D01*
X183605236Y-86895309D01*
X183632943Y-86614000D01*
X183605236Y-86332691D01*
X183523182Y-86062192D01*
X183389932Y-85812899D01*
X183210608Y-85594392D01*
X182992101Y-85415068D01*
X182742808Y-85281818D01*
X182472309Y-85199764D01*
X182261492Y-85179000D01*
X181720508Y-85179000D01*
X181509691Y-85199764D01*
X181239192Y-85281818D01*
X180989899Y-85415068D01*
X180771392Y-85594392D01*
X180592068Y-85812899D01*
X180458818Y-86062192D01*
X180376764Y-86332691D01*
X180349057Y-86614000D01*
X160769072Y-86614000D01*
X160769072Y-85614000D01*
X160756812Y-85489518D01*
X160720502Y-85369820D01*
X160661537Y-85259506D01*
X160582185Y-85162815D01*
X160485494Y-85083463D01*
X160375180Y-85024498D01*
X160255482Y-84988188D01*
X160131000Y-84975928D01*
X158131000Y-84975928D01*
X158006518Y-84988188D01*
X157886820Y-85024498D01*
X157776506Y-85083463D01*
X157679815Y-85162815D01*
X157600463Y-85259506D01*
X157541498Y-85369820D01*
X157505188Y-85489518D01*
X157492928Y-85614000D01*
X157492928Y-87614000D01*
X157505188Y-87738482D01*
X157541498Y-87858180D01*
X157600463Y-87968494D01*
X157679815Y-88065185D01*
X157776506Y-88144537D01*
X157864476Y-88191559D01*
X157732068Y-88352899D01*
X157598818Y-88602192D01*
X157516764Y-88872691D01*
X157489057Y-89154000D01*
X133093396Y-89154000D01*
X133194637Y-89052759D01*
X133351680Y-88817727D01*
X133459853Y-88556574D01*
X133515000Y-88279335D01*
X133515000Y-87996665D01*
X133459853Y-87719426D01*
X133351680Y-87458273D01*
X133194637Y-87223241D01*
X132994759Y-87023363D01*
X132759727Y-86866320D01*
X132498574Y-86758147D01*
X132221335Y-86703000D01*
X131938665Y-86703000D01*
X131661426Y-86758147D01*
X131400273Y-86866320D01*
X131165241Y-87023363D01*
X130965363Y-87223241D01*
X130808320Y-87458273D01*
X130700147Y-87719426D01*
X130645000Y-87996665D01*
X123355000Y-87996665D01*
X123299853Y-87719426D01*
X123191680Y-87458273D01*
X123034637Y-87223241D01*
X122834759Y-87023363D01*
X122599727Y-86866320D01*
X122338574Y-86758147D01*
X122061335Y-86703000D01*
X121778665Y-86703000D01*
X121501426Y-86758147D01*
X121240273Y-86866320D01*
X121005241Y-87023363D01*
X120805363Y-87223241D01*
X120648320Y-87458273D01*
X120540147Y-87719426D01*
X120485000Y-87996665D01*
X115274471Y-87996665D01*
X115222537Y-87899506D01*
X115143185Y-87802815D01*
X115046494Y-87723463D01*
X114936180Y-87664498D01*
X114917873Y-87658944D01*
X114984312Y-87592505D01*
X115152299Y-87341095D01*
X115268011Y-87061743D01*
X115327000Y-86765184D01*
X115327000Y-86462816D01*
X115268011Y-86166257D01*
X115152299Y-85886905D01*
X114984312Y-85635495D01*
X114770505Y-85421688D01*
X114519095Y-85253701D01*
X114239743Y-85137989D01*
X113943184Y-85079000D01*
X113640816Y-85079000D01*
X113344257Y-85137989D01*
X113064905Y-85253701D01*
X112813495Y-85421688D01*
X112599688Y-85635495D01*
X112431701Y-85886905D01*
X112315989Y-86166257D01*
X112257000Y-86462816D01*
X112257000Y-86765184D01*
X112315989Y-87061743D01*
X112431701Y-87341095D01*
X112599688Y-87592505D01*
X112666127Y-87658944D01*
X112647820Y-87664498D01*
X112537506Y-87723463D01*
X112440815Y-87802815D01*
X112361463Y-87899506D01*
X112302498Y-88009820D01*
X112266188Y-88129518D01*
X112253928Y-88254000D01*
X92100000Y-88254000D01*
X92100000Y-79614665D01*
X120358000Y-79614665D01*
X120358000Y-79897335D01*
X120413147Y-80174574D01*
X120521320Y-80435727D01*
X120678363Y-80670759D01*
X120878241Y-80870637D01*
X121113273Y-81027680D01*
X121374426Y-81135853D01*
X121651665Y-81191000D01*
X121934335Y-81191000D01*
X122211574Y-81135853D01*
X122472727Y-81027680D01*
X122707759Y-80870637D01*
X122907637Y-80670759D01*
X123064680Y-80435727D01*
X123172853Y-80174574D01*
X123228000Y-79897335D01*
X123228000Y-79614665D01*
X130518000Y-79614665D01*
X130518000Y-79897335D01*
X130573147Y-80174574D01*
X130681320Y-80435727D01*
X130838363Y-80670759D01*
X131038241Y-80870637D01*
X131273273Y-81027680D01*
X131534426Y-81135853D01*
X131811665Y-81191000D01*
X132094335Y-81191000D01*
X132371574Y-81135853D01*
X132632727Y-81027680D01*
X132867759Y-80870637D01*
X133067637Y-80670759D01*
X133224680Y-80435727D01*
X133332853Y-80174574D01*
X133388000Y-79897335D01*
X133388000Y-79614665D01*
X133332853Y-79337426D01*
X133224680Y-79076273D01*
X133067637Y-78841241D01*
X132867759Y-78641363D01*
X132632727Y-78484320D01*
X132371574Y-78376147D01*
X132094335Y-78321000D01*
X131811665Y-78321000D01*
X131534426Y-78376147D01*
X131273273Y-78484320D01*
X131038241Y-78641363D01*
X130838363Y-78841241D01*
X130681320Y-79076273D01*
X130573147Y-79337426D01*
X130518000Y-79614665D01*
X123228000Y-79614665D01*
X123172853Y-79337426D01*
X123064680Y-79076273D01*
X122907637Y-78841241D01*
X122707759Y-78641363D01*
X122472727Y-78484320D01*
X122211574Y-78376147D01*
X121934335Y-78321000D01*
X121651665Y-78321000D01*
X121374426Y-78376147D01*
X121113273Y-78484320D01*
X120878241Y-78641363D01*
X120678363Y-78841241D01*
X120521320Y-79076273D01*
X120413147Y-79337426D01*
X120358000Y-79614665D01*
X92100000Y-79614665D01*
X92100000Y-75573872D01*
X102205000Y-75573872D01*
X102205000Y-76014128D01*
X102290890Y-76445925D01*
X102459369Y-76852669D01*
X102703962Y-77218729D01*
X103015271Y-77530038D01*
X103381331Y-77774631D01*
X103788075Y-77943110D01*
X104219872Y-78029000D01*
X104660128Y-78029000D01*
X105091925Y-77943110D01*
X105498669Y-77774631D01*
X105864729Y-77530038D01*
X106176038Y-77218729D01*
X106420631Y-76852669D01*
X106589110Y-76445925D01*
X106675000Y-76014128D01*
X106675000Y-75573872D01*
X192205000Y-75573872D01*
X192205000Y-76014128D01*
X192290890Y-76445925D01*
X192459369Y-76852669D01*
X192703962Y-77218729D01*
X193015271Y-77530038D01*
X193381331Y-77774631D01*
X193788075Y-77943110D01*
X194219872Y-78029000D01*
X194660128Y-78029000D01*
X195091925Y-77943110D01*
X195498669Y-77774631D01*
X195864729Y-77530038D01*
X196176038Y-77218729D01*
X196420631Y-76852669D01*
X196589110Y-76445925D01*
X196675000Y-76014128D01*
X196675000Y-75573872D01*
X196589110Y-75142075D01*
X196420631Y-74735331D01*
X196176038Y-74369271D01*
X195864729Y-74057962D01*
X195498669Y-73813369D01*
X195091925Y-73644890D01*
X194660128Y-73559000D01*
X194219872Y-73559000D01*
X193788075Y-73644890D01*
X193381331Y-73813369D01*
X193015271Y-74057962D01*
X192703962Y-74369271D01*
X192459369Y-74735331D01*
X192290890Y-75142075D01*
X192205000Y-75573872D01*
X106675000Y-75573872D01*
X106589110Y-75142075D01*
X106420631Y-74735331D01*
X106176038Y-74369271D01*
X105864729Y-74057962D01*
X105498669Y-73813369D01*
X105091925Y-73644890D01*
X104660128Y-73559000D01*
X104219872Y-73559000D01*
X103788075Y-73644890D01*
X103381331Y-73813369D01*
X103015271Y-74057962D01*
X102703962Y-74369271D01*
X102459369Y-74735331D01*
X102290890Y-75142075D01*
X102205000Y-75573872D01*
X92100000Y-75573872D01*
X92100000Y-66954000D01*
X206780000Y-66954000D01*
X206780001Y-129634000D01*
G37*
%TD.AperFunction*%
%TD*%
M02*
